ply
format ascii 1.0
comment VCGLIB generated
element vertex 457
property float x
property float y
property float z
property float nx
property float ny
property float nz
element face 842
property list uchar int vertex_indices
end_header
-19.1225 -23.3589 -1 0.03728 -0.262865 -0.964112 
-19.1225 -23.3589 0 -0.704876 -0.709104 0.017936 
-23.3652 -19.1163 -1 -0.191084 -0.03841 -0.980822 
-23.3652 -19.1163 0 -0.709498 -0.701063 0.071571 
23.3663 -19.1163 -1 0.135051 0.019153 -0.990654 
23.3663 -19.1163 0 0.708762 -0.704536 0.035855 
19.1236 -23.3589 -1 0.072785 -0.362092 -0.929296 
19.1236 -23.3589 0 0.702414 -0.710865 0.035854 
22.0006 6.00681 0 0.599952 -0.796766 0.072257 
22.0006 3.25681 0 0.994493 -0.045903 0.094213 
24.0006 6.00681 -0 0.898102 -0.317949 0.303843 
22.0006 3.00681 0 0.991452 0.041285 0.123765 
22.0006 0.131813 0 0.955661 -0.020327 0.293766 
24.0006 -5.99319 -0 0.860534 0.366086 0.354207 
22.0006 -0.118187 0 0.989816 0.078595 0.118692 
22.0006 -2.99319 0 0.997749 -0.021222 0.06362 
22.0006 -3.24319 -0 0.998556 0.023528 0.048291 
22.0006 -5.99319 -0 0.683974 0.726525 0.065887 
23.3409 -19.0909 0 0.712525 -0.682131 0.164333 
19.0983 -23.3335 0 0.689849 -0.705049 0.164361 
23.3409 19.1045 0 0.712525 0.682126 0.164353 
23.3663 19.1299 0 0.709498 0.701063 0.071571 
19.0983 23.3472 0 0.689845 0.705047 0.164383 
19.1236 23.3725 0 0.704876 0.709104 0.017936 
-23.3398 -19.0909 0 -0.712525 -0.682126 0.164354 
-19.0972 -23.3335 0 -0.689845 -0.705047 0.164382 
-19.0972 23.3472 0 -0.695199 0.710521 0.108895 
-19.1225 23.3725 0 -0.701063 0.709498 0.071571 
-23.3398 19.1045 0 -0.69544 0.665765 0.270406 
-23.3652 19.1299 0 -0.709104 0.704876 0.017936 
24.0006 9.94794 -1 0.324438 0.094673 -0.941157 
24.0006 -9.93431 -1 0.16505 -0.019888 -0.986085 
24.0006 9.94794 0 0.860934 0.505667 0.055616 
24.0006 -9.93431 0 0.860207 -0.506938 0.055303 
-19.0913 -14.8424 -1 -0.008358 0.0028 -0.999961 
-19.0913 -14.8424 -0 -0.99566 -0.084977 0.037936 
-23.9994 -9.93431 -1 -0.121046 -0.040009 -0.99184 
-23.9994 -9.93431 0 -0.962804 -0.264519 0.055121 
14.8498 -19.0851 -1 -0.011183 -0.033384 -0.99938 
14.8498 -19.0851 -0 0.084977 -0.99566 0.037936 
9.94168 -23.9932 -1 0.095792 -0.289812 -0.952278 
9.94168 -23.9932 0 0.241494 -0.968841 0.055031 
19.0924 14.8561 -1 0.00792 -0.002653 -0.999965 
19.0924 14.8561 -0 0.99566 0.084977 0.037936 
-19.0913 14.8561 0 -0.996672 0.071838 0.038525 
-19.0913 14.8561 -1 -0.013913 -2.6e-005 -0.999903 
-23.9994 9.94794 0 -0.960969 0.27104 0.055453 
-23.9994 9.94794 -1 -0.415808 0.045684 -0.908304 
-9.94057 24.0068 -1 -0.095792 0.289813 -0.952278 
-9.94057 24.0068 0 -0.285135 0.956898 0.055174 
9.94168 24.0068 -1 0.019834 0.180523 -0.983371 
9.94168 24.0068 0 0.290843 0.955158 0.05552 
-14.8487 19.0987 -1 0.011183 0.033384 -0.99938 
-14.8487 19.0987 -0 -0.084977 0.99566 0.037936 
-14.8487 -19.0851 0 -0.071839 -0.996672 0.038525 
-14.8487 -19.0851 -1 2.2e-005 -0.01199 -0.999928 
-9.94057 -23.9932 0 -0.248711 -0.966995 0.055349 
-9.94057 -23.9932 -1 -0.019834 -0.180522 -0.983371 
19.0924 -14.8424 -0 0.996672 -0.071839 0.038525 
19.0924 -14.8424 -1 0.014944 2.8e-005 -0.999888 
14.8498 19.0987 -0 0.071838 0.996672 0.038525 
14.8498 19.0987 -1 -2.2e-005 0.01199 -0.999928 
-23.3652 19.1299 -1 -0.135051 -0.019153 -0.990654 
-19.1225 23.3725 -1 -0.072785 0.362092 -0.929296 
19.1236 23.3725 -1 -0.03728 0.262865 -0.964112 
23.3663 19.1299 -1 0.191084 0.038411 -0.980822 
-17.7591 13.5238 35.9507 -0.790226 0.608418 0.073286 
-23.3281 19.0929 0.314016 -0.939136 0.286093 0.190196 
-23.3281 -19.0793 0.314016 -0.988575 0.027282 0.14824 
-19.0855 -23.3219 0.314016 -0.28436 -0.939575 0.190629 
-13.5164 -17.7528 35.9507 -0.608418 -0.790226 0.073286 
13.5175 17.7664 35.9507 0.598696 0.797439 0.075192 
19.0866 23.3355 0.314016 0.28436 0.939574 0.190629 
23.3293 -19.0793 0.314016 0.939136 -0.286093 0.190196 
19.0866 -23.3219 0.314016 -0.031573 -0.988404 0.148532 
17.7602 -13.5102 35.9507 0.803315 -0.590587 0.07676 
-19.0855 23.3355 0.314016 0.031572 0.988404 0.148532 
23.3293 19.0929 0.314016 0.988575 -0.027283 0.14824 
15.0976 8.74749 59.9945 -0.829487 -0.546335 0.116057 
14.6539 8.30378 71.968 -0.761337 -0.640596 -0.100013 
14.9459 14.2449 64.1926 0.490703 0.868738 0.067121 
14.7978 14.0968 68.1881 -0.657426 -0.281832 -0.698829 
8.74124 15.1039 59.9945 -0.462071 -0.879181 0.116324 
14.2386 14.9522 64.1926 0.723992 0.455912 0.517668 
14.0906 14.8041 68.1881 0.323695 -0.942854 -0.079042 
4.49508 19.5988 7.78545 -0.225209 -0.964581 0.137347 
4.49508 18.9713 19.7581 -0.071671 -0.99314 -0.092397 
0.500558 23.3788 11.9836 -0.278189 0.958142 0.067637 
0.500558 23.1694 15.9781 -0.026251 0.999567 -0.013262 
-4.49396 19.5988 7.78545 0.174816 -0.983485 0.046875 
-0.499442 23.3788 11.9836 0.368037 -0.188757 0.91045 
-4.49396 18.9713 19.7581 0.052034 -0.994068 -0.09551 
-0.499442 23.1694 15.9781 0.068407 0.996505 0.04794 
-18.9516 4.50133 19.9945 0.976731 -0.18707 0.104889 
-18.3241 4.50133 31.9671 0.993539 -0.068393 -0.090573 
-22.7316 0.506813 24.1926 -0.989282 -0.133039 0.060178 
-22.5222 0.506813 28.1871 -0.999182 -0.031216 -0.025698 
-18.9516 -4.48771 19.9945 0.956023 0.274146 0.104234 
-22.7316 -0.493187 24.1926 -0.092464 0.368043 0.9252 
-18.3241 -4.48771 31.9671 0.994265 0.050518 -0.094255 
-22.5222 -0.493187 28.1871 -0.995391 0.08363 0.046929 
-4.49396 -18.1068 35.9945 0.192121 0.975279 0.109179 
-4.49396 -17.4793 47.9671 0.07125 0.993192 -0.092163 
-0.499442 -21.8868 40.1926 0.07857 -0.995273 0.057081 
-0.499442 -21.6774 44.1871 0.041478 -0.997815 -0.051431 
4.49508 -18.1068 35.9945 -0.282116 0.953183 0.108869 
0.500558 -21.8868 40.1926 -0.330502 -0.413983 0.848167 
4.49508 -17.4793 47.9671 -0.052597 0.993993 -0.095976 
0.500558 -21.6774 44.1871 -0.11796 -0.992016 0.044602 
9.33416 -15.6832 43.9945 -0.551366 0.826791 0.111411 
8.89045 -15.2395 55.968 -0.650696 0.75362 -0.09301 
14.8316 -15.5315 48.1926 0.927207 0.366321 0.078075 
14.6835 -15.3834 52.1881 0.751971 -0.458929 -0.473206 
15.6905 -9.32679 43.9945 -0.87536 0.470491 0.111281 
15.5388 -14.8242 48.1926 -0.66919 0.255028 0.697959 
15.2468 -8.88308 55.968 -0.741668 0.663545 -0.098162 
15.3908 -14.6761 52.1881 0.414429 -0.909677 0.027133 
16.6482 4.50133 63.9671 -0.987327 -0.092525 -0.128939 
17.2756 4.50133 51.9945 -0.950077 -0.290534 0.113771 
20.8463 0.506813 60.1871 0.361509 -0.931536 -0.039395 
21.0556 0.506813 56.1926 0.907899 -0.139102 0.395436 
16.6482 -4.48771 63.9671 -0.993658 0.06739 -0.090014 
20.8463 -0.493187 60.1871 -0.582577 0.291231 -0.758807 
17.2756 -4.48771 51.9945 -0.973698 0.197442 0.113701 
21.0556 -0.493187 56.1926 0.974171 0.216375 0.064605 
22.0256 4.63181 10.9677 0.028073 -0.993279 0.112291 
22.0256 4.66799 11.0378 0.990659 -0.133484 -0.027861 
21.5256 4.63181 10.9677 0.176058 -0.949636 0.25922 
21.5256 4.66799 11.0378 0.098974 -0.974099 -0.203311 
21.5256 4.60681 11.0875 0.187595 -0.256866 -0.948065 
22.0256 4.60681 11.0875 0.934699 0.092951 -0.343072 
21.5256 4.54563 11.0378 0.04967 0.977697 -0.204062 
22.0256 4.54563 11.0378 0.995703 0.09065 -0.01892 
22.0256 4.58181 10.9677 0.032899 0.964183 0.263191 
21.5256 4.58181 10.9677 0.113054 0.9873 0.111615 
21.5256 4.63181 10.8427 0.046374 -0.927477 0.370992 
22.0256 4.63181 10.8427 0.99747 -0.066007 0.026403 
21.5256 4.58181 10.8427 0.182575 0.91287 0.36515 
22.0256 4.58181 10.8427 0.760937 0.602419 0.240969 
22.0256 4.15681 10.025 0.999549 -0.028583 -0.009205 
22.0006 4.13181 10 0.999925 -0.0116 -0.003802 
22.0256 5.10681 10.025 0.998391 0.053886 -0.01766 
22.0006 5.13181 10 0.999999 0.001284 -0.000428 
22.0256 4.15681 12.975 0.997074 -0.075481 0.012052 
22.0006 4.13181 13 0.999999 -0.001303 0.000847 
22.0256 5.10681 12.975 0.998936 0.038472 0.025431 
22.0006 5.13181 13 0.999898 0.014083 0.002367 
22.0256 4.74007 12.1875 0.999648 0.025064 -0.008682 
22.0256 4.63181 12.125 0.987097 0.030261 -0.15724 
22.0256 4.52356 12.1875 0.999631 -0.020532 -0.017781 
22.0256 4.52356 12.3125 0.945397 -0.307966 0.106682 
22.0256 4.63181 12.375 0.997972 -0.01203 0.062509 
22.0256 4.74007 12.3125 0.945397 0.246373 0.213365 
22.172 4.74007 12.1875 -0.58338 0.558957 -0.589267 
22.172 4.74007 12.3125 -0.562042 0.790241 0.244191 
22.172 4.63181 12.375 -0.626842 0.194544 0.754468 
22.172 4.52356 12.3125 -0.578795 -0.56097 0.591869 
22.172 4.52356 12.1875 -0.562041 -0.790241 -0.244191 
22.172 4.63181 12.125 -0.649781 -0.054178 -0.758188 
21.1773 1.39254 20.7622 0.58854 -0.777082 -0.223078 
21.1773 1.39254 16.7622 0.777081 -0.588543 0.223074 
21.2506 1.56931 20.7622 0.489368 -0.067574 -0.869455 
21.0006 1.31931 16.7622 0.131872 -0.955089 0.265357 
21.0006 1.31931 20.7622 -0.13187 -0.955091 -0.265352 
21.0006 1.81931 16.7622 -0.080503 0.583059 0.808431 
21.0006 1.81931 20.7622 0.080504 0.583051 -0.808437 
21.1773 1.74609 16.7622 0.586642 0.774576 0.236395 
21.1773 1.74609 20.7622 0.774575 0.586645 -0.236391 
21.2506 1.56931 16.7622 0.489368 0.067574 0.869455 
21.1773 -1.73246 20.7622 0.586642 -0.774576 -0.236395 
21.1773 -1.73246 16.7622 0.774575 -0.586645 0.236391 
21.2506 -1.55569 20.7622 0.498189 -0.068792 -0.864335 
21.0006 -1.80569 16.7622 0.080504 -0.583051 0.808437 
21.0006 -1.80569 20.7622 -0.080503 -0.583059 -0.808431 
21.0006 -1.30569 16.7622 -0.134716 0.975704 0.172779 
21.0006 -1.30569 20.7622 0.134719 0.975703 -0.172783 
21.1773 -1.37891 16.7622 0.581049 0.767191 0.271663 
21.1773 -1.37891 20.7622 0.76719 0.581052 -0.271658 
21.2506 -1.55569 16.7622 0.498189 0.068792 0.864335 
21.1773 -0.169964 20.7622 0.597829 -0.789347 -0.139753 
21.1773 -0.169964 16.7622 0.789346 -0.597832 0.13975 
21.2506 0.006813 20.7622 0.595246 -0.082195 -0.799329 
21.0006 -0.243187 16.7622 0.128066 -0.927523 0.35114 
21.0006 -0.243187 20.7622 -0.128064 -0.927526 -0.351134 
21.0006 0.256813 16.7622 -0.13187 0.955093 0.265346 
21.0006 0.256813 20.7622 0.131873 0.955091 -0.265352 
21.1773 0.18359 16.7622 0.592641 0.782496 0.19099 
21.1773 0.18359 20.7622 0.782495 0.592643 -0.190986 
21.2506 0.006813 16.7622 0.595246 0.082195 0.799329 
21.8756 0.006813 20.8872 0.945596 -0.324217 0.027055 
21.8756 0.006813 23.6331 0.945596 0.324217 -0.027055 
22.0006 -0.118187 20.7622 0.934787 0.071663 -0.347906 
22.0006 -0.118187 23.7581 0.942874 0.020026 0.332547 
22.0006 0.131813 20.7622 0.980815 -0.020831 -0.193824 
22.0006 0.131813 23.7581 0.456779 -0.035018 0.888891 
21.8756 0.006813 16.6372 0.948198 0.317645 -0.004738 
22.0006 0.131813 16.7622 0.994678 -0.078981 0.066165 
22.0006 -0.118187 16.7622 0.999149 0.021252 0.035341 
21.8756 0.006813 0.125 0.948198 -0.317645 0.004738 
21.8756 3.13181 0.125 0.997015 -0.077149 0.002859 
21.8756 3.13181 23.4566 0.992279 0.123937 -0.004593 
22.0006 3.25681 23.5084 0.969313 0.11159 0.219044 
22.0006 3.00681 23.7581 0.942185 0.044992 0.33206 
22.0006 3.00681 16.7622 0.998476 -0.024383 0.049508 
22.0006 3.00681 20.7622 0.511302 -0.815131 -0.272271 
21.8756 -3.11819 0.125 0.997015 0.077149 0.002859 
22.0006 -3.24319 23.5084 0.982352 -0.084904 0.166662 
21.8756 -3.11819 23.4566 0.992279 -0.123937 -0.004593 
22.0006 -2.99319 23.7581 0.821222 -0.076614 0.565442 
22.0006 -2.99319 20.7622 0.900619 0.354534 -0.251377 
22.0006 -2.99319 16.7622 0.9773 0.190869 0.091942 
22.0006 -5.99319 20.7622 0.99279 0.111158 0.044851 
22.0006 6.00681 20.7622 0.966151 -0.239236 0.096529 
20.0006 3.00681 20.7622 -0.979459 -0.137617 -0.147385 
20.0006 3.00681 16.7622 -0.998837 -0.042503 0.02276 
20.0006 -2.99319 20.7622 -0.906478 0.372241 -0.199332 
20.0006 -2.99319 16.7622 -0.997761 0.045649 0.048889 
20.0006 -2.99319 23.7581 -0.869009 -0.125524 0.47861 
20.0006 3.00681 23.7581 -0.731891 0.176196 0.658248 
20.0006 6.00681 20.7622 -0.981057 -0.138459 0.135482 
20.0006 -5.99319 20.7622 -0.981057 0.138459 0.135482 
18.9125 6.00681 20.7622 -0.979411 -0.169436 -0.109751 
22.9015 6.00681 20.9712 0.99505 -0.09616 0.025081 
18.9125 -5.99319 20.7622 -0.943616 0.271853 -0.188907 
22.9015 -5.99319 20.9712 0.99582 0.082767 0.038635 
18.7554 -2.99319 23.7581 -0.959891 0.045217 -0.276702 
22.7445 -2.99319 23.9671 0.997301 0.051986 -0.051849 
18.7554 3.00681 23.7581 -0.975164 -0.07799 -0.2073 
22.7445 3.00681 23.9671 0.997308 -0.02426 -0.069199 
20.2297 -2.99319 71.9529 0.997059 -0.075217 0.014718 
20.2297 3.00681 71.9529 0.995309 0.092254 0.029143 
18.9694 -7.85034 96 0.914308 -0.404906 0.009537 
18.9694 7.86397 96 0.914308 0.404906 0.009538 
18.9694 3.00681 96 0.885638 0.461627 -0.050456 
18.9694 -2.99319 96 0.885638 -0.461627 -0.050456 
-0.764809 -1.84095 104 0.780395 -0.609112 -0.141303 
-0.764809 -1.84095 108 0.112122 -0.056665 0.992077 
-6.62686 -15.9932 104 0.415482 0.02247 -0.909324 
-6.62686 -15.9932 108 0.127646 0.18623 0.974179 
6.62797 -15.9932 104 -0.13965 0.92963 -0.341008 
6.62797 -15.9932 108 -0.257163 0.499618 0.827194 
11.3143 -11.3069 104 -0.878218 -0.041706 0.476439 
16.0006 -6.6206 104 0.043638 0.52764 -0.848347 
1.84832 -0.758554 104 0.187716 -0.979544 -0.072494 
1.84832 -0.758554 108 -0.021117 -0.059284 0.998018 
16.0006 -6.6206 108 -0.270859 -0.149655 0.950915 
1.73261 -0.993187 104 0.403613 -0.233027 0.884757 
-0.517081 -1.92504 92 -0.240622 -0.898011 0.368343 
-0.260495 -1.97608 108 -0.142344 -0.98981 0.00387 
0.26161 -1.97608 108 0.13051 -0.991321 0.015797 
0.765924 -1.84095 108 0.36495 -0.930037 0.042922 
1.21808 -1.57989 108 0.584747 -0.804926 0.100825 
1.58726 -1.21071 108 0.769807 -0.590694 0.241823 
10.6038 23.6053 124 0.643906 0.754383 0.127637 
9.18957 22.1911 108 0.45362 0.873009 -0.179119 
9.18957 24.1911 124 0.043622 0.998929 0.015423 
-9.18846 24.1911 124 -0.078119 0.98874 0.127637 
-9.18846 22.1911 108 -0.296553 0.938069 -0.179119 
-10.6027 23.6053 124 -0.675504 0.737195 0.015423 
-23.5979 10.61 124 -0.754383 0.643906 0.127637 
-22.1837 9.19583 108 -0.873009 0.45362 -0.179119 
-24.1837 9.19583 124 -0.998929 0.043622 0.015423 
-24.1837 -9.1822 124 -0.98874 -0.078119 0.127637 
-22.1837 -9.1822 108 -0.938068 -0.296553 -0.179119 
-23.5979 -10.5964 124 -0.737195 -0.675504 0.015423 
-10.6027 -23.5916 124 -0.643906 -0.754383 0.127637 
-9.18846 -22.1774 108 -0.45362 -0.873009 -0.179119 
-9.18846 -24.1774 124 -0.043622 -0.998929 0.015423 
9.18957 -24.1774 124 0.078119 -0.98874 0.127637 
9.18957 -22.1774 108 0.296553 -0.938069 -0.179119 
10.6038 -23.5916 124 0.675504 -0.737195 0.015423 
23.599 -10.5964 124 0.754383 -0.643906 0.127637 
22.1848 -9.1822 108 0.873009 -0.45362 -0.179119 
24.1848 -9.1822 124 0.998929 -0.043623 0.015423 
24.1848 9.19583 124 0.98874 0.078119 0.127637 
22.1848 9.19583 108 0.938068 0.296553 -0.179119 
23.599 10.61 124 0.737195 0.675504 0.015423 
3.18957 -22.1774 108 -0.101316 -0.974421 -0.200597 
3.18957 -24.1774 124 -0.202829 -0.97358 0.104895 
13.4322 -17.9348 108 0.74481 -0.642904 -0.178698 
14.8464 -19.349 124 0.882136 -0.363232 0.299831 
22.1848 3.19583 108 0.974421 -0.101316 -0.200597 
24.1848 3.19583 124 0.97358 -0.202829 0.104895 
17.9422 13.4385 108 0.642904 0.74481 -0.178698 
19.3564 14.8527 124 0.363233 0.882136 0.299831 
-3.18846 22.1911 108 0.101316 0.974421 -0.200597 
-3.18846 24.1911 124 0.202829 0.97358 0.104895 
-13.4311 17.9484 108 -0.74481 0.642904 -0.178698 
-14.8453 19.3626 124 -0.882136 0.363233 0.299832 
-22.1837 -3.1822 108 -0.974421 0.101316 -0.200597 
-24.1837 -3.1822 124 -0.97358 0.202829 0.104895 
-17.941 13.4385 108 -0.617378 0.760661 -0.200597 
-19.3553 14.8527 124 -0.545003 0.831846 0.104895 
-22.1837 3.19583 108 -0.981262 -0.072058 -0.178698 
-24.1837 3.19583 124 -0.880608 -0.36692 0.299831 
13.4322 17.9484 108 0.760661 0.617378 -0.200597 
14.8464 19.3626 124 0.831847 0.545003 0.104895 
3.18957 22.1911 108 -0.072058 0.981262 -0.178698 
3.18957 24.1911 124 -0.36692 0.880608 0.299831 
17.9422 -13.4248 108 0.617378 -0.760661 -0.200597 
19.3564 -14.8391 124 0.545003 -0.831846 0.104894 
22.1848 -3.1822 108 0.981262 0.072058 -0.178698 
24.1848 -3.1822 124 0.880608 0.36692 0.299831 
-3.18846 -22.1774 108 0.072058 -0.981262 -0.178698 
-3.18846 -24.1774 124 0.36692 -0.880608 0.299831 
13.4322 -17.9348 120 0.876942 -0.453479 0.15915 
12.018 -16.5206 124 0.061922 0.835048 0.546681 
12.018 -16.5206 120 -0.673322 0.735968 0.070633 
17.9422 13.4385 120 0.453479 0.876942 0.15915 
16.528 12.0243 124 -0.835048 0.061922 0.546681 
16.528 12.0243 120 -0.735968 -0.673322 0.070633 
-13.4311 17.9484 120 -0.962583 0.233839 0.136942 
-12.0169 16.5342 124 -0.061923 -0.835047 0.546682 
-12.0169 16.5342 120 0.690543 -0.720194 0.066863 
-22.1837 3.19583 120 -0.82316 -0.501389 0.266489 
-20.1837 3.19583 124 0.546682 -0.634254 0.546682 
-20.1837 3.19583 120 0.999218 -0.021002 0.033488 
3.18957 22.1911 120 -0.515299 0.845999 0.136941 
3.18957 20.1911 124 -0.634254 -0.546682 0.546682 
3.18957 20.1911 120 -0.020967 -0.997542 0.066863 
22.1848 -3.1822 120 0.94075 0.299434 0.15915 
20.1848 -3.1822 124 -0.546682 0.634254 0.546682 
20.1848 -3.1822 120 -0.996518 0.044298 0.070633 
-3.18846 -22.1774 120 0.302319 -0.949815 0.080342 
-3.18846 -20.1774 124 0.634254 0.546682 0.546682 
-3.18846 -20.1774 120 0.04397 0.989143 0.14022 
-13.4311 -17.9348 108 -0.760661 -0.617378 -0.200597 
-14.8453 -19.349 124 -0.831846 -0.545003 0.104895 
-17.941 -13.4248 108 -0.642904 -0.74481 -0.178698 
-19.3553 -14.8391 124 -0.363233 -0.882136 0.299831 
-17.941 -13.4248 120 -0.227527 -0.936598 0.266489 
-16.5268 -12.0106 124 0.835047 -0.061923 0.546682 
-16.5268 -12.0106 120 0.721404 0.691704 0.033488 
17.7602 13.5238 35.9507 0.786994 0.609822 0.09358 
-13.5164 17.7664 35.9507 -0.607188 0.788904 0.094626 
-17.7591 -13.5102 35.9507 -0.788904 -0.607188 0.094626 
12.1834 16.4323 71.9529 0.59698 0.802103 0.015657 
16.426 12.1896 71.9529 0.779367 0.626565 -0.001817 
15.5349 11.2985 96 0.952661 0.29982 -0.050456 
7.85771 18.9757 96 0.435757 0.900045 0.005866 
11.2922 15.5411 96 0.299821 0.95266 -0.050456 
-7.8566 18.9757 96 -0.435757 0.900045 0.005866 
-12.1823 16.4323 71.9529 -0.648454 0.761152 0.01247 
-11.2911 15.5411 96 -0.299822 0.95266 -0.050456 
-16.4249 12.1896 71.9529 -0.790811 0.611721 0.020378 
-18.9683 7.86397 96 -0.900045 0.435757 0.005866 
-15.5338 11.2985 96 -0.95266 0.299822 -0.050456 
-18.9683 -7.85034 96 -0.900045 -0.435757 0.005866 
-16.4249 -12.176 71.9529 -0.761152 -0.648453 0.01247 
-15.5338 -11.2849 96 -0.95266 -0.299822 -0.050456 
-12.1823 -16.4186 71.9529 -0.611721 -0.790811 0.020378 
-7.8566 -18.962 96 -0.435757 -0.900045 0.005866 
-11.2911 -15.5275 96 -0.29982 -0.952661 -0.050456 
13.5175 -17.7528 35.9507 0.604464 -0.790863 0.095703 
12.1834 -16.4186 71.9529 0.635495 -0.772094 0.003962 
16.426 -12.176 71.9529 0.791613 -0.610694 0.020047 
15.5349 -11.2849 96 0.952661 -0.29982 -0.050456 
7.85771 -18.962 96 0.435757 -0.900045 0.005866 
11.2922 -15.5275 96 0.299819 -0.952661 -0.050456 
22.1848 -2.99319 108 0.952837 -0.300813 -0.04015 
22.1848 3.00681 108 0.986957 0.155792 -0.040563 
17.8085 13.5721 108 0.886465 0.46105 -0.04015 
13.5659 17.8148 108 0.587722 0.808046 -0.040563 
3.00056 22.1911 108 0.242668 0.969569 -0.032389 
3.00056 20.2359 71.9529 0.045561 0.998523 0.029594 
-2.99944 22.1911 108 -0.178468 0.982848 -0.046467 
-2.99944 20.2359 71.9529 -0.052599 0.997847 0.039171 
-13.5647 17.8148 108 -0.513997 0.85718 -0.032389 
-17.8074 13.5721 108 -0.821174 0.568783 -0.046467 
-22.1837 3.00681 108 -0.969569 0.242667 -0.032389 
-20.2285 3.00681 71.9529 -0.998384 0.049733 0.027505 
-22.1837 -2.99319 108 -0.982848 -0.178468 -0.046467 
-20.2285 -2.99319 71.9529 -0.99761 -0.057793 0.037863 
-17.8074 -13.5585 108 -0.85718 -0.513997 -0.032389 
-13.5647 -17.8011 108 -0.568783 -0.821174 -0.046467 
-2.99944 -22.1774 108 -0.300813 -0.952837 -0.04015 
-2.99944 -20.2223 71.9529 -0.056512 -0.998111 0.024108 
3.00056 -22.1774 108 0.155792 -0.986957 -0.040563 
3.00056 -20.2223 71.9529 0.06638 -0.997156 0.035696 
22.1848 3.19583 120 0.845999 -0.515299 0.136941 
13.4322 17.9484 120 0.962583 0.23384 0.136941 
3.00056 18.9757 96 0.461627 0.885638 -0.050456 
-3.18846 22.1911 120 0.299434 0.94075 0.15915 
-17.941 13.4385 120 -0.453479 0.876943 0.15915 
-18.9683 3.00681 96 -0.885638 0.461627 -0.050456 
-22.1837 -3.1822 120 -0.949815 0.302319 0.080342 
-13.4311 -17.9348 120 -0.885392 -0.457849 0.080342 
-2.99944 -18.962 96 -0.461627 -0.885638 -0.050456 
3.18957 -22.1774 120 -0.501389 -0.82316 0.266489 
-2.99944 18.9757 96 -0.461627 0.885638 -0.050456 
-18.9683 -2.99319 96 -0.885638 -0.461627 -0.050456 
3.00056 -18.962 96 0.461627 -0.885638 -0.050456 
13.5659 -17.8011 108 0.461049 -0.886466 -0.04015 
17.8085 -13.5585 108 0.808046 -0.587721 -0.040563 
-8.36003 20.1911 108 0.206526 -0.577477 0.789852 
8.36115 20.1911 108 -0.234567 -0.566295 0.790119 
-20.1837 8.3674 108 0.597768 -0.282834 0.750119 
-20.1837 -8.35377 108 0.645858 0.230982 0.727678 
-8.36003 -20.1774 108 0.374484 0.904085 0.205891 
8.36115 -20.1774 108 -0.406348 0.858815 0.311958 
20.1848 -8.35377 108 -0.894606 0.319942 0.311958 
20.1848 8.3674 108 -0.620019 -0.293362 0.727678 
-16.5268 12.0243 120 0.735968 -0.673322 0.070633 
-3.18846 20.1911 120 0.044298 -0.996518 0.070633 
12.018 16.5342 120 -0.690543 -0.720194 0.066863 
20.1848 3.19583 120 -0.997542 -0.020967 0.066863 
16.528 -12.0106 120 -0.720194 0.690543 0.066863 
17.9422 -13.4248 120 0.23384 -0.962583 0.136942 
3.18957 -20.1774 120 -0.021002 0.999218 0.033488 
-12.0169 -16.5206 120 0.668339 0.730521 0.140221 
-20.1837 -3.1822 120 0.989144 0.04397 0.14022 
12.018 16.5342 124 0.061923 -0.835047 0.546682 
8.36115 20.1911 124 -0.342314 -0.826418 0.447051 
20.1848 8.3674 124 -0.826418 -0.342313 0.447051 
-3.18846 20.1911 124 0.634254 -0.546682 0.546682 
-8.36003 20.1911 124 0.342314 -0.826418 0.447051 
20.1848 3.19583 124 -0.546682 -0.634254 0.546682 
-20.1837 -3.1822 124 0.546682 0.634254 0.546682 
-20.1837 -8.35377 124 0.826418 0.342314 0.447051 
-20.1837 8.3674 124 0.826418 -0.342314 0.447051 
-8.36003 -20.1774 124 0.342313 0.826418 0.447051 
-12.0169 -16.5206 124 -0.061922 0.835048 0.546681 
16.528 -12.0106 124 -0.835048 -0.061922 0.546681 
20.1848 -8.35377 124 -0.826418 0.342313 0.447051 
-16.5268 12.0243 124 0.835047 0.061923 0.546682 
3.18957 -20.1774 124 -0.634254 0.546682 0.546682 
8.36115 -20.1774 124 -0.342313 0.826418 0.447051 
22.4636 4.98304 12.1341 -0.19971 0.936645 -0.28777 
22.4636 4.98304 12.3659 -0.132685 0.948463 0.287771 
22.7039 4.94068 12.1341 0.449078 0.845881 -0.287774 
22.7039 4.94068 12.3659 0.508016 0.811855 0.28777 
22.8607 4.75379 12.1341 0.887726 0.359333 -0.28779 
22.8607 4.75379 12.3659 0.91101 0.295368 0.287782 
22.8607 4.50983 12.1341 0.91101 -0.295368 -0.287782 
22.8607 4.50983 12.3659 0.887725 -0.359333 0.28779 
22.7039 4.32295 12.1341 0.508016 -0.811855 -0.287771 
22.7039 4.32295 12.3659 0.449078 -0.845881 0.287774 
22.4636 4.28058 12.1341 -0.132684 -0.948463 -0.287772 
22.4636 4.28058 12.3659 -0.19971 -0.936645 0.28777 
22.3567 4.49013 11.9466 -0.447228 -0.490711 -0.74779 
22.5256 4.63181 11.875 0 0 -1 
22.3567 4.7735 12.5534 -0.529411 0.451535 0.718219 
22.4873 4.84888 12.5534 -0.027173 0.663378 0.747791 
22.6358 4.8227 12.5534 0.405595 0.525643 0.747792 
22.7327 4.7072 12.5534 0.648578 0.141942 0.747797 
22.7327 4.55643 12.5534 0.588092 -0.308152 0.747791 
22.6358 4.44092 12.5534 0.252426 -0.614077 0.74779 
22.4873 4.41474 12.5534 -0.201353 -0.632666 0.74779 
22.3567 4.49013 12.5534 -0.450273 -0.377816 0.809018 
22.3051 4.63181 12.5534 -0.666312 -0.110935 0.737375 
22.5256 4.63181 12.625 0 0 1 
22.4873 4.41474 11.9466 -0.027173 -0.663378 -0.747791 
22.6358 4.44092 11.9466 0.405594 -0.525643 -0.747792 
22.7327 4.55643 11.9466 0.648578 -0.141942 -0.747797 
22.7327 4.7072 11.9466 0.588092 0.308152 -0.74779 
22.6358 4.8227 11.9466 0.252426 0.614077 -0.74779 
22.4873 4.84888 11.9466 -0.201353 0.632667 -0.74779 
3 0 1 2 
3 2 1 3 
3 4 5 6 
3 6 5 7 
3 8 9 10 
3 10 9 11 
3 12 10 11 
3 12 13 10 
3 12 14 13 
3 13 14 15 
3 16 13 15 
3 16 17 13 
3 18 19 5 
3 5 19 7 
3 20 21 22 
3 22 21 23 
3 24 3 25 
3 25 3 1 
3 26 27 28 
3 28 27 29 
3 30 10 31 
3 30 32 10 
3 10 13 31 
3 31 13 33 
3 34 35 36 
3 36 35 37 
3 38 39 40 
3 40 39 41 
3 42 43 30 
3 30 43 32 
3 44 45 46 
3 46 45 47 
3 48 49 50 
3 50 49 51 
3 52 53 48 
3 48 53 49 
3 36 37 47 
3 47 37 46 
3 54 55 56 
3 56 55 57 
3 40 41 57 
3 57 41 56 
3 58 59 33 
3 33 59 31 
3 60 61 51 
3 51 61 50 
3 62 29 63 
3 63 29 27 
3 64 23 65 
3 65 23 21 
3 0 2 55 
3 55 2 34 
3 42 34 61 
3 65 61 64 
3 65 42 61 
3 61 34 45 
3 52 45 62 
3 63 52 62 
3 47 45 36 
3 36 45 34 
3 61 45 52 
3 50 52 48 
3 50 61 52 
3 30 31 42 
3 42 31 59 
3 55 59 38 
3 57 38 40 
3 57 55 38 
3 59 4 38 
3 38 4 6 
3 55 34 42 
3 59 55 42 
3 66 67 44 
3 44 67 45 
3 45 67 62 
3 62 67 28 
3 29 62 28 
3 24 25 68 
3 68 25 69 
3 70 69 54 
3 54 69 55 
3 55 69 0 
3 0 69 25 
3 1 0 25 
3 71 72 60 
3 60 72 61 
3 61 72 64 
3 64 72 22 
3 23 64 22 
3 18 73 19 
3 19 73 74 
3 75 73 58 
3 58 73 59 
3 59 73 4 
3 4 73 18 
3 5 4 18 
3 28 67 26 
3 26 67 76 
3 20 22 77 
3 77 22 72 
3 78 79 80 
3 80 79 81 
3 82 78 83 
3 83 78 80 
3 84 82 83 
3 85 86 87 
3 87 86 88 
3 89 85 90 
3 90 85 87 
3 91 89 92 
3 92 89 90 
3 86 91 88 
3 88 91 92 
3 93 94 95 
3 95 94 96 
3 97 93 98 
3 98 93 95 
3 99 97 100 
3 100 97 98 
3 94 99 96 
3 96 99 100 
3 101 102 103 
3 103 102 104 
3 105 101 106 
3 106 101 103 
3 107 105 108 
3 108 105 106 
3 102 107 104 
3 104 107 108 
3 109 110 111 
3 111 110 112 
3 114 109 111 
3 115 113 116 
3 116 113 114 
3 110 115 112 
3 112 115 116 
3 117 118 119 
3 119 118 120 
3 122 117 119 
3 123 121 124 
3 124 121 122 
3 118 123 120 
3 120 123 124 
3 125 126 127 
3 127 126 128 
3 128 126 129 
3 129 126 130 
3 131 130 132 
3 133 131 132 
3 129 130 131 
3 127 135 125 
3 125 135 136 
3 137 134 138 
3 138 134 133 
3 137 138 135 
3 135 138 136 
3 139 140 141 
3 141 140 142 
3 139 143 140 
3 140 143 144 
3 143 145 144 
3 144 145 146 
3 145 141 146 
3 146 141 142 
3 133 132 138 
3 138 132 139 
3 136 139 141 
3 126 141 147 
3 148 126 147 
3 148 130 126 
3 148 149 130 
3 130 149 132 
3 132 149 139 
3 139 149 143 
3 143 149 150 
3 151 143 150 
3 151 145 143 
3 151 152 145 
3 145 152 147 
3 141 145 147 
3 125 136 126 
3 126 136 141 
3 136 138 139 
3 147 153 148 
3 147 154 153 
3 147 152 154 
3 155 152 151 
3 156 151 150 
3 157 150 149 
3 158 149 148 
3 153 158 148 
3 155 151 156 
3 156 150 157 
3 157 149 158 
3 159 160 161 
3 159 162 160 
3 159 163 162 
3 166 165 167 
3 168 167 161 
3 160 168 161 
3 166 167 168 
3 169 170 171 
3 169 172 170 
3 176 175 177 
3 178 177 171 
3 170 178 171 
3 174 175 176 
3 176 177 178 
3 179 180 181 
3 179 182 180 
3 179 183 182 
3 186 185 187 
3 188 187 181 
3 180 188 181 
3 184 185 186 
3 186 187 188 
3 189 190 191 
3 191 190 192 
3 189 191 193 
3 190 189 194 
3 194 189 193 
3 190 194 192 
3 195 196 197 
3 198 195 14 
3 14 195 197 
3 198 14 12 
3 195 198 196 
3 196 198 12 
3 199 11 9 
3 200 199 201 
3 201 199 9 
3 200 201 202 
3 11 199 203 
3 203 199 200 
3 204 200 202 
3 204 203 200 
3 16 205 206 
3 206 205 207 
3 205 16 15 
3 208 207 209 
3 209 207 210 
3 210 207 205 
3 15 210 205 
3 207 208 206 
3 206 211 16 
3 16 211 17 
3 140 9 142 
3 140 144 9 
3 9 144 201 
3 201 144 212 
3 212 144 146 
3 142 212 146 
3 142 8 212 
3 142 9 8 
3 196 12 203 
3 203 12 11 
3 14 197 15 
3 15 197 210 
3 191 192 209 
3 209 192 208 
3 194 193 202 
3 202 193 204 
3 213 214 204 
3 204 214 203 
3 167 204 161 
3 167 165 204 
3 204 165 213 
3 185 163 159 
3 187 159 161 
3 181 161 193 
3 191 181 193 
3 191 171 181 
3 191 209 171 
3 171 209 169 
3 169 209 173 
3 173 209 215 
3 185 159 187 
3 171 177 181 
3 181 177 179 
3 179 177 183 
3 183 177 175 
3 181 187 161 
3 204 193 161 
3 216 215 210 
3 210 215 209 
3 160 186 168 
3 160 184 186 
3 160 162 184 
3 164 203 214 
3 164 166 203 
3 203 166 168 
3 196 168 188 
3 197 188 178 
3 210 178 170 
3 172 210 170 
3 172 216 210 
3 197 178 210 
3 182 174 176 
3 180 176 188 
3 180 182 176 
3 176 178 188 
3 186 188 168 
3 197 196 188 
3 196 203 168 
3 208 192 217 
3 217 192 194 
3 218 194 202 
3 202 201 218 
3 218 201 219 
3 219 201 212 
3 211 206 220 
3 220 206 217 
3 217 206 208 
3 221 219 222 
3 222 219 212 
3 8 222 212 
3 8 10 222 
3 220 223 224 
3 211 224 17 
3 211 220 224 
3 224 13 17 
3 225 226 223 
3 223 226 224 
3 221 222 227 
3 227 222 228 
3 227 228 225 
3 225 228 226 
3 122 229 124 
3 122 119 229 
3 229 119 230 
3 230 119 120 
3 228 120 124 
3 226 124 229 
3 224 229 231 
3 33 224 231 
3 33 13 224 
3 230 120 228 
3 222 230 228 
3 222 232 230 
3 222 32 232 
3 222 10 32 
3 224 226 229 
3 226 228 124 
3 232 233 230 
3 229 234 231 
3 235 236 237 
3 237 236 238 
3 237 238 239 
3 239 238 240 
3 244 243 245 
3 245 243 242 
3 239 240 241 
3 241 240 245 
3 242 241 245 
3 247 236 235 
3 247 248 236 
3 244 246 243 
3 244 252 246 
3 253 254 255 
3 256 257 258 
3 259 260 261 
3 262 263 264 
3 265 266 267 
3 268 269 270 
3 271 272 273 
3 274 275 276 
3 277 269 278 
3 278 269 268 
3 269 279 270 
3 270 279 280 
3 281 275 282 
3 282 275 274 
3 275 283 276 
3 276 283 284 
3 285 257 286 
3 286 257 256 
3 257 287 258 
3 258 287 288 
3 289 263 290 
3 290 263 262 
3 291 260 292 
3 292 260 259 
3 260 293 261 
3 261 293 294 
3 295 254 296 
3 296 254 253 
3 254 297 255 
3 255 297 298 
3 299 272 300 
3 300 272 271 
3 272 301 273 
3 273 301 302 
3 266 303 267 
3 267 303 304 
3 279 305 280 
3 280 305 306 
3 306 305 307 
3 283 308 284 
3 284 308 309 
3 309 308 310 
3 287 311 288 
3 288 311 312 
3 312 311 313 
3 293 314 294 
3 294 314 315 
3 315 314 316 
3 297 317 298 
3 298 317 318 
3 318 317 319 
3 301 320 302 
3 302 320 321 
3 321 320 322 
3 303 323 304 
3 304 323 324 
3 324 323 325 
3 326 266 327 
3 327 266 265 
3 263 328 264 
3 264 328 329 
3 328 330 329 
3 329 330 331 
3 331 330 332 
3 77 72 333 
3 333 72 71 
3 76 67 334 
3 334 67 66 
3 68 69 335 
3 335 69 70 
3 21 20 65 
3 65 20 77 
3 42 77 43 
3 42 65 77 
3 77 333 43 
3 27 26 63 
3 63 26 76 
3 52 76 53 
3 52 63 76 
3 76 334 53 
3 3 24 2 
3 2 24 68 
3 34 68 35 
3 34 2 68 
3 68 335 35 
3 83 336 84 
3 83 71 336 
3 83 80 71 
3 71 80 333 
3 333 80 337 
3 232 337 338 
3 232 333 337 
3 232 32 333 
3 333 32 43 
3 80 81 337 
3 337 81 84 
3 336 337 84 
3 60 51 71 
3 71 51 339 
3 336 339 340 
3 336 71 339 
3 53 334 49 
3 49 334 341 
3 341 334 342 
3 343 341 342 
3 334 66 342 
3 342 66 344 
3 344 66 345 
3 346 344 345 
3 44 46 66 
3 66 46 345 
3 35 335 37 
3 37 335 347 
3 347 335 348 
3 349 347 348 
3 335 70 348 
3 348 70 350 
3 350 70 351 
3 352 350 351 
3 54 56 70 
3 70 56 351 
3 74 73 353 
3 353 73 75 
3 7 19 6 
3 6 19 74 
3 38 74 39 
3 38 6 74 
3 74 353 39 
3 114 75 116 
3 114 111 75 
3 75 111 353 
3 353 111 112 
3 354 112 116 
3 355 116 75 
3 231 75 33 
3 231 355 75 
3 231 356 355 
3 353 112 354 
3 357 354 358 
3 357 353 354 
3 357 41 353 
3 353 41 39 
3 75 58 33 
3 355 354 116 
3 359 229 360 
3 360 229 230 
3 361 337 362 
3 362 337 336 
3 363 364 365 
3 365 364 366 
3 367 342 368 
3 368 342 344 
3 369 370 371 
3 371 370 372 
3 373 348 374 
3 374 348 350 
3 375 376 377 
3 377 376 378 
3 229 359 234 
3 281 379 360 
3 360 379 320 
3 359 320 301 
3 359 360 320 
3 337 361 338 
3 283 361 308 
3 308 361 362 
3 380 362 295 
3 380 308 362 
3 364 363 381 
3 285 382 365 
3 365 382 363 
3 363 382 317 
3 297 363 317 
3 342 367 343 
3 287 367 311 
3 311 367 383 
3 383 367 368 
3 291 383 368 
3 370 369 384 
3 293 369 314 
3 314 369 385 
3 385 369 371 
3 289 385 371 
3 348 373 349 
3 328 373 330 
3 330 373 386 
3 386 373 374 
3 326 386 374 
3 376 375 387 
3 277 388 377 
3 377 388 323 
3 375 323 303 
3 375 377 323 
3 360 230 233 
3 362 336 340 
3 365 366 389 
3 368 344 346 
3 371 372 390 
3 374 350 352 
3 377 378 391 
3 359 301 234 
3 234 301 231 
3 231 301 272 
3 361 283 338 
3 338 283 232 
3 232 283 275 
3 90 49 92 
3 90 87 49 
3 49 87 51 
3 51 87 88 
3 364 88 92 
3 366 92 49 
3 341 366 49 
3 341 389 366 
3 51 88 364 
3 339 364 381 
3 339 51 364 
3 366 364 92 
3 363 297 381 
3 381 297 339 
3 339 297 254 
3 367 287 343 
3 343 287 341 
3 341 287 257 
3 98 37 100 
3 98 95 37 
3 37 95 46 
3 46 95 96 
3 370 96 100 
3 372 100 37 
3 347 372 37 
3 347 390 372 
3 46 96 370 
3 345 370 384 
3 345 46 370 
3 372 370 100 
3 369 293 384 
3 384 293 345 
3 345 293 260 
3 373 328 349 
3 349 328 347 
3 347 328 263 
3 106 41 108 
3 106 103 41 
3 41 103 56 
3 56 103 104 
3 376 104 108 
3 378 108 41 
3 357 378 41 
3 357 391 378 
3 56 104 376 
3 351 376 387 
3 351 56 376 
3 378 376 108 
3 375 303 387 
3 387 303 351 
3 351 303 266 
3 392 354 393 
3 393 354 355 
3 393 355 356 
3 354 392 358 
3 392 279 358 
3 358 279 357 
3 357 279 269 
3 248 249 236 
3 236 249 250 
3 251 236 250 
3 251 252 236 
3 236 252 244 
3 394 244 395 
3 394 236 244 
3 394 396 236 
3 236 396 397 
3 238 397 398 
3 399 238 398 
3 399 240 238 
3 399 400 240 
3 240 400 245 
3 245 400 401 
3 244 401 395 
3 244 245 401 
3 238 236 397 
3 402 313 383 
3 383 313 311 
3 403 319 382 
3 382 319 317 
3 310 308 404 
3 404 308 380 
3 322 320 405 
3 405 320 379 
3 307 305 406 
3 406 305 407 
3 408 325 388 
3 388 325 323 
3 332 330 409 
3 409 330 386 
3 316 314 410 
3 410 314 385 
3 295 296 380 
3 380 296 411 
3 404 380 411 
3 411 412 404 
3 404 412 395 
3 401 404 395 
3 401 310 404 
3 401 413 310 
3 310 413 309 
3 318 412 298 
3 298 412 255 
3 255 412 253 
3 253 412 296 
3 296 412 411 
3 285 286 382 
3 382 286 414 
3 403 382 414 
3 414 415 403 
3 403 415 394 
3 319 394 395 
3 412 319 395 
3 412 318 319 
3 403 394 319 
3 256 258 415 
3 286 415 414 
3 286 256 415 
3 312 415 288 
3 288 415 258 
3 281 282 379 
3 379 282 416 
3 405 379 416 
3 309 413 284 
3 284 413 276 
3 276 413 274 
3 274 413 282 
3 282 413 416 
3 289 290 385 
3 385 290 417 
3 410 385 417 
3 417 418 410 
3 410 418 397 
3 316 397 396 
3 419 316 396 
3 419 315 316 
3 410 397 316 
3 331 332 418 
3 418 332 397 
3 397 332 398 
3 398 332 409 
3 420 409 421 
3 420 398 409 
3 331 418 329 
3 329 418 264 
3 264 418 262 
3 262 418 290 
3 290 418 417 
3 299 300 407 
3 407 300 422 
3 406 407 422 
3 321 322 423 
3 423 322 400 
3 400 322 405 
3 401 405 413 
3 401 400 405 
3 405 416 413 
3 321 423 302 
3 302 423 273 
3 273 423 271 
3 271 423 300 
3 300 423 422 
3 291 292 383 
3 383 292 424 
3 402 383 424 
3 424 419 402 
3 402 419 396 
3 313 396 394 
3 415 313 394 
3 415 312 313 
3 402 396 313 
3 315 419 294 
3 294 419 261 
3 261 419 259 
3 259 419 292 
3 292 419 424 
3 277 278 388 
3 388 278 425 
3 408 388 425 
3 306 307 426 
3 426 307 399 
3 399 307 406 
3 400 406 423 
3 400 399 406 
3 406 422 423 
3 306 426 280 
3 280 426 270 
3 270 426 268 
3 268 426 278 
3 278 426 425 
3 326 327 386 
3 386 327 421 
3 409 386 421 
3 324 325 420 
3 420 325 398 
3 398 325 408 
3 399 408 426 
3 399 398 408 
3 408 425 426 
3 324 420 304 
3 304 420 267 
3 267 420 265 
3 265 420 327 
3 327 420 421 
3 279 392 305 
3 305 392 393 
3 407 393 299 
3 407 305 393 
3 365 389 285 
3 285 389 341 
3 257 285 341 
3 362 340 295 
3 295 340 339 
3 254 295 339 
3 360 233 281 
3 281 233 232 
3 275 281 232 
3 393 356 299 
3 299 356 231 
3 272 299 231 
3 377 391 277 
3 277 391 357 
3 269 277 357 
3 374 352 326 
3 326 352 351 
3 266 326 351 
3 371 390 289 
3 289 390 347 
3 263 289 347 
3 368 346 291 
3 291 346 345 
3 260 291 345 
3 429 428 430 
3 431 430 432 
3 433 432 434 
3 435 434 436 
3 437 436 438 
3 430 442 443 
3 432 443 444 
3 434 444 445 
3 436 445 446 
3 438 446 447 
3 449 448 450 
3 450 441 449 
3 441 450 442 
3 442 450 443 
3 443 450 444 
3 444 450 445 
3 445 450 446 
3 446 450 447 
3 447 450 448 
3 439 440 451 
3 437 451 435 
3 436 437 435 
3 452 440 453 
3 433 453 431 
3 432 433 431 
3 454 440 455 
3 429 455 427 
3 428 429 427 
3 437 439 451 
3 451 440 452 
3 435 452 433 
3 434 435 433 
3 453 440 454 
3 431 454 429 
3 430 431 429 
3 455 440 456 
3 427 455 456 
3 430 428 442 
3 432 430 443 
3 454 455 429 
3 434 432 444 
3 453 454 431 
3 436 434 445 
3 452 453 433 
3 438 436 446 
3 451 452 435 
