ply
format ascii 1.0
comment VCGLIB generated
comment TextureFile popcan.bmp
element vertex 372
property float x
property float y
property float z
property float texture_u
property float texture_v
element face 554
property list uchar int vertex_indices
end_header
0.783088 2.31057 -0.452117 0.826836 0.975085
0.904233 2.31057 -0 0.744287 0.975085
0.783088 2.31057 0.452116 0.661195 0.975085
0.452116 2.31057 0.783088 0.580909 0.975085
-0 2.31057 0.904233 0.502844 0.975085
-0.452117 2.31057 0.783088 0.426197 0.975085
-0.783089 2.31057 0.452117 0.349887 0.975085
-0.904233 2.31057 0 0.270894 0.975085
-0.783089 2.31057 -0.452116 0.189124 0.975085
-0.452117 2.31057 -0.783089 0.10654 0.975085
-1e-006 2.31057 -0.904233 0.023021 0.975085
0.452116 2.31057 -0.78309 0.906972 0.975085
0.819554 2.31057 -0.47317 0.826836 0.966914
0.946339 2.31057 -0 0.744287 0.966914
0.819554 2.31057 0.473169 0.661195 0.966914
0.473169 2.31057 0.819553 0.580909 0.966914
-0 2.31057 0.946339 0.502938 0.966914
-0.47317 2.31057 0.819554 0.426197 0.966914
-0.819554 2.31057 0.47317 0.349887 0.966914
-0.946339 2.31057 0 0.270894 0.966914
-0.819555 2.31057 -0.473169 0.189124 0.966914
-0.473171 2.31057 -0.819554 0.10654 0.966914
-1e-006 2.31057 -0.946339 0.023021 0.966914
0.473169 2.31057 -0.819554 0.906972 0.966914
0.688648 2.23682 -0.397592 0.300901 0.841214
0.795182 2.23682 -0 0.31615 0.784209
0.688648 2.23682 0.397591 0.300002 0.725054
0.397591 2.23682 0.688648 0.253888 0.678638
-0 2.23682 0.795183 0.192408 0.662442
-0.397591 2.23682 0.688648 0.131001 0.679084
-0.688648 2.23682 0.397591 0.085161 0.725978
-0.795183 2.23682 0 0.069648 0.78565
-0.688649 2.23682 -0.397591 0.085686 0.842718
-0.397592 2.23682 -0.688648 0.130076 0.886637
-1e-006 2.23682 -0.795183 0.193548 0.903513
0.397591 2.23682 -0.688649 0.256929 0.885822
-0.166697 2.20734 0.610694 0.167578 0.692194
-0.354609 2.20734 0.532859 0.139458 0.704517
-0.432444 2.20734 0.344947 0.128412 0.73449
-0.354609 2.20734 0.157036 0.140139 0.761545
-0.166698 2.20734 0.079201 0.167605 0.772033
0.166697 2.20734 0.079201 0.218162 0.771793
0.354608 2.20734 0.157036 0.245495 0.761048
0.432443 2.20734 0.344947 0.256948 0.733922
0.354608 2.20734 0.532858 0.245647 0.70409
0.166697 2.20734 0.610694 0.21745 0.692003
0.291934 2.23682 -0.497767 0.240936 0.854485
0.522921 2.23682 0.311843 0.274575 0.7396
0.452863 2.23682 0.52907 0.262346 0.703813
0.26146 2.23682 0.688092 0.232465 0.678898
-0 2.23682 0.746297 0.192435 0.669893
-0.261461 2.23682 0.688092 0.15245 0.67919
-0.452863 2.23682 0.52907 0.122731 0.704378
-0.522921 2.23682 0.311843 0.110813 0.740345
-0.291935 2.23682 -0.497767 0.145654 0.855128
-0.168549 2.23682 -0.655993 0.166914 0.881486
-1e-006 2.23682 -0.713908 0.193471 0.890658
0.168548 2.23682 -0.655994 0.219951 0.881138
0.275133 2.20734 -0.465367 0.234863 0.847261
0.492827 2.20734 0.297652 0.265812 0.741311
0.426801 2.20734 0.502378 0.256794 0.708894
0.246414 2.20734 0.652248 0.229461 0.685781
-0 2.20734 0.707104 0.192463 0.677332
-0.246414 2.20734 0.652248 0.15551 0.686057
-0.426802 2.20734 0.502378 0.128338 0.709419
-0.492828 2.20734 0.297652 0.119605 0.741973
-0.275134 2.20734 -0.465367 0.151639 0.84785
-0.158849 2.20734 -0.614488 0.169601 0.873686
-1e-006 2.20734 -0.66907 0.193417 0.882324
0.158848 2.20734 -0.614488 0.217165 0.873361
0.849708 2.18276 -0 0.744287 0.993672
0.735868 2.18276 -0.424854 0.826836 0.993672
0.735868 2.18276 0.424854 0.661195 0.993672
0.424854 2.18276 0.735868 0.580909 0.993672
-0 2.18276 0.849708 0.502666 0.993672
-0.424854 2.18276 0.735868 0.426197 0.993672
-0.735869 2.18276 0.424854 0.349887 0.993672
-0.849708 2.18276 0 0.270894 0.993672
-0.735869 2.18276 -0.424854 0.189124 0.993672
-0.424855 2.18276 -0.735869 0.10654 0.993672
-1e-006 2.18276 -0.849708 0.023021 0.993672
0.424853 2.18276 -0.735869 0.906972 0.993672
0.819554 2.11295 -0.47317 0.826836 0.936696
0.946339 2.11295 -0 0.744287 0.936696
0.819554 2.11295 0.473169 0.661195 0.936696
0.473169 2.11295 0.819553 0.580909 0.936696
-0 2.11295 0.946339 0.502528 0.936696
-0.47317 2.11295 0.819554 0.426197 0.936696
-0.819554 2.11295 0.47317 0.349887 0.936696
-0.946339 2.11295 0 0.270894 0.936696
-0.819555 2.11295 -0.473169 0.189124 0.936696
-0.473171 2.11295 -0.819554 0.10654 0.936696
-1e-006 2.11295 -0.946339 0.023021 0.936696
0.473169 2.11295 -0.819554 0.906972 0.936696
0.165448 2.20734 0.608703 0.663707 0.737175
0.351951 2.20734 0.531451 0.683213 0.690081
0.429203 2.20734 0.344947 0.730307 0.670574
0.351951 2.20734 0.158444 0.7774 0.690081
0.165448 2.20734 0.081192 0.796907 0.737175
-0.165448 2.20734 0.081192 0.796907 0.820728
-0.351952 2.20734 0.158444 0.7774 0.867822
-0.429204 2.20734 0.344947 0.730307 0.887329
-0.351952 2.20734 0.531451 0.683213 0.867822
-0.165448 2.20734 0.608703 0.663707 0.820728
0.045439 2.28268 -0.04544 0.903149 0.744023
0.062072 2.28268 0.016632 0.907295 0.72855
0.016632 2.28268 0.062072 0.895968 0.717223
-0.04544 2.28268 0.04544 0.880495 0.721369
-0.062072 2.28268 -0.016632 0.87635 0.736842
-0.016633 2.28268 -0.062072 0.887676 0.748169
0.253061 2.28268 -0 0.954904 0.732696
0.178941 2.28268 0.178941 0.936428 0.688091
-0 2.28268 0.253061 0.891822 0.669615
-0.178942 2.28268 0.178941 0.847217 0.688091
-0.253062 2.28268 -0 0.828741 0.732696
-0 2.28268 -0.606351 0.891822 0.883844
-0.178942 2.28268 -0.532232 0.847217 0.865367
-0.253062 2.28268 -0.35329 0.828741 0.820762
0.253061 2.28268 -0.35329 0.954904 0.820762
0.178941 2.28268 -0.532232 0.936428 0.865367
-0 2.28268 -0.534384 0.891822 0.865904
0.128052 2.28268 -0.481343 0.923742 0.852682
-0.128053 2.28268 -0.481343 0.859902 0.852682
-0.181094 2.28268 -0.35329 0.846681 0.820762
0.181093 2.28268 -0.35329 0.936964 0.820762
-0.154573 2.28268 -0.289264 0.853292 0.804802
0.141627 2.28268 -0.141627 0.927126 0.768
0.200291 2.28268 -0 0.94175 0.732696
-0.200291 2.28268 -0 0.841895 0.732696
-0.141628 2.28268 -0.141627 0.856519 0.768
-0 2.28268 -0.200291 0.891822 0.782623
-0 2.28268 -0.139956 0.891822 0.767583
-0.098964 2.28268 -0.098964 0.867153 0.757365
-0.139956 2.28268 -0 0.856935 0.732696
0.139955 2.28268 -0 0.92671 0.732696
0.098963 2.28268 -0.098964 0.916491 0.757365
0.185207 2.28268 0.049278 0.93799 0.720413
-0.185208 2.28268 0.049278 0.845655 0.720413
-0.15504 2.28268 0.049278 0.853175 0.720413
0.155039 2.28268 0.049278 0.93047 0.720413
0.154572 2.28268 -0.289264 0.930353 0.804802
0.154572 2.23901 -0.289264 0.853279 0.804829
0.155039 2.23901 0.049278 0.853163 0.720439
-0.15504 2.23901 0.049278 0.930458 0.720439
-0.185208 2.23901 0.049278 0.937978 0.720439
0.185207 2.23901 0.049278 0.845643 0.720439
0.098963 2.23901 -0.098964 0.867141 0.757392
0.139955 2.23901 -0 0.856923 0.732723
-0.139956 2.23901 -0 0.926697 0.732723
-0.098964 2.23901 -0.098964 0.916479 0.757392
-0 2.23901 -0.139956 0.89181 0.76761
-0 2.23901 -0.200291 0.89181 0.78265
-0.141628 2.23901 -0.141627 0.927114 0.768027
-0.200291 2.23901 -0 0.941737 0.732723
0.200291 2.23901 -0 0.841883 0.732723
0.141627 2.23901 -0.141627 0.856506 0.768027
-0.154573 2.23901 -0.289264 0.930341 0.804829
0.181093 2.23901 -0.35329 0.846668 0.820789
-0.181094 2.23901 -0.35329 0.936952 0.820789
-0.128053 2.23901 -0.481343 0.92373 0.852709
0.128052 2.23901 -0.481343 0.85989 0.852709
-0 2.23901 -0.534384 0.89181 0.865931
0.178941 2.23901 -0.532232 0.847205 0.865394
0.253061 2.23901 -0.35329 0.828729 0.820789
-0.253062 2.23901 -0.35329 0.954892 0.820789
-0.178942 2.23901 -0.532232 0.936416 0.865394
-0 2.23901 -0.606351 0.89181 0.88387
-0.253062 2.23901 -0 0.954892 0.732723
-0.178942 2.23901 0.178941 0.936416 0.688118
-0 2.23901 0.253061 0.89181 0.669642
0.178941 2.23901 0.178941 0.847205 0.688118
0.253061 2.23901 -0 0.828729 0.732723
0.040895 2.30096 -0.040896 0.899978 0.740852
0.055864 2.30096 0.014969 0.902963 0.729711
0.014969 2.30096 0.055865 0.894807 0.721556
-0.040896 2.30096 0.040896 0.883667 0.724541
-0.055865 2.30096 -0.014969 0.880682 0.735681
-0.014969 2.30096 -0.055865 0.888837 0.743837
0.976581 2.21757 -0 0.744287 0.952877
0.845744 2.21757 -0.488291 0.826836 0.952877
0.845744 2.21757 0.48829 0.661195 0.952877
0.48829 2.21757 0.845744 0.580909 0.952877
-0 2.21757 0.976581 0.502856 0.952877
-0.488291 2.21757 0.845744 0.426197 0.952877
-0.845744 2.21757 0.488291 0.349887 0.952877
-0.976581 2.21757 0 0.270894 0.952877
-0.845745 2.21757 -0.48829 0.189124 0.952877
-0.488292 2.21757 -0.845744 0.10654 0.952877
-1e-006 2.21757 -0.976581 0.023021 0.952877
0.48829 2.21757 -0.845745 0.906972 0.952877
0.778576 2.11295 -0.449511 0.826836 0.927176
0.899022 2.11295 -0 0.744287 0.927176
0.778576 2.11295 0.449511 0.661195 0.927176
0.449511 2.11295 0.778576 0.580909 0.927176
-0 2.11295 0.899022 0.502375 0.927176
-0.449511 2.11295 0.778576 0.426197 0.927176
-0.778577 2.11295 0.449511 0.349887 0.927176
-0.899023 2.11295 0 0.270894 0.927176
-0.778577 2.11295 -0.449511 0.189124 0.927176
-0.449512 2.11295 -0.778576 0.10654 0.927176
-1e-006 2.11295 -0.899023 0.023021 0.927176
0.44951 2.11295 -0.778577 0.906972 0.927176
1.12764 1.74859 -0 0.743531 0.571677
0.976564 1.74859 -0.56382 0.826525 0.571677
0.976564 1.74859 0.56382 0.660167 0.571677
0.56382 1.74859 0.976564 0.579825 0.571677
-0 1.74859 1.12764 0.498386 0.571677
-0.56382 1.74859 0.976564 0.416804 0.571677
-0.976565 1.74859 0.56382 0.335318 0.571677
-1.12764 1.74859 0 0.254105 0.571677
-0.976565 1.74859 -0.563819 0.173703 0.571677
-0.563821 1.74859 -0.976564 0.091835 0.571677
-1e-006 1.74859 -1.12764 0.010616 0.571677
0.563819 1.74859 -0.976565 0.906786 0.571677
1.12764 -2.07438 -0 0.743531 0.037442
0.976564 -2.07438 -0.56382 0.826525 0.037442
0.976564 -2.07438 0.56382 0.660167 0.037442
0.56382 -2.07438 0.976564 0.579825 0.037442
-0 -2.07438 1.12764 0.498386 0.037442
-0.56382 -2.07438 0.976565 0.416804 0.037442
-0.976565 -2.07438 0.56382 0.335318 0.037442
-1.12764 -2.07438 0 0.254105 0.037442
-0.976565 -2.07438 -0.563819 0.173703 0.037442
-0.563821 -2.07438 -0.976564 0.091835 0.037442
-1e-006 -2.07438 -1.12764 0.010616 0.037442
0.563819 -2.07438 -0.976565 0.906786 0.037442
1.00928 -2.191 -0 0.542649 0.671026
0.874059 -2.191 -0.504638 0.477426 0.652848
0.874059 -2.191 0.504638 0.590306 0.718692
0.504638 -2.191 0.874059 0.608906 0.784649
-0 -2.191 1.00928 0.589668 0.850477
-0.504638 -2.191 0.874059 0.54144 0.89801
-0.874059 -2.191 0.504639 0.476324 0.913916
-1.00928 -2.191 0 0.411701 0.897578
-0.87406 -2.191 -0.504638 0.361706 0.849603
-0.504639 -2.191 -0.874059 0.346236 0.782103
-1e-006 -2.191 -1.00928 0.365082 0.718502
0.504637 -2.191 -0.87406 0.411537 0.670503
0.852913 -2.31057 -0 0.527839 0.696506
0.738644 -2.31057 -0.426456 0.477338 0.683795
0.738644 -2.31057 0.426456 0.564091 0.733922
0.426456 -2.31057 0.738644 0.577598 0.784406
-0 -2.31057 0.852913 0.564355 0.835321
-0.426457 -2.31057 0.738644 0.526372 0.871091
-0.738645 -2.31057 0.426457 0.476545 0.884892
-0.852913 -2.31057 0 0.426322 0.871396
-0.738645 -2.31057 -0.426456 0.389359 0.833885
-0.426457 -2.31057 -0.738644 0.37641 0.783003
-1e-006 -2.31057 -0.852913 0.389793 0.732959
0.426456 -2.31057 -0.738645 0.426891 0.696536
0.812523 -2.31057 -0 0.524274 0.702664
0.703665 -2.31057 -0.406262 0.477332 0.690389
0.703665 -2.31057 0.406262 0.55831 0.737224
0.406261 -2.31057 0.703666 0.570736 0.784291
-0 -2.31057 0.812523 0.55815 0.831669
-0.406262 -2.31057 0.703666 0.52313 0.865374
-0.703666 -2.31057 0.406262 0.476646 0.878018
-0.812524 -2.31057 0 0.429891 0.865484
-0.703667 -2.31057 -0.406261 0.395585 0.830351
-0.406263 -2.31057 -0.703666 0.383051 0.783037
-1e-006 -2.31057 -0.812523 0.395649 0.736519
0.406261 -2.31057 -0.703666 0.430382 0.702698
0.609787 -2.13236 0 0.509425 0.728366
0.52809 -2.13236 -0.304893 0.477216 0.72042
0.52809 -2.13236 0.304893 0.53245 0.752249
0.304893 -2.13236 0.528091 0.540433 0.784324
-0 -2.13236 0.609787 0.532435 0.816557
-0.304893 -2.13236 0.528091 0.508371 0.839317
-0.528091 -2.13236 0.304894 0.476711 0.848376
-0.609787 -2.13236 0 0.445068 0.839142
-0.528091 -2.13236 -0.304893 0.421212 0.81582
-0.304894 -2.13236 -0.528091 0.413401 0.78348
-1e-006 -2.13236 -0.609787 0.421599 0.751738
0.304893 -2.13236 -0.528091 0.444907 0.7282
0.90115 -2.191 -0 0.535603 0.683108
0.780418 -2.191 -0.450575 0.477377 0.666348
0.780418 -2.191 0.450575 0.578324 0.725488
0.450575 -2.191 0.780418 0.594996 0.784489
-0 -2.191 0.90115 0.577859 0.843302
-0.450575 -2.191 0.780419 0.534849 0.886038
-0.780419 -2.191 0.450575 0.476511 0.90036
-0.90115 -2.191 0 0.418318 0.885841
-0.780419 -2.191 -0.450574 0.374161 0.842542
-0.450576 -2.191 -0.780418 0.359965 0.782549
-1e-006 -2.191 -0.90115 0.376473 0.725159
0.450574 -2.191 -0.780419 0.418565 0.682559
-0 -2.01241 0 0.476934 0.784001
-1e-006 2.31057 -0.946339 0.986796 0.966914
-1e-006 2.31057 -0.904233 0.986796 0.975085
-1e-006 2.11295 -0.946339 0.986796 0.936696
-1e-006 2.11295 -0.899023 0.986796 0.927176
0.849708 2.18276 -0 0.327863 0.784246
0.735868 2.18276 -0.424854 0.310978 0.84703
0.735868 2.18276 0.424854 0.310654 0.718927
0.424854 2.18276 0.735868 0.260316 0.667895
-0 2.18276 0.849708 0.192481 0.650051
-0.424854 2.18276 0.735868 0.124698 0.668232
-0.735869 2.18276 0.424854 0.074532 0.719722
-0.849708 2.18276 0 0.057655 0.785708
-0.735869 2.18276 -0.424854 0.075677 0.848678
-0.424855 2.18276 -0.735869 0.123837 0.897375
-1e-006 2.18276 -0.849708 0.193482 0.916295
-1e-006 2.18276 -0.849708 0.986796 0.993672
0.424853 2.18276 -0.735869 0.263313 0.896779
0.253061 2.23901 -0 0.967001 0.730367
0.253061 2.23901 -0.35329 0.967711 0.823856
0.154572 2.23901 -0.289264 0.921082 0.812079
-0.154573 2.23901 -0.289264 0.862457 0.812079
-0.253062 2.23901 -0.35329 0.815974 0.823723
-0.253062 2.23901 -0 0.81548 0.729555
0.155039 2.28268 0.049278 0.930772 0.721595
0.185207 2.28268 0.049278 0.937392 0.721595
0.185207 2.23901 0.049278 0.937392 0.731178
0.155039 2.23901 0.049278 0.930772 0.731178
-0.185208 2.28268 0.049278 0.846055 0.72304
-0.15504 2.28268 0.049278 0.852675 0.72304
-0.15504 2.23901 0.049278 0.852675 0.732622
-0.185208 2.23901 0.049278 0.846055 0.732622
0.155039 2.23901 0.049278 0.934584 0.720336
0.139955 2.23901 -0 0.934434 0.735688
-0.139956 2.23901 -0 0.851422 0.735688
-0.15504 2.23901 0.049278 0.851074 0.720336
-0.185208 2.23901 0.049278 0.851074 0.720336
-0.200291 2.23901 -0 0.85157 0.735688
0.200291 2.23901 -0 0.93442 0.735688
0.185207 2.23901 0.049278 0.934704 0.720336
0.098963 2.23901 -0.098964 0.921039 0.763033
-0.098964 2.23901 -0.098964 0.863122 0.763033
-0 2.23901 -0.139956 0.891481 0.774007
-0 2.23901 -0.200291 0.891481 0.773771
0.141627 2.23901 -0.141627 0.921039 0.763033
-0.141628 2.23901 -0.141627 0.863122 0.763033
0.181093 2.23901 -0.35329 0.925614 0.822471
-0.181094 2.23901 -0.35329 0.857311 0.822471
0.128052 2.23901 -0.481343 0.916581 0.845933
-0.128053 2.23901 -0.481343 0.867585 0.845933
-0 2.23901 -0.534384 0.891994 0.856841
0.178941 2.23901 -0.532232 0.945362 0.875369
-0.178942 2.23901 -0.532232 0.838474 0.875113
-0 2.23901 -0.606351 0.891842 0.896045
-0.178942 2.23901 0.178941 0.837974 0.678545
-0 2.23901 0.253061 0.892449 0.655739
0.178941 2.23901 0.178941 0.945945 0.679778
-1e-006 2.21757 -0.976581 0.986796 0.952877
0.778576 2.11295 -0.449511 0.826525 0.639534
0.899022 2.11295 -0 0.743531 0.639534
0.778576 2.11295 0.449511 0.660167 0.639534
0.449511 2.11295 0.778576 0.579825 0.639534
-0 2.11295 0.899022 0.498386 0.639534
-0.449511 2.11295 0.778576 0.416804 0.639534
-0.778577 2.11295 0.449511 0.335318 0.639534
-0.899023 2.11295 0 0.254105 0.639534
-0.778577 2.11295 -0.449511 0.173703 0.639534
-0.449512 2.11295 -0.778576 0.091835 0.639534
-1e-006 2.11295 -0.899023 0.010616 0.639534
-1e-006 2.11295 -0.899023 0.989239 0.639534
0.44951 2.11295 -0.778577 0.906786 0.639534
-1e-006 1.74859 -1.12764 0.989239 0.571677
-1e-006 -2.07438 -1.12764 0.989239 0.037442
1.00928 -2.191 -0 0.743531 0.012173
0.874059 -2.191 -0.504638 0.826525 0.012173
0.874059 -2.191 0.504638 0.660167 0.012173
0.504638 -2.191 0.874059 0.579825 0.012173
-0 -2.191 1.00928 0.498386 0.012173
-0.504638 -2.191 0.874059 0.416804 0.012173
-0.874059 -2.191 0.504639 0.335318 0.012173
-1.00928 -2.191 0 0.254105 0.012173
-0.87406 -2.191 -0.504638 0.173703 0.012173
-0.504639 -2.191 -0.874059 0.091835 0.012173
-1e-006 -2.191 -1.00928 0.010616 0.012173
0.504637 -2.191 -0.87406 0.906786 0.012173
-1e-006 -2.191 -1.00928 0.989239 0.012173
3 12 0 1 
3 12 1 13 
3 2 14 13 
3 2 13 1 
3 3 15 14 
3 3 14 2 
3 4 16 15 
3 4 15 3 
3 5 17 16 
3 5 16 4 
3 6 18 17 
3 6 17 5 
3 7 19 18 
3 7 18 6 
3 8 20 19 
3 8 19 7 
3 9 21 20 
3 9 20 8 
3 10 22 21 
3 10 21 9 
3 11 23 287 
3 11 287 288 
3 11 0 12 
3 11 12 23 
3 37 64 63 
3 36 37 63 
3 36 63 62 
3 36 62 45 
3 45 62 61 
3 44 45 61 
3 44 61 60 
3 43 44 60 
3 43 60 59 
3 37 38 65 
3 37 65 64 
3 38 39 65 
3 42 43 59 
3 42 59 58 
3 39 66 65 
3 39 40 67 
3 39 67 66 
3 40 68 67 
3 40 41 68 
3 41 69 68 
3 41 42 58 
3 41 58 69 
3 28 50 51 
3 28 51 29 
3 29 51 52 
3 29 52 30 
3 30 52 53 
3 27 49 50 
3 27 50 28 
3 27 48 49 
3 26 48 27 
3 26 47 48 
3 25 47 26 
3 30 53 31 
3 31 53 54 
3 31 54 32 
3 24 46 47 
3 24 47 25 
3 24 35 57 
3 24 57 46 
3 34 56 57 
3 34 57 35 
3 33 55 56 
3 33 56 34 
3 32 54 55 
3 32 55 33 
3 119 115 120 
3 119 120 121 
3 116 122 120 
3 116 120 115 
3 117 123 122 
3 117 122 116 
3 118 119 121 
3 118 121 124 
3 113 137 128 
3 113 128 114 
3 110 127 136 
3 110 136 111 
3 111 136 139 
3 111 139 112 
3 112 138 137 
3 112 137 113 
3 105 106 112 
3 105 112 139 
3 106 107 112 
3 107 138 112 
3 107 108 133 
3 107 133 138 
3 104 105 139 
3 104 139 134 
3 104 134 135 
3 104 135 131 
3 104 131 109 
3 109 131 132 
3 108 109 132 
3 108 132 133 
3 114 128 123 
3 114 123 117 
3 123 128 129 
3 123 129 125 
3 140 130 126 
3 124 140 126 
3 124 126 127 
3 110 118 124 
3 110 124 127 
3 161 166 162 
3 161 162 160 
3 161 159 165 
3 161 165 166 
3 159 158 164 
3 159 164 165 
3 160 162 163 
3 160 163 157 
3 153 144 168 
3 153 168 167 
3 145 154 171 
3 145 171 170 
3 142 145 170 
3 142 170 169 
3 144 143 169 
3 144 169 168 
3 158 153 167 
3 158 167 164 
3 152 153 158 
3 152 158 156 
3 151 141 155 
3 155 141 157 
3 155 157 154 
3 157 163 171 
3 157 171 154 
3 173 176 175 
3 173 175 174 
3 173 172 177 
3 173 177 176 
3 142 169 143 
3 142 143 148 
3 142 148 147 
3 146 147 148 
3 146 148 149 
3 146 149 150 
3 151 156 141 
3 151 152 156 
3 125 130 140 
3 125 129 130 
3 82 83 191 
3 82 191 190 
3 83 84 192 
3 83 192 191 
3 84 85 193 
3 84 193 192 
3 85 86 194 
3 85 194 193 
3 86 87 195 
3 86 195 194 
3 87 88 196 
3 87 196 195 
3 88 89 197 
3 88 197 196 
3 89 90 198 
3 89 198 197 
3 90 91 199 
3 90 199 198 
3 91 92 200 
3 91 200 199 
3 289 93 201 
3 289 201 290 
3 93 82 190 
3 93 190 201 
3 239 238 250 
3 239 250 251 
3 238 240 252 
3 238 252 250 
3 240 241 253 
3 240 253 252 
3 241 242 254 
3 241 254 253 
3 242 243 255 
3 242 255 254 
3 243 244 256 
3 243 256 255 
3 244 245 257 
3 244 257 256 
3 245 246 258 
3 245 258 257 
3 246 247 259 
3 246 259 258 
3 247 248 260 
3 247 260 259 
3 248 249 261 
3 248 261 260 
3 249 239 251 
3 249 251 261 
3 226 274 275 
3 226 275 227 
3 228 276 274 
3 228 274 226 
3 229 277 276 
3 229 276 228 
3 230 278 277 
3 230 277 229 
3 231 279 278 
3 231 278 230 
3 232 280 279 
3 232 279 231 
3 233 281 280 
3 233 280 232 
3 234 282 281 
3 234 281 233 
3 235 283 282 
3 235 282 234 
3 236 284 283 
3 236 283 235 
3 237 285 284 
3 237 284 236 
3 227 275 285 
3 227 285 237 
3 46 58 59 
3 46 59 47 
3 47 59 60 
3 47 60 48 
3 49 48 60 
3 49 60 61 
3 50 49 61 
3 50 61 62 
3 50 62 63 
3 50 63 51 
3 52 51 63 
3 52 63 64 
3 52 64 65 
3 52 65 53 
3 54 53 65 
3 54 65 66 
3 55 54 66 
3 55 66 67 
3 55 67 68 
3 55 68 56 
3 57 56 68 
3 57 68 69 
3 57 69 58 
3 57 58 46 
3 1 0 71 
3 1 71 70 
3 291 292 24 
3 291 24 25 
3 2 1 70 
3 2 70 72 
3 293 291 25 
3 293 25 26 
3 3 2 72 
3 3 72 73 
3 294 293 26 
3 294 26 27 
3 4 3 73 
3 4 73 74 
3 295 294 27 
3 295 27 28 
3 5 4 74 
3 5 74 75 
3 296 295 28 
3 296 28 29 
3 6 5 75 
3 6 75 76 
3 297 296 29 
3 297 29 30 
3 7 6 76 
3 7 76 77 
3 298 297 30 
3 298 30 31 
3 8 7 77 
3 8 77 78 
3 299 298 31 
3 299 31 32 
3 9 8 78 
3 9 78 79 
3 300 299 32 
3 300 32 33 
3 10 9 79 
3 10 79 80 
3 301 300 33 
3 301 33 34 
3 11 288 302 
3 11 302 81 
3 303 301 34 
3 303 34 35 
3 71 0 11 
3 71 11 81 
3 303 35 24 
3 303 24 292 
3 100 101 102 
3 99 100 102 
3 99 102 103 
3 94 98 99 
3 94 99 103 
3 94 95 97 
3 94 97 98 
3 95 96 97 
3 118 110 304 
3 118 304 305 
3 140 306 307 
3 140 307 125 
3 117 308 309 
3 117 309 114 
3 310 311 312 
3 310 312 313 
3 314 315 316 
3 314 316 317 
3 134 139 318 
3 134 318 319 
3 138 133 320 
3 138 320 321 
3 128 137 322 
3 128 322 323 
3 136 127 324 
3 136 324 325 
3 135 134 319 
3 135 319 326 
3 133 132 327 
3 133 327 320 
3 132 131 328 
3 132 328 327 
3 131 135 326 
3 131 326 328 
3 130 329 330 
3 130 330 126 
3 129 331 329 
3 129 329 130 
3 128 323 331 
3 128 331 129 
3 126 330 324 
3 126 324 127 
3 124 332 306 
3 124 306 140 
3 125 307 333 
3 125 333 123 
3 124 121 334 
3 124 334 332 
3 123 333 335 
3 123 335 122 
3 122 335 336 
3 122 336 120 
3 121 120 336 
3 121 336 334 
3 119 118 305 
3 119 305 337 
3 116 338 308 
3 116 308 117 
3 115 339 338 
3 115 338 116 
3 115 119 337 
3 115 337 339 
3 113 114 309 
3 113 309 340 
3 112 113 340 
3 112 340 341 
3 111 112 341 
3 111 341 342 
3 110 111 342 
3 110 342 304 
3 105 104 172 
3 105 172 173 
3 106 105 173 
3 106 173 174 
3 107 106 174 
3 107 174 175 
3 108 107 175 
3 108 175 176 
3 109 108 176 
3 109 176 177 
3 104 109 177 
3 104 177 172 
3 13 178 179 
3 13 179 12 
3 178 83 82 
3 178 82 179 
3 14 180 178 
3 14 178 13 
3 180 84 83 
3 180 83 178 
3 15 181 180 
3 15 180 14 
3 181 85 84 
3 181 84 180 
3 16 182 181 
3 16 181 15 
3 182 86 85 
3 182 85 181 
3 17 183 182 
3 17 182 16 
3 183 87 86 
3 183 86 182 
3 18 184 183 
3 18 183 17 
3 184 88 87 
3 184 87 183 
3 19 185 184 
3 19 184 18 
3 185 89 88 
3 185 88 184 
3 20 186 185 
3 20 185 19 
3 186 90 89 
3 186 89 185 
3 21 187 186 
3 21 186 20 
3 187 91 90 
3 187 90 186 
3 22 188 187 
3 22 187 21 
3 188 92 91 
3 188 91 187 
3 23 189 343 
3 23 343 287 
3 189 93 289 
3 189 289 343 
3 12 179 189 
3 12 189 23 
3 179 82 93 
3 179 93 189 
3 344 345 202 
3 344 202 203 
3 345 346 204 
3 345 204 202 
3 346 347 205 
3 346 205 204 
3 347 348 206 
3 347 206 205 
3 348 349 207 
3 348 207 206 
3 349 350 208 
3 349 208 207 
3 350 351 209 
3 350 209 208 
3 351 352 210 
3 351 210 209 
3 352 353 211 
3 352 211 210 
3 353 354 212 
3 353 212 211 
3 355 356 213 
3 355 213 357 
3 356 344 203 
3 356 203 213 
3 203 202 214 
3 203 214 215 
3 202 204 216 
3 202 216 214 
3 204 205 217 
3 204 217 216 
3 205 206 218 
3 205 218 217 
3 206 207 219 
3 206 219 218 
3 207 208 220 
3 207 220 219 
3 208 209 221 
3 208 221 220 
3 209 210 222 
3 209 222 221 
3 210 211 223 
3 210 223 222 
3 211 212 224 
3 211 224 223 
3 357 213 225 
3 357 225 358 
3 213 203 215 
3 213 215 225 
3 215 214 359 
3 215 359 360 
3 214 216 361 
3 214 361 359 
3 216 217 362 
3 216 362 361 
3 217 218 363 
3 217 363 362 
3 218 219 364 
3 218 364 363 
3 219 220 365 
3 219 365 364 
3 220 221 366 
3 220 366 365 
3 221 222 367 
3 221 367 366 
3 222 223 368 
3 222 368 367 
3 223 224 369 
3 223 369 368 
3 358 225 370 
3 358 370 371 
3 225 215 360 
3 225 360 370 
3 251 250 262 
3 251 262 263 
3 250 252 264 
3 250 264 262 
3 252 253 265 
3 252 265 264 
3 253 254 266 
3 253 266 265 
3 254 255 267 
3 254 267 266 
3 255 256 268 
3 255 268 267 
3 256 257 269 
3 256 269 268 
3 257 258 270 
3 257 270 269 
3 258 259 271 
3 258 271 270 
3 259 260 272 
3 259 272 271 
3 260 261 273 
3 260 273 272 
3 261 251 263 
3 261 263 273 
3 274 238 239 
3 274 239 275 
3 276 240 238 
3 276 238 274 
3 277 241 240 
3 277 240 276 
3 278 242 241 
3 278 241 277 
3 279 243 242 
3 279 242 278 
3 280 244 243 
3 280 243 279 
3 281 245 244 
3 281 244 280 
3 282 246 245 
3 282 245 281 
3 283 247 246 
3 283 246 282 
3 284 248 247 
3 284 247 283 
3 285 249 248 
3 285 248 284 
3 275 239 249 
3 275 249 285 
3 263 262 286 
3 262 264 286 
3 264 265 286 
3 265 266 286 
3 266 267 286 
3 267 268 286 
3 268 269 286 
3 269 270 286 
3 270 271 286 
3 271 272 286 
3 272 273 286 
3 273 263 286 
