ply
format ascii 1.0
comment VCGLIB generated
element vertex 16
property float x
property float y
property float z
property float nx
property float ny
property float nz
element face 16
property list uchar int vertex_indices
end_header
-10.091 -5.04552 -5.04552 -1.5708 0 -1.5708 
10.091 -5.04552 -5.04552 1.5708 0 -1.5708 
-10.091 5.04552 -5.04552 -1.5708 0 -1.5708 
10.091 5.04552 -5.04552 1.5708 0 -1.5708 
-10.091 -5.04552 5.04552 -1.5708 0 1.5708 
10.091 -5.04552 5.04552 1.5708 0 1.5708 
-10.091 5.04552 5.04552 -1.5708 0 1.5708 
10.091 5.04552 5.04552 1.5708 0 1.5708 
-9.90612 -4.95306 -4.95306 1.5708 0 1.5708 
9.90612 -4.95306 -4.95306 -1.5708 0 1.5708 
-9.90612 4.95306 -4.95306 1.5708 0 1.5708 
9.90612 4.95306 -4.95306 -1.5708 0 1.5708 
-9.90612 -4.95306 4.95306 1.5708 0 -1.5708 
9.90612 -4.95306 4.95306 -1.5708 0 -1.5708 
-9.90612 4.95306 4.95306 1.5708 0 -1.5708 
9.90612 4.95306 4.95306 -1.5708 0 -1.5708 
3 2 1 0 
3 1 2 3 
3 4 2 0 
3 2 4 6 
3 6 5 7 
3 5 6 4 
3 5 3 7 
3 3 5 1 
3 9 10 8 
3 10 9 11 
3 10 12 8 
3 12 10 14 
3 13 14 15 
3 14 13 12 
3 11 13 15 
3 13 11 9 
