ply
format ascii 1.0
comment VCGLIB generated
element vertex 48
property float x
property float y
property float z
property float nx
property float ny
property float nz
element face 96
property list uchar int vertex_indices
end_header
-10.25 4.75 4.75 -1.5708 -1.5708 -1.5708 
10.25 4.75 4.75 1.5708 -1.57079 -1.57079 
-10.25 5.25 4.75 -1.5708 1.5708 -1.57079 
10.25 5.25 4.75 1.5708 1.57079 -1.5708 
-10.25 4.75 5.25 -3.14159 -3.14159 3.14159 
10.25 4.75 5.25 3.14159 -3.14159 3.14159 
-10.25 5.25 5.25 -3.14159 3.14159 3.14159 
10.25 5.25 5.25 3.14159 3.14159 3.14159 
-10.25 5.25 -5.25 -3.14159 3.14159 -3.14159 
-10.25 4.75 -4.75 -1.5708 -1.57079 1.5708 
10.25 4.75 -4.75 1.5708 -1.5708 1.57079 
-10.25 5.25 -4.75 -1.5708 1.57079 1.57079 
10.25 5.25 -4.75 1.5708 1.5708 1.5708 
-10.25 -4.75 -5.25 -3.14159 3.14159 -3.14159 
-10.25 -5.25 -4.75 -1.5708 -1.57079 1.5708 
10.25 -5.25 -4.75 1.5708 -1.5708 1.57079 
-10.25 -4.75 -4.75 -1.5708 1.57079 1.57079 
10.25 -4.75 -4.75 1.5708 1.5708 1.5708 
-10.25 -5.25 4.75 -1.5708 -1.5708 -1.5708 
10.25 -5.25 4.75 1.5708 -1.57079 -1.57079 
-10.25 -4.75 4.75 -1.5708 1.5708 -1.57079 
10.25 -4.75 4.75 1.5708 1.57079 -1.5708 
-10.25 -5.25 5.25 -3.14159 -3.14159 3.14159 
-10.25 -4.75 5.25 -3.14159 3.14159 3.14159 
10.25 -4.75 5.25 3.14159 3.14159 3.14159 
9.75 4.75 -5.25 -1.5708 -1.5708 -1.5708 
10.25 4.75 -5.25 3.14159 -3.14159 -3.14159 
9.75 5.25 -5.25 -1.5708 1.5708 -1.5708 
10.25 5.25 -5.25 3.14159 3.14159 -3.14159 
9.75 4.75 5.25 -1.5708 -1.5708 1.5708 
9.75 5.25 5.25 -1.5708 1.5708 1.5708 
9.75 -5.25 -5.25 -1.5708 -1.5708 -1.5708 
10.25 -5.25 -5.25 3.14159 -3.14159 -3.14159 
9.75 -4.75 -5.25 -1.5708 1.5708 -1.5708 
10.25 -4.75 -5.25 3.14159 3.14159 -3.14159 
9.75 -5.25 5.25 -1.5708 -1.5708 1.5708 
10.25 -5.25 5.25 3.14159 -3.14159 3.14159 
9.75 -4.75 5.25 -1.5708 1.5708 1.5708 
-10.25 4.75 -5.25 -3.14159 -3.14159 -3.14159 
-9.75 4.75 -5.25 1.5708 -1.5708 -1.5708 
-9.75 5.25 -5.25 1.5708 1.5708 -1.5708 
-9.75 4.75 5.25 1.5708 -1.5708 1.5708 
-9.75 5.25 5.25 1.5708 1.5708 1.5708 
-10.25 -5.25 -5.25 -3.14159 -3.14159 -3.14159 
-9.75 -5.25 -5.25 1.5708 -1.5708 -1.5708 
-9.75 -4.75 -5.25 1.5708 1.5708 -1.5708 
-9.75 -5.25 5.25 1.5708 -1.5708 1.5708 
-9.75 -4.75 5.25 1.5708 1.5708 1.5708 
3 2 1 0 
3 1 2 3 
3 4 2 0 
3 2 4 6 
3 1 4 0 
3 4 1 5 
3 6 5 7 
3 5 6 4 
3 3 6 7 
3 6 3 2 
3 5 3 7 
3 3 5 1 
3 8 26 38 
3 26 8 28 
3 9 8 38 
3 8 9 11 
3 26 9 38 
3 9 26 10 
3 11 10 12 
3 10 11 9 
3 28 11 12 
3 11 28 8 
3 10 28 12 
3 28 10 26 
3 13 32 43 
3 32 13 34 
3 14 13 43 
3 13 14 16 
3 32 14 43 
3 14 32 15 
3 16 15 17 
3 15 16 14 
3 34 16 17 
3 16 34 13 
3 15 34 17 
3 34 15 32 
3 20 19 18 
3 19 20 21 
3 22 20 18 
3 20 22 23 
3 19 22 18 
3 22 19 36 
3 23 36 24 
3 36 23 22 
3 21 23 24 
3 23 21 20 
3 36 21 24 
3 21 36 19 
3 27 26 25 
3 26 27 28 
3 29 27 25 
3 27 29 30 
3 26 29 25 
3 29 26 5 
3 30 5 7 
3 5 30 29 
3 28 30 7 
3 30 28 27 
3 5 28 7 
3 28 5 26 
3 33 32 31 
3 32 33 34 
3 35 33 31 
3 33 35 37 
3 32 35 31 
3 35 32 36 
3 37 36 24 
3 36 37 35 
3 34 37 24 
3 37 34 33 
3 36 34 24 
3 34 36 32 
3 8 39 38 
3 39 8 40 
3 4 8 38 
3 8 4 6 
3 39 4 38 
3 4 39 41 
3 6 41 42 
3 41 6 4 
3 40 6 42 
3 6 40 8 
3 41 40 42 
3 40 41 39 
3 13 44 43 
3 44 13 45 
3 22 13 43 
3 13 22 23 
3 44 22 43 
3 22 44 46 
3 23 46 47 
3 46 23 22 
3 45 23 47 
3 23 45 13 
3 46 45 47 
3 45 46 44 
