ply
format ascii 1.0
comment VCGLIB generated
comment TextureFile TropicalFish01.jpg
element vertex 279
property float x
property float y
property float z
property float nx
property float ny
property float nz
property float texture_u
property float texture_v
element face 516
property list uchar int vertex_indices
end_header
-0.226834 -0.0440749 0.12506 1.48238 0.856454 -5.68029 0.7107 0.4444
-0.303418 -0.0992774 0.0829851 0.0113328 -0.016986 2.05333 0.7787 0.3947
-0.28246 -0.122906 0.0733556 54.9723 -149.096 10.1742 0.7601 0.3734
-0.196418 -0.087493 0.128092 56.6106 -146.776 3.52218 0.6837 0.4053
-0.312692 -0.109783 0.0851924 -2.73267 -2.75268 5.48431 0.7869 0.3852
-0.227825 -0.0440749 0.132658 -1.09267 -0.646065 4.72795 0.7116 0.4444
-0.197407 -0.087493 0.135691 54.4565 -149.379 10.8933 0.6846 0.4053
-0.257251 -0.000657047 0.122027 -123.96 122.991 -18.0541 0.7377 0.4835
-0.258242 -0.000656827 0.129626 -124.497 121.801 -13.2573 0.7386 0.4835
-0.329588 -0.0787443 0.0836505 -124.772 121.356 -13.8014 0.8019 0.4132
-0.129636 0.0185855 0.144571 3.54587 0.147716 -2.94407 0.8125 0.1981
-0.12963 0.0185855 0.147498 2.45777 0.459067 2.96015 0.8125 0.1981
-0.165105 0.134579 0.142472 -0.954199 1.41816 1.82632 0.844 0.3025
-0.165111 0.134579 0.139545 1.43578 1.19576 -2.05038 0.844 0.3025
-0.141237 -0.0974081 0.145853 1.66166 -1.19395 0.967673 0.8228 0.0937
-0.141243 -0.0974081 0.142927 0.865714 -2.05275 -1.01067 0.8228 0.0937
-0.226834 -0.0440749 -0.12506 1.47156 0.834545 5.68968 0.7107 0.4444
-0.196418 -0.087493 -0.128092 56.4527 -146.598 -3.49632 0.6837 0.4053
-0.282464 -0.122816 -0.0742837 54.8271 -148.898 -10.174 0.7601 0.3735
-0.303418 -0.0992774 -0.084241 -0.0606861 -0.0634448 -2.0284 0.7787 0.3947
-0.197407 -0.087493 -0.135691 54.3307 -149.194 -10.8819 0.6846 0.4053
-0.227825 -0.0440749 -0.132658 -1.08372 -0.635446 -4.73371 0.7116 0.4444
-0.312692 -0.109783 -0.086448 -2.68017 -2.71292 -5.53149 0.7869 0.3852
-0.257251 -0.000657047 -0.122027 -123.963 122.853 18.0537 0.7377 0.4835
-0.329588 -0.0787443 -0.0842784 -124.738 121.224 13.7529 0.8019 0.4132
-0.258242 -0.000657047 -0.129626 -124.495 121.69 13.2493 0.7386 0.4835
-0.129636 0.0185855 -0.144571 3.54588 0.147715 2.94407 0.8125 0.1981
-0.165111 0.134579 -0.139545 1.43578 1.19576 2.05037 0.844 0.3025
-0.165105 0.134579 -0.142472 -0.954202 1.41815 -1.82634 0.844 0.3025
-0.12963 0.0185855 -0.147498 2.45777 0.459067 -2.96015 0.8125 0.1981
-0.141243 -0.0974081 -0.142927 0.865715 -2.05275 1.01067 0.8228 0.0937
-0.141237 -0.0974081 -0.145853 1.66166 -1.19395 -0.967673 0.8228 0.0937
0.127363 -0.140301 0.0119713 0.653336 -0.875113 3.63274 0.3963 0.3577
0.036151 -0.191037 0.0119713 1.04795 -2.31009 5.02399 0.4773 0.3121
0.0586434 -0.133395 0.0614573 1.56052 -2.9705 4.75958 0.4573 0.3639
0.178312 -0.100545 0.0119713 1.69572 -1.85707 5.09869 0.3511 0.3935
-0.06488 -0.206447 0.0119713 0.286762 -2.46928 5.18035 0.567 0.2982
-0.0377392 -0.133402 0.0724009 0.540327 -3.03572 5.00089 0.5429 0.3639
-0.129317 -0.133409 0.0833448 0.251114 -2.87809 5.12159 0.6242 0.3639
-0.138475 -0.202352 0.0119713 1.42246 -4.41137 5.54455 0.6323 0.3019
-0.261638 -0.197856 0.0119713 -1.52671 -5.47263 2.86041 0.7416 0.3059
-0.219727 -0.131106 0.083341 -0.84194 -3.8938 5.56713 0.7044 0.366
-0.317985 -0.169982 0.0119713 -2.96037 -5.19658 2.5558 0.7916 0.331
-0.368624 -0.136505 0.0119713 -2.87248 -4.25076 2.09012 0.8366 0.3611
-0.355702 -0.093978 0.0528669 -3.18425 -2.14515 4.27569 0.8251 0.3994
0.072561 -0.0407264 0.0894042 1.8314 -1.01061 6.50434 0.445 0.4474
0.225805 -0.0495448 0.0119713 1.78517 -0.137021 5.53083 0.3089 0.4394
-0.0292827 -0.0407253 0.10525 0.865766 -0.979628 5.74651 0.5354 0.4474
-0.126275 -0.0407242 0.121095 0.278585 -0.646433 4.83594 0.6215 0.4474
-0.208436 -0.0384991 0.121101 -0.793666 -1.15852 5.66251 0.6944 0.4494
-0.357648 -0.0611854 0.0528669 -3.03987 -0.4903 5.02765 0.8268 0.429
0.0695202 0.0366966 0.0873202 1.20653 0.776742 3.60676 0.4477 0.5171
0.223774 -0.00407 0.0211101 1.81939 0.692303 5.42754 0.3107 0.4804
-0.0220053 0.039766 0.102794 1.04303 1.2801 5.64465 0.5289 0.5199
-0.120875 0.0428354 0.118267 0.618895 1.21891 5.72069 0.6167 0.5226
-0.208387 0.038134 0.118268 -0.779389 1.48057 6.62466 0.6944 0.5184
-0.379228 0.0197991 0.0528669 -3.5304 0.54789 5.87645 0.846 0.5019
-0.325686 0.0343278 0.0881237 -2.36768 0.248094 5.24638 0.7985 0.515
0.223622 0.0185103 0.0165407 1.42973 2.0669 5.22657 0.3109 0.5007
0.0683516 0.0894351 0.0586458 2.2907 3.44835 5.51795 0.4487 0.5646
-0.0200354 0.122921 0.0675774 1.29911 3.1253 4.84737 0.5272 0.5947
-0.21567 0.142175 0.076509 -0.56785 2.52769 4.19292 0.7008 0.6121
-0.116579 0.141036 0.076509 0.374981 3.09376 5.00442 0.6129 0.611
-0.400016 0.0557107 0.0324191 -2.65517 1.23228 4.03669 0.8645 0.5342
-0.330504 0.119236 0.059107 -2.37362 2.41223 5.94623 0.8028 0.5914
0.127363 -0.140301 -0.014483 0.612573 -0.919546 -3.63307 0.3963 0.3577
0.178312 -0.100545 -0.014483 1.60682 -1.83325 -5.11506 0.3511 0.3935
0.0586388 -0.133319 -0.0638848 1.5592 -2.97024 -4.76189 0.4573 0.364
0.036151 -0.191037 -0.014483 1.02241 -2.3518 -5.0225 0.4773 0.3121
-0.0377447 -0.133313 -0.0748344 0.540007 -3.03633 -5.00231 0.5429 0.364
-0.06488 -0.206447 -0.014483 0.255561 -2.31275 -4.19537 0.567 0.2982
-0.261638 -0.197856 -0.014483 -1.46075 -4.80711 -2.14084 0.7416 0.3059
-0.138475 -0.202352 -0.014483 -0.171435 -5.99759 -6.27354 0.6323 0.3019
-0.129324 -0.133306 -0.0857837 0.25086 -2.88019 -5.12181 0.6242 0.364
-0.219733 -0.131003 -0.0857876 -0.887911 -3.88091 -5.57133 0.7044 0.3661
-0.368624 -0.136505 -0.014483 -2.89488 -4.23219 -2.09574 0.8366 0.3611
-0.317985 -0.169982 -0.014483 -2.81967 -5.2475 -2.58409 0.7916 0.331
-0.355702 -0.093978 -0.0553786 -3.13466 -2.11897 -4.32995 0.8251 0.3994
0.225805 -0.0495448 -0.014483 2.13246 -2.02223 -5.52748 0.3089 0.4394
0.0725731 -0.0407387 -0.0919391 1.83093 -1.01309 -6.50331 0.445 0.4474
-0.0292684 -0.0407396 -0.107768 0.865121 -0.982744 -5.74537 0.5354 0.4474
-0.126259 -0.0407407 -0.123598 0.278153 -0.648683 -4.83522 0.6215 0.4474
-0.208419 -0.0385156 -0.123591 -0.816556 -1.17379 -5.65478 0.6944 0.4494
-0.357648 -0.0611854 -0.0553786 -2.99923 -0.490898 -5.06567 0.8268 0.429
0.223774 -0.00407 -0.023622 1.88122 0.515327 -6.40968 0.3107 0.4804
0.0695224 0.0366788 -0.0898381 1.20652 0.77702 -3.60675 0.4477 0.5171
-0.0220028 0.0397451 -0.105308 1.04266 1.28029 -5.64477 0.5289 0.5198
-0.120873 0.0428114 -0.120779 0.618572 1.21857 -5.72081 0.6167 0.5226
-0.208384 0.0381098 -0.120778 -0.784081 1.47481 -6.62314 0.6944 0.5184
-0.325684 0.0343098 -0.0906316 -2.36719 0.212635 -5.25747 0.7985 0.5149
-0.379228 0.0197991 -0.0553786 -3.51912 0.541083 -5.88481 0.846 0.5019
0.223622 0.0185103 -0.0190524 1.42974 2.0669 -5.22657 0.3109 0.5007
0.0683516 0.0894343 -0.0611582 2.29063 3.44825 -5.51802 0.4487 0.5646
-0.0200354 0.122921 -0.0700893 1.29901 3.12513 -4.84747 0.5272 0.5947
-0.116579 0.141035 -0.0790204 0.374941 3.09352 -5.00453 0.6129 0.611
-0.21567 0.142174 -0.0790204 -0.567843 2.5275 -4.193 0.7008 0.6121
-0.330504 0.119235 -0.0616187 -2.37349 2.41197 -5.9464 0.8028 0.5914
-0.400016 0.0557107 -0.0349308 -2.6551 1.23225 -4.03674 0.8645 0.5342
0.282159 -0.21454 0.00163153 2.8709 -0.706597 3 0.2589 0.2909
0.282159 -0.21454 -0.00414318 2.76389 -1.04991 -3 0.2589 0.2909
0.24404 -0.287235 -0.0041432 1.34274 -1.35381 -3 0.2928 0.2254
0.24404 -0.287235 0.00163153 2.68548 -2.70762 3 0.2928 0.2254
0.184303 -0.317935 0.00163153 0.356704 -2.88688 3 0.3458 0.1978
0.184303 -0.317935 -0.0041432 0.864028 -2.77755 -3 0.3458 0.1978
-0.0818605 -0.267123 0.00163151 0.257371 -2.57402 1 0.582 0.2435
-0.0741448 -0.257869 0.00163151 2.2925 -0.626426 2 0.5752 0.2519
-0.0741448 -0.257869 -0.0041432 2.28069 0.668131 -1 0.5752 0.2519
-0.0818605 -0.267123 -0.0041432 1.28084 -2.2475 -2 0.582 0.2435
-0.46101 -0.0924597 0.0119713 -1.05439 -2.36068 0.804728 0.9186 0.4008
-0.46101 -0.0924597 -0.014483 -1.87757 -4.17459 -0.804724 0.9186 0.4008
-0.48532 -0.0786775 -0.014483 -3.1303 -0.640348 -3.52029 0.9402 0.4132
-0.48532 -0.0786775 0.0119713 -2.8254 -2.11284 3.5203 0.9402 0.4132
-0.474094 -0.0638092 -0.014483 -1.96029 -1.40097 -1.91422 0.9302 0.4266
-0.474094 -0.0638092 0.0119713 -2.43594 0.148195 1.91422 0.9302 0.4266
-0.5 -0.0549856 -0.014483 -2.14337 -0.61887 -2.75708 0.9515 0.4356
-0.5 -0.0549856 0.0119713 -3.4141 -1.24818 2.75708 0.9515 0.4356
-0.496826 -0.0454985 0.0119713 -4.37199 2.30001 3.43844 0.9595 0.4399
-0.496826 -0.0454985 -0.014483 -4.372 2.30001 -3.43843 0.9516 0.4426
-0.445409 0.00942881 0.0119713 -3.83066 2.10903 2.58961 0.9135 0.4998
-0.493652 -0.0360112 0.0119713 -2.66673 2.09813 0.879726 0.952 0.4686
-0.493652 -0.0360112 -0.014483 -2.92941 1.6875 -0.879726 0.9476 0.4516
-0.445409 0.00942881 -0.014483 -3.55829 2.55022 -2.58961 0.9047 0.4925
-0.261641 0.244554 0.00163151 -1.54236 3.88387 2.74565 0.7137 0.7315
-0.294174 0.230116 0.0016315 -1.48414 3.09125 0.895249 0.7681 0.7038
-0.294174 0.230116 -0.00414322 -1.62923 3.0119 -0.895249 0.7705 0.6912
-0.261641 0.244554 -0.00414322 -1.54236 3.88387 -2.74565 0.7416 0.7042
0.139872 0.304075 0.0016313 1.21877 2.74128 3 0.3852 0.7578
0.108697 0.317935 0.0016313 0.789881 2.82726 1 0.4129 0.7703
0.108697 0.317935 -0.00414342 0.360991 2.91324 -1 0.4129 0.7703
0.139872 0.304075 -0.00414342 1.21876 2.74126 -3 0.3852 0.7578
0.171047 0.290215 0.0016313 1.00938 1.71141 4 0.3575 0.7453
0.171047 0.290215 -0.00414342 2.01875 3.4228 -3 0.3575 0.7453
0.24218 0.236429 -0.00414342 1.55525 1.10333 -2 0.2944 0.6969
0.24218 0.236429 0.00163131 3.1105 2.20668 1 0.2944 0.6969
0.5 0.064124 0.00147085 3.24539 -0.072298 2.98955 0.0656 0.5418
0.496544 0.132283 0.00147085 2.19105 1.10072 1.99252 0.0686 0.6032
0.496544 0.132283 -0.00398249 1.21315 2.04986 -1.99252 0.0686 0.6032
0.5 0.064124 -0.00398249 3.24575 0.035414 -2.98954 0.0656 0.5418
0.493623 -0.0474571 0.00147085 2.16212 -0.321203 2.99302 0.0712 0.4413
0.493623 -0.0474571 -0.00398249 4.06299 -0.656236 -1.99483 0.0712 0.4413
0.461955 -0.159531 -0.00779574 0.915415 -1.24585 -1.99638 0.0993 0.3404
0.461955 -0.159531 0.00528388 1.65132 -2.50984 0.99819 0.0993 0.3404
0.287997 -0.0678698 0.00163153 1.51775 0.909603 2 0.2537 0.4229
0.287997 -0.0678698 -0.00414318 3.0355 1.81921 -1 0.2537 0.4229
0.291747 -0.135944 -0.00414318 2.98377 -0.187205 -3 0.2504 0.3617
0.291747 -0.135944 0.00163153 2.98961 -0.0111222 3 0.2504 0.3617
-0.40292 -0.0835156 0.0347384 -1.99631 -1.65649 5.09954 0.867 0.4089
-0.413225 -0.109165 0.0119713 -2.02147 -4.39461 2.34708 0.8762 0.3858
-0.405083 -0.0539425 0.0347384 -2.11353 -0.449209 6.61622 0.869 0.4355
-0.419668 -0.00821826 0.0347384 -1.96666 0.624216 4.37899 0.8819 0.4767
-0.429723 0.00146116 0.023355 -2.92731 1.38486 5.00625 0.8908 0.4854
-0.413225 -0.109165 -0.014483 -2.21408 -4.30322 -2.34707 0.8762 0.3858
-0.40292 -0.0835158 -0.0372503 -1.99631 -1.6565 -5.09954 0.867 0.4089
-0.405083 -0.0539425 -0.0372503 -2.11353 -0.449209 -6.61622 0.869 0.4355
-0.419668 -0.00821826 -0.0372503 -1.96666 0.624229 -4.37898 0.8819 0.4767
-0.429723 0.00146116 -0.0258666 -2.92732 1.38487 -5.00624 0.8908 0.4854
-0.420807 0.0916224 0.0119713 -4.13743 2.13816 2.45184 0.8933 0.5739
-0.420807 0.0916224 -0.014483 -4.29756 1.82208 -2.45184 0.8829 0.5665
-0.338033 0.201178 0.0119713 -3.3316 4.30024 4.21855 0.8271 0.657
-0.338033 0.201178 -0.014483 -3.57874 4.06838 -4.21856 0.823 0.6531
-0.295728 -0.180992 0.0119713 -2.00064 -4.72287 2.09545 0.7719 0.3211
-0.279352 0.0358312 0.100031 -1.46966 0.843743 5.64091 0.7573 0.5163
-0.239443 0.216201 0.0119713 -0.242082 2.38027 4.24624 0.7219 0.6787
-0.285144 0.128297 0.0659808 -1.00481 2.0777 4.39339 0.7625 0.5996
-0.299089 0.207112 0.0119713 -0.939658 3.17467 6.09278 0.7775 0.6718
-0.295728 -0.180992 -0.014483 -2.00957 -4.69902 -2.11416 0.7719 0.3211
-0.27935 0.0358107 -0.10254 -1.48965 0.82237 -5.63493 0.7573 0.5163
-0.285144 0.128296 -0.0684925 -1.00479 2.07743 -4.3935 0.7625 0.5996
0.0253795 0.316049 0.0016313 -0.181122 2.99022 4 0.4869 0.7686
-0.0877441 0.300538 0.00163129 -0.535074 2.94617 2 0.5873 0.7546
-0.0877441 0.300538 -0.0041432 -0.662567 2.92013 -1 0.5873 0.7546
0.0253795 0.316049 -0.0041432 -0.294356 2.98119 -5 0.4869 0.7686
0.261511 -0.00347956 0.0180467 0.430002 0.158747 6.88986 0.2772 0.4809
0.263542 -0.0408827 0.0119713 0.337939 -3.35552 2.95983 0.2754 0.4472
0.263542 -0.0408827 -0.0144829 -0.177495 -3.37807 -2.95325 0.2754 0.4472
0.261511 -0.00347956 -0.0205584 0.429126 0.199704 -6.89643 0.2772 0.4809
0.261359 0.0121643 -0.0175207 0.261772 0.988459 -5.90598 0.2774 0.495
0.2544 0.198367 -0.00414318 2.88429 0.810239 -4 0.2836 0.6627
0.269633 0.123298 -0.00414318 2.95726 0.472361 -2 0.27 0.5951
0.269633 0.123298 0.00163131 2.97445 0.348116 1 0.27 0.5951
0.2544 0.198367 0.00163131 2.91219 0.703432 5 0.2836 0.6627
0.223471 0.0410908 0.0119713 0.888351 1.57011 5.60137 0.311 0.521
0.261208 0.0278081 0.0119713 0.304363 2.22909 3.89848 0.2775 0.5091
0.261359 0.0121643 0.015009 0.261785 0.988441 5.90598 0.2774 0.495
0.294297 -0.00273304 0.0153425 0.665473 -0.205461 5.92469 0.2481 0.4816
0.292416 -0.0497167 0.00977308 -0.847245 -2.95746 2.96423 0.2498 0.4393
0.292416 -0.0497167 -0.0122847 -1.25085 -2.86929 -2.96531 0.2498 0.4393
0.294297 -0.00273304 -0.0178543 0.749418 -0.1281 -5.92361 0.2481 0.4816
0.300307 0.023912 -0.0150696 0.520541 0.411558 -5.94021 0.2428 0.5056
0.261208 0.0278081 -0.0144829 1.57937 0.722846 -2.93366 0.2775 0.5091
0.306317 0.0505568 -0.0122847 -1.27702 2.93449 -2.97342 0.2375 0.5296
0.306317 0.0505568 0.00977308 -1.32527 2.90846 2.97343 0.2375 0.5296
0.300307 0.023912 0.0125578 0.520564 0.411543 5.94021 0.2428 0.5056
0.360547 -0.0167975 0.00175749 0.343572 -0.107566 5.95746 0.1893 0.4689
0.349778 -0.0941312 0.00175749 -1.71687 -2.46114 2.98627 0.1989 0.3993
0.349778 -0.0941312 -0.00426936 -1.48336 -2.56044 -2.97471 0.1989 0.3993
0.360547 -0.0167975 -0.00426936 0.160959 -0.045184 -5.96902 0.1893 0.4689
0.370973 0.0384703 -0.00426936 0.340161 0.0194041 -5.95809 0.1801 0.5187
0.3814 0.0937384 -0.00426936 -1.26066 2.64081 -2.98322 0.1708 0.5684
0.3814 0.0937384 0.00175749 -1.22815 2.65871 2.98322 0.1708 0.5684
0.370973 0.0384703 0.00175749 0.340164 0.0194008 5.95809 0.1801 0.5187
0.448665 -0.0280387 0.00528388 0.105908 0.00858784 5.98915 0.1111 0.4588
0.440978 -0.155987 0.00528388 -1.20745 -2.62573 2.99566 0.1179 0.3436
0.440978 -0.155987 -0.00779574 -0.910459 -2.7868 -2.99674 0.1179 0.3436
0.448665 -0.0280387 -0.00779574 0.20367 0.0112266 -5.98806 0.1111 0.4588
0.452417 0.0525427 -0.00779574 0.124547 0.00891517 -5.9863 0.1078 0.5314
0.45617 0.133124 -0.00779574 -0.918413 2.77889 -2.99405 0.1045 0.6039
0.45617 0.133124 0.00528388 -0.431555 2.89392 2.99405 0.1045 0.6039
0.452417 0.0525427 0.00528388 0.124533 0.00891544 5.9863 0.1078 0.5314
0.0568048 0.142901 0.0119713 1.40723 2.31414 5.08058 0.459 0.6127
-0.0107954 0.176061 0.0119713 1.03854 2.31857 4.05034 0.519 0.6426
-0.10605 0.21687 0.0119713 0.629879 2.72285 6.13203 0.6035 0.6793
0.223471 0.0410908 -0.014483 0.866962 1.62004 -5.59273 0.311 0.521
0.0568048 0.142901 -0.014483 1.53223 2.50583 -6.05405 0.459 0.6127
-0.0107954 0.176061 -0.014483 1.03853 2.31856 -4.05035 0.519 0.6426
-0.10605 0.21687 -0.014483 0.625506 2.51065 -5.15482 0.6035 0.6793
-0.239443 0.216201 -0.014483 -0.237714 2.59243 -5.22348 0.7219 0.6787
-0.299089 0.207112 -0.014483 -0.939653 3.17465 -6.0928 0.7775 0.6718
0.0712576 0.192856 0.00163152 0.337334 0.560331 4.92726 0.4461 0.6577
0.229956 0.0824954 0.00163153 0.332246 0.674971 5.9031 0.3053 0.5583
0.274327 0.0605688 0.00163153 2.95751 -0.427216 2.96482 0.2659 0.5386
0.274327 0.0605688 -0.00414318 3.13 0.260775 -2.92964 0.2659 0.5386
0.229956 0.0824954 -0.0041432 0.353629 0.625029 -5.91174 0.3053 0.5583
0.0712576 0.192856 -0.0041432 0.212326 0.36863 -4.9538 0.4461 0.6577
0.0179104 0.219386 -0.0041432 0.330976 0.712076 -6.92212 0.4935 0.6816
-0.0743736 0.260425 -0.0041432 0.0869003 0.603462 -5.93516 0.5754 0.7185
-0.211812 0.266668 -0.0041432 -1.23261 3.5745 -4.88752 0.6974 0.7241
-0.211812 0.266668 0.00163151 -1.08595 3.83735 4.86474 0.6974 0.7241
-0.0743736 0.260425 0.00163151 0.0825354 0.391299 5.95794 0.5754 0.7185
0.0179104 0.219386 0.00163152 0.330979 0.712083 6.92212 0.4935 0.6816
0.0795302 0.287309 0.0016313 2.97366e-006 6.61479e-006 6 0.4388 0.7427
0.133681 0.25857 0.0016313 4.31636e-006 8.20329e-006 6 0.3907 0.7169
0.133681 0.25857 -0.0041432 -8.16905e-006 -1.49131e-005 -6 0.3907 0.7169
0.0795302 0.287309 -0.0041432 -6.68437e-006 -1.39135e-005 -6 0.4388 0.7427
0.0636351 -0.31187 0.00163152 -0.744618 -2.87432 1 0.4529 0.2033
0.0636351 -0.31187 -0.0041432 -0.447619 -2.93527 -2 0.4529 0.2033
0.246763 -0.122187 0.00163153 0.37458 -0.214051 5.96599 0.2903 0.374
0.227555 -0.187732 0.00163153 0.206691 -0.281917 5.97833 0.3074 0.315
0.12875 -0.233673 0.00163152 0.117787 -0.416244 5.96777 0.3951 0.2737
0.0207378 -0.260654 0.00163152 0.0457883 -0.46398 5.96336 0.491 0.2494
-0.045781 -0.271359 0.00163151 -1.53419 -2.69724 2.98786 0.55 0.2397
-0.045781 -0.271359 -0.0041432 -1.28424 -2.8329 -1.98786 0.55 0.2397
0.0207378 -0.260654 -0.0041432 0.0769337 -0.617562 -6.951 0.491 0.2494
0.12875 -0.233673 -0.0041432 0.14214 -0.371742 -5.97261 0.3951 0.2737
0.227555 -0.187732 -0.0041432 0.246888 -0.236595 -5.97922 0.3074 0.315
0.246763 -0.122187 -0.0041432 0.462074 -0.236829 -5.95189 0.2903 0.374
0.257712 -0.049468 -0.00414318 0.697641 2.76807 -2.97926 0.2806 0.4395
0.257712 -0.049468 0.00163153 1.4025 2.53616 2.95852 0.2806 0.4395
-0.223563 -0.21302 -0.0041432 -1.22026 -4.11741 -2.4511 0.7078 0.2923
-0.137801 -0.209098 -0.0041432 2.39044 0.426206 -2.72555 0.6317 0.2958
-0.137801 -0.209098 0.00163151 1.79575 0.554152 2.4511 0.6317 0.2958
-0.223563 -0.21302 0.00163151 -1.16513 -3.45225 2.72555 0.7078 0.2923
-0.177924 -0.234339 -0.0041432 -1.16961 -2.76153 -3 0.6673 0.2731
-0.11709 -0.218197 -0.0041432 1.42552 2.61485 -3 0.6133 0.2876
-0.11709 -0.218197 0.00163151 1.6443 2.48311 3 0.6133 0.2876
-0.177924 -0.234339 0.00163151 -1.21966 -2.7398 3 0.6673 0.2731
-0.124269 -0.255923 -0.0041432 -0.88392 -2.86144 -3 0.6197 0.2536
-0.0896622 -0.239929 -0.0041432 1.99836 2.2218 -3 0.589 0.268
-0.0896622 -0.239929 0.00163151 2.13362 2.09225 3 0.589 0.268
-0.124269 -0.255923 0.00163151 -1.00174 -2.82236 3 0.6197 0.2536
-0.226834 -0.0440749 0.12506 1.48238 0.856454 -5.68029 0.8988 0.1417
-0.257251 -0.000657047 0.122027 -123.96 122.991 -18.0541 0.9258 0.1808
-0.197407 -0.087493 0.135691 54.4565 -149.379 10.8933 0.8726 0.1026
-0.196418 -0.087493 0.128092 56.6106 -146.776 3.52218 0.8718 0.1026
-0.227825 -0.0440749 0.132658 -1.09267 -0.646065 4.72795 0.8996 0.1417
-0.258242 -0.000656827 0.129626 -124.497 121.801 -13.2573 0.9266 0.1808
-0.226834 -0.0440749 -0.12506 1.47156 0.834545 5.68968 0.8988 0.1417
-0.257251 -0.000657047 -0.122027 -123.963 122.853 18.0537 0.9258 0.1808
-0.197407 -0.087493 -0.135691 54.3307 -149.194 -10.8819 0.8726 0.1026
-0.196418 -0.087493 -0.128092 56.4527 -146.598 -3.49632 0.8718 0.1026
-0.227825 -0.0440749 -0.132658 -1.08372 -0.635446 -4.73371 0.8996 0.1417
-0.258242 -0.000657047 -0.129626 -124.495 121.69 13.2493 0.9266 0.1808
-0.496826 -0.0454985 0.0119713 -4.37199 2.30001 3.43844 0.9516 0.4426
-0.445409 0.00942881 0.0119713 -3.83066 2.10903 2.58961 0.9047 0.4925
-0.493652 -0.0360112 0.0119713 -2.66673 2.09813 0.879726 0.9476 0.4516
-0.420807 0.0916224 0.0119713 -4.13743 2.13816 2.45184 0.8829 0.5665
-0.338033 0.201178 0.0119713 -3.3316 4.30024 4.21855 0.823 0.6531
-0.261641 0.244554 0.00163151 -1.54236 3.88387 2.74565 0.7416 0.7042
-0.294174 0.230116 0.0016315 -1.48414 3.09125 0.895249 0.7705 0.6912
3 3 2 1 
3 3 1 0 
3 6 5 4 
3 6 4 2 
3 6 2 3 
3 9 8 7 
3 13 12 11 
3 13 11 10 
3 13 10 260 
3 13 260 261 
3 15 14 262 
3 15 262 263 
3 262 14 11 
3 262 11 264 
3 12 13 261 
3 12 261 265 
3 0 1 9 
3 0 9 7 
3 4 5 8 
3 4 8 9 
3 10 11 14 
3 10 14 15 
3 10 15 263 
3 10 263 260 
3 264 11 12 
3 264 12 265 
3 19 18 17 
3 19 17 16 
3 22 21 20 
3 22 20 18 
3 18 20 17 
3 25 24 23 
3 29 28 27 
3 29 27 26 
3 266 26 27 
3 266 27 267 
3 268 31 30 
3 268 30 269 
3 29 31 268 
3 29 268 270 
3 267 27 28 
3 267 28 271 
3 24 19 16 
3 24 16 23 
3 25 21 22 
3 25 22 24 
3 31 29 26 
3 31 26 30 
3 269 30 26 
3 269 26 266 
3 28 29 270 
3 28 270 271 
3 35 34 33 
3 35 33 32 
3 34 37 36 
3 34 36 33 
3 41 40 39 
3 41 39 38 
3 44 43 42 
3 44 42 4 
3 46 45 34 
3 46 34 35 
3 45 47 37 
3 45 37 34 
3 49 41 38 
3 49 38 48 
3 9 50 44 
3 9 44 4 
3 52 51 45 
3 52 45 46 
3 53 47 45 
3 53 45 51 
3 55 49 48 
3 55 48 54 
3 57 56 50 
3 57 50 9 
3 59 51 52 
3 59 52 58 
3 59 60 53 
3 59 53 51 
3 62 61 55 
3 62 55 54 
3 64 63 56 
3 64 56 57 
3 68 67 66 
3 68 66 65 
3 70 69 67 
3 70 67 68 
3 74 73 72 
3 74 72 71 
3 77 22 76 
3 77 76 75 
3 67 79 78 
3 67 78 66 
3 69 80 79 
3 69 79 67 
3 82 81 73 
3 82 73 74 
3 77 83 24 
3 77 24 22 
3 79 85 84 
3 79 84 78 
3 86 85 79 
3 86 79 80 
3 88 87 81 
3 88 81 82 
3 83 90 89 
3 83 89 24 
3 92 91 84 
3 92 84 85 
3 86 93 92 
3 86 92 85 
3 88 95 94 
3 88 94 87 
3 90 97 96 
3 90 96 89 
3 101 100 99 
3 101 99 98 
3 103 100 101 
3 103 101 102 
3 107 106 105 
3 107 105 104 
3 75 76 42 
3 75 42 43 
3 111 110 109 
3 111 109 108 
3 113 112 110 
3 113 110 111 
3 115 114 112 
3 115 112 113 
3 117 114 115 
3 117 115 116 
3 121 120 119 
3 121 119 118 
3 125 124 123 
3 125 123 122 
3 129 128 127 
3 129 127 126 
3 133 132 131 
3 133 131 130 
3 137 136 135 
3 137 135 134 
3 141 140 139 
3 141 139 138 
3 145 144 143 
3 145 143 142 
3 98 99 144 
3 98 144 145 
3 111 108 147 
3 111 147 146 
3 111 146 148 
3 111 148 113 
3 115 113 148 
3 115 148 149 
3 272 150 273 
3 272 273 274 
3 110 152 151 
3 110 151 109 
3 110 112 153 
3 110 153 152 
3 114 154 153 
3 114 153 112 
3 117 155 154 
3 117 154 114 
3 109 151 147 
3 109 147 108 
3 157 121 118 
3 157 118 156 
3 146 147 43 
3 146 43 44 
3 146 44 50 
3 146 50 148 
3 148 50 56 
3 148 56 149 
3 150 63 275 
3 150 275 273 
3 152 77 75 
3 152 75 151 
3 152 153 83 
3 152 83 77 
3 153 154 90 
3 153 90 83 
3 155 97 90 
3 155 90 154 
3 151 75 43 
3 151 43 147 
3 159 157 156 
3 159 156 158 
3 160 40 41 
3 160 41 2 
3 1 2 41 
3 1 41 49 
3 161 1 49 
3 161 49 55 
3 164 163 61 
3 164 61 162 
3 165 18 74 
3 165 74 71 
3 19 82 74 
3 19 74 18 
3 166 88 82 
3 166 82 19 
3 167 95 88 
3 167 88 166 
3 165 71 40 
3 165 40 160 
3 171 170 169 
3 171 169 168 
3 46 173 172 
3 46 172 52 
3 78 174 173 
3 78 173 46 
3 84 175 174 
3 84 174 78 
3 91 176 175 
3 91 175 84 
3 180 179 178 
3 180 178 177 
3 183 182 181 
3 183 181 58 
3 173 185 184 
3 173 184 172 
3 174 186 185 
3 174 185 173 
3 175 187 186 
3 175 186 174 
3 188 187 175 
3 188 175 176 
3 182 191 190 
3 182 190 189 
3 183 192 191 
3 183 191 182 
3 185 194 193 
3 185 193 184 
3 186 195 194 
3 186 194 185 
3 187 196 195 
3 187 195 186 
3 197 196 187 
3 197 187 188 
3 191 199 198 
3 191 198 190 
3 192 200 199 
3 192 199 191 
3 194 202 201 
3 194 201 193 
3 195 203 202 
3 195 202 194 
3 196 204 203 
3 196 203 195 
3 205 204 196 
3 205 196 197 
3 199 207 206 
3 199 206 198 
3 200 208 207 
3 200 207 199 
3 202 141 138 
3 202 138 201 
3 203 140 141 
3 203 141 202 
3 204 139 140 
3 204 140 203 
3 137 139 204 
3 137 204 205 
3 207 135 136 
3 207 136 206 
3 208 134 135 
3 208 135 207 
3 209 59 58 
3 209 58 181 
3 210 60 59 
3 210 59 209 
3 162 61 62 
3 162 62 211 
3 276 275 63 
3 276 63 64 
3 213 212 91 
3 213 91 92 
3 215 214 93 
3 215 93 94 
3 216 215 94 
3 216 94 95 
3 159 96 97 
3 159 97 157 
3 120 117 116 
3 120 116 119 
3 139 137 134 
3 139 134 138 
3 149 150 272 
3 149 272 115 
3 121 155 117 
3 121 117 120 
3 56 63 150 
3 56 150 149 
3 157 97 155 
3 157 155 121 
3 161 163 64 
3 161 64 57 
3 217 167 96 
3 217 96 159 
3 212 189 176 
3 212 176 91 
3 172 183 58 
3 172 58 52 
3 190 188 176 
3 190 176 189 
3 172 184 192 
3 172 192 183 
3 198 197 188 
3 198 188 190 
3 184 193 200 
3 184 200 192 
3 206 205 197 
3 206 197 198 
3 193 201 208 
3 193 208 200 
3 136 137 205 
3 136 205 206 
3 201 138 134 
3 201 134 208 
3 181 219 218 
3 181 218 209 
3 182 220 219 
3 182 219 181 
3 189 221 220 
3 189 220 182 
3 212 222 221 
3 212 221 189 
3 213 223 222 
3 213 222 212 
3 224 223 213 
3 224 213 214 
3 216 226 225 
3 216 225 215 
3 217 125 226 
3 217 226 216 
3 158 123 124 
3 158 124 159 
3 277 278 276 
3 277 276 164 
3 211 228 227 
3 211 227 162 
3 229 228 211 
3 229 211 210 
3 227 169 170 
3 227 170 226 
3 228 168 169 
3 228 169 227 
3 230 168 228 
3 230 228 229 
3 219 180 231 
3 219 231 218 
3 220 179 180 
3 220 180 219 
3 221 178 179 
3 221 179 220 
3 222 177 178 
3 222 178 221 
3 223 232 177 
3 223 177 222 
3 224 233 232 
3 224 232 223 
3 226 170 171 
3 226 171 225 
3 168 127 128 
3 168 128 171 
3 126 127 168 
3 126 168 230 
3 180 133 130 
3 180 130 231 
3 177 132 133 
3 177 133 180 
3 232 131 132 
3 232 132 177 
3 233 129 131 
3 233 131 232 
3 39 36 37 
3 39 37 38 
3 38 37 47 
3 38 47 48 
3 54 48 47 
3 54 47 53 
3 54 53 60 
3 54 60 62 
3 72 73 69 
3 72 69 70 
3 73 81 80 
3 73 80 69 
3 87 86 80 
3 87 80 81 
3 87 94 93 
3 87 93 86 
3 235 103 102 
3 235 102 234 
3 131 129 126 
3 131 126 130 
3 211 62 60 
3 211 60 210 
3 92 93 214 
3 92 214 213 
3 215 225 224 
3 215 224 214 
3 209 218 229 
3 209 229 210 
3 231 230 229 
3 231 229 218 
3 225 171 233 
3 225 233 224 
3 130 126 230 
3 130 230 231 
3 171 128 129 
3 171 129 233 
3 32 237 236 
3 32 236 35 
3 33 238 237 
3 33 237 32 
3 36 239 238 
3 36 238 33 
3 39 240 239 
3 39 239 36 
3 72 241 240 
3 72 240 39 
3 72 70 242 
3 72 242 241 
3 68 243 242 
3 68 242 70 
3 65 244 243 
3 65 243 68 
3 66 245 244 
3 66 244 65 
3 78 246 245 
3 78 245 66 
3 46 247 246 
3 46 246 78 
3 35 236 247 
3 35 247 46 
3 237 98 145 
3 237 145 236 
3 238 101 98 
3 238 98 237 
3 239 102 101 
3 239 101 238 
3 240 234 102 
3 240 102 239 
3 241 235 234 
3 241 234 240 
3 242 103 235 
3 242 235 241 
3 243 100 103 
3 243 103 242 
3 244 99 100 
3 244 100 243 
3 245 144 99 
3 245 99 244 
3 246 143 144 
3 246 144 245 
3 247 142 143 
3 247 143 246 
3 236 145 142 
3 236 142 247 
3 72 249 248 
3 72 248 71 
3 39 250 249 
3 39 249 72 
3 40 251 250 
3 40 250 39 
3 71 248 251 
3 71 251 40 
3 249 253 252 
3 249 252 248 
3 250 254 253 
3 250 253 249 
3 251 255 254 
3 251 254 250 
3 248 252 255 
3 248 255 251 
3 253 257 256 
3 253 256 252 
3 254 258 257 
3 254 257 253 
3 255 259 258 
3 255 258 254 
3 252 256 259 
3 252 259 255 
3 257 106 107 
3 257 107 256 
3 258 105 106 
3 258 106 257 
3 259 104 105 
3 259 105 258 
3 256 107 104 
3 256 104 259 
3 226 125 122 
3 226 122 227 
3 42 160 2 
3 42 2 4 
3 57 9 1 
3 57 1 161 
3 64 163 164 
3 64 164 276 
3 76 22 18 
3 76 18 165 
3 89 166 19 
3 89 19 24 
3 96 167 166 
3 96 166 89 
3 76 165 160 
3 76 160 42 
3 55 61 163 
3 55 163 161 
3 95 167 217 
3 95 217 216 
3 159 124 125 
3 159 125 217 
3 227 277 164 
3 227 164 162 
