ply
format ascii 1.0
comment VCGLIB generated
comment TextureFile TropicalFish05.jpg
element vertex 374
property float x
property float y
property float z
property float nx
property float ny
property float nz
property float texture_u
property float texture_v
element face 728
property list uchar int vertex_indices
end_header
0.125875 -0.260301 0.0133051 0.981393 -1.83522 4.32886 0.424 0.2887
0.150129 -0.237508 0.0133051 1.6475 -2.11839 5.04452 0.4021 0.3085
0.0800865 -0.248077 0.0466567 1.62639 -3.71801 4.34787 0.4653 0.2994
0.0625805 -0.286744 0.0133051 0.722062 -3.14378 4.84107 0.4811 0.2658
-0.0201875 -0.265112 0.0532975 0.541536 -4.35579 4.02813 0.5557 0.2846
-0.0130422 -0.297108 0.0133051 0.198898 -2.87198 3.9479 0.5492 0.2568
-0.103997 -0.264038 0.0599382 -0.363402 -4.67913 3.6085 0.6312 0.2855
-0.170465 -0.250289 0.0599382 0.167441 -2.96791 4.82943 0.7092 0.2761
-0.181957 -0.272482 0.0133051 1.38632 -4.65359 -0.154084 0.6845 0.2665
-0.0982092 -0.294959 0.0133051 -2.17381 -4.86129 2.55823 0.626 0.2586
-0.303656 -0.201269 0.0614442 -4.06173 -4.14552 3.55642 0.8112 0.34
-0.360233 -0.150146 0.0338736 -2.94132 -3.86835 3.34079 0.8622 0.3845
-0.367787 -0.160237 0.0133051 -3.36827 -4.40078 1.33181 0.8691 0.3757
-0.308993 -0.215837 0.0133051 -3.64454 -4.57142 0.877014 0.816 0.3274
0.174383 -0.214713 0.0133051 2.1771 -1.99599 6.06008 0.3803 0.3284
0.243454 -0.134554 0.0133051 2.95363 -0.91198 3.53585 0.318 0.398
0.109363 -0.164826 0.0891659 2.28827 -1.14918 5.09485 0.4389 0.3717
0.0975925 -0.209411 0.0696864 1.86756 -2.94701 4.72812 0.4495 0.333
-0.0188161 -0.170787 0.10474 0.874512 -1.31618 5.69776 0.5545 0.3665
-0.0273325 -0.233119 0.0818583 0.942944 -3.72333 5.73507 0.5621 0.3124
-0.106713 -0.170787 0.120315 0.585324 -1.72315 6.63511 0.6337 0.3665
-0.16626 -0.164729 0.120315 -0.284521 -1.36587 5.75373 0.6874 0.3718
-0.170877 -0.228097 0.0940302 -0.32369 -2.59529 4.1171 0.6915 0.3167
-0.109784 -0.233119 0.0940302 -0.0419592 -3.03147 3.75971 0.6365 0.3124
-0.296887 -0.17285 0.0899696 -2.74088 -1.72723 4.83211 0.8051 0.3647
-0.283998 -0.127172 0.0963518 -1.60133 -2.12141 3.73055 0.7935 0.4044
-0.35455 -0.104695 0.0647948 -2.66199 -0.557007 5.29345 0.8571 0.4239
-0.352677 -0.140054 0.0544421 -3.2211 -2.12675 4.3146 0.8554 0.3932
0.22488 -0.117316 0.0179018 1.80749 -0.446935 6.50231 0.3348 0.413
0.101455 -0.11137 0.0923296 1.84362 0.566041 5.51914 0.446 0.4181
-0.0214653 -0.112808 0.108457 0.929036 0.721779 5.7783 0.5568 0.4169
-0.104 -0.111265 0.124584 0.556112 0.696483 5.7992 0.6312 0.4182
-0.159777 -0.107731 0.124584 0.0215958 0.700203 5.83684 0.6815 0.4213
-0.278267 -0.0928924 0.0931619 -3.26012 1.74381 6.93378 0.7883 0.4342
-0.362486 -0.0838219 0.0647948 -2.58575 0.215564 5.25163 0.8643 0.4421
0.219523 -0.0582866 0.0179018 1.56487 0.854293 5.6268 0.3396 0.4643
0.114552 -0.0130343 0.0626422 1.52172 1.21391 4.55084 0.4342 0.5036
0.104961 -0.0701844 0.0775945 1.88315 1.51309 6.44647 0.4429 0.4539
0.220687 -0.0909949 0.0224982 1.64973 0.499738 5.57382 0.3385 0.4358
-0.0221342 0.0279607 0.0704802 0.961749 1.74232 5.64581 0.5574 0.5392
-0.0241143 -0.054829 0.0911477 0.991355 1.58511 5.69485 0.5592 0.4673
-0.0969674 0.0461817 0.0813221 0.728237 2.45347 7.52605 0.6249 0.555
-0.146805 0.0467544 0.0813221 0.0486114 1.9281 5.65778 0.6698 0.5555
-0.152426 -0.0482481 0.104701 0.076437 1.65424 5.76189 0.6749 0.473
-0.101288 -0.0517431 0.104701 0.418938 1.38883 4.76304 0.6288 0.4699
-0.277667 -0.0485789 0.0783355 -1.96512 1.44432 5.44018 0.7878 0.4727
-0.279949 0.0435378 0.0618533 -1.81178 1.62073 5.44216 0.7899 0.5527
-0.366033 0.00877553 0.0458447 -3.58265 1.59174 5.50253 0.8675 0.5225
-0.364481 -0.0547788 0.054471 -1.8788 1.12738 4.41799 0.8661 0.4673
0.125875 -0.260301 -0.0133051 0.904658 -1.59653 -3.3608 0.424 0.2887
0.0625805 -0.286744 -0.0133051 0.788266 -2.96218 -4.90181 0.4811 0.2658
0.0800865 -0.248077 -0.0466567 1.62639 -3.71801 -4.34788 0.4653 0.2994
0.150129 -0.237508 -0.0133051 1.6475 -2.11838 -5.04452 0.4021 0.3085
-0.0130422 -0.297108 -0.0133051 0.209426 -3.29227 -4.85523 0.5492 0.2568
-0.0201875 -0.265112 -0.0532973 0.541533 -4.35578 -4.02814 0.5557 0.2846
-0.181957 -0.272482 -0.0133051 1.31801 -5.7998 0.367137 0.6845 0.2665
-0.170465 -0.250289 -0.059938 1.16007 -2.81838 -3.54881 0.7092 0.2761
-0.103997 -0.264038 -0.059938 -0.363401 -4.67912 -3.6085 0.6312 0.2855
-0.0982092 -0.294959 -0.0133051 -1.55933 -5.34063 -2.55823 0.626 0.2586
-0.367787 -0.160237 -0.0133052 -2.97652 -4.6296 -1.33182 0.8691 0.3757
-0.360233 -0.150146 -0.0338734 -2.94132 -3.86834 -3.34081 0.8622 0.3845
-0.303656 -0.201269 -0.061444 -4.06173 -4.14552 -3.55643 0.8112 0.34
-0.308993 -0.215837 -0.0133052 -3.75918 -4.47805 -0.877018 0.816 0.3274
0.174383 -0.214713 -0.0133051 2.1771 -1.99598 -6.06009 0.3803 0.3284
0.0975925 -0.209411 -0.0696862 1.86756 -2.947 -4.72812 0.4495 0.333
0.109363 -0.164826 -0.0891656 2.28826 -1.14918 -5.09485 0.4389 0.3717
0.243454 -0.134554 -0.0133051 2.18546 0.688862 -3.53585 0.318 0.398
-0.0273325 -0.233119 -0.0818581 0.942942 -3.72333 -5.73508 0.5621 0.3124
-0.0188161 -0.170787 -0.10474 0.874511 -1.31619 -5.69776 0.5545 0.3665
-0.170877 -0.228097 -0.09403 -0.323688 -2.5953 -4.11709 0.6915 0.3167
-0.16626 -0.164729 -0.120315 -0.284516 -1.36587 -5.75373 0.6874 0.3718
-0.106713 -0.170787 -0.120314 0.585327 -1.72316 -6.63511 0.6337 0.3665
-0.109784 -0.233119 -0.09403 -0.0419572 -3.03147 -3.75971 0.6365 0.3124
-0.296887 -0.17285 -0.0899694 -2.74088 -1.72724 -4.83211 0.8051 0.3647
-0.352677 -0.140054 -0.0544418 -3.22109 -2.12675 -4.31461 0.8554 0.3932
-0.35455 -0.104695 -0.0647946 -2.662 -0.557019 -5.29345 0.8571 0.4239
-0.283998 -0.127172 -0.0963515 -2.29645 -0.974865 -4.39343 0.7935 0.4044
0.101455 -0.11137 -0.0923296 1.84362 0.566033 -5.51914 0.446 0.4181
0.22488 -0.117316 -0.0179015 1.80747 -0.446929 -6.50231 0.3348 0.413
-0.0214653 -0.112808 -0.108457 0.929032 0.72177 -5.7783 0.5568 0.4169
-0.159777 -0.107731 -0.124584 0.0215998 0.700203 -5.83685 0.6815 0.4213
-0.104 -0.111265 -0.124584 0.556112 0.696478 -5.79921 0.6312 0.4182
-0.362486 -0.0838219 -0.0647946 -2.58576 0.21556 -5.25163 0.8643 0.4421
-0.278267 -0.0928924 -0.0931619 -3.04432 2.00169 -6.97387 0.7883 0.4342
0.104961 -0.0701844 -0.0775945 1.89008 1.49279 -6.45037 0.4429 0.4539
0.114552 -0.0130341 -0.062642 1.53195 1.20666 -4.55032 0.4342 0.5036
0.219523 -0.0582866 -0.0179015 1.56485 0.854289 -5.6268 0.3396 0.4643
0.220687 -0.0909949 -0.0224979 1.64971 0.499741 -5.57382 0.3385 0.4358
-0.0241143 -0.054829 -0.0911477 0.975053 1.56137 -5.70369 0.5592 0.4673
-0.0221342 0.0279607 -0.0719821 0.96555 1.72657 -5.6471 0.5574 0.5392
-0.152426 -0.0482481 -0.104701 0.0764385 1.65423 -5.7619 0.6749 0.473
-0.146805 0.0467544 -0.0813221 0.0486126 1.9281 -5.65778 0.6698 0.5555
-0.0969674 0.0461817 -0.0813221 0.694906 2.45098 -7.53072 0.6249 0.555
-0.101288 -0.0517431 -0.104701 0.409055 1.38203 -4.76648 0.6288 0.4699
-0.277667 -0.0485789 -0.0783355 -1.97312 1.46536 -5.43395 0.7878 0.4727
-0.364481 -0.0547788 -0.0544708 -1.87984 1.1422 -4.41496 0.8661 0.4673
-0.366033 0.00877553 -0.0450936 -3.56936 1.61461 -5.51598 0.8675 0.5225
-0.279949 0.0435378 -0.0611021 -1.81982 1.62439 -5.44219 0.7899 0.5527
0.233603 -0.382796 0.00290439 2.58236 -3.0112 2 0.3269 0.1823
0.160689 -0.430573 0.00290439 0.389288 -1.82375 3 0.3926 0.1408
0.160689 -0.430573 -0.00290439 0.778575 -3.6475 -3 0.3926 0.1408
0.233603 -0.382796 -0.00290439 1.29118 -1.5056 -3 0.3269 0.1823
0.0363714 -0.41058 0.00290439 -0.711796 -2.89364 3 0.5047 0.1582
0.0363714 -0.41058 -0.00290439 -0.947253 -2.82533 -3 0.5047 0.1582
-0.479765 -0.137565 0.0133051 -2.17749 -3.67521 2.68672 0.97 0.3954
-0.479765 -0.137565 -0.0133052 -2.17749 -3.67518 -2.68673 0.97 0.3954
-0.473123 -0.142553 -0.0133052 -1.49673 -3.39171 -1.82494 0.964 0.391
-0.473123 -0.142553 0.0133051 -1.02106 -3.58423 1.82494 0.964 0.391
-0.48641 -0.132577 0.0133051 -3.33551 -0.852307 1.83458 0.976 0.3997
-0.477503 -0.118423 0.0133051 -1.80187 -1.17223 3.63469 0.968 0.412
-0.477503 -0.118423 -0.0133052 -2.74022 -1.63535 -3.6347 0.968 0.412
-0.48641 -0.132577 -0.0133052 -1.88869 -0.585264 -1.83459 0.976 0.3997
-0.48832 -0.117424 0.0133051 -0.645648 -4.28427 2.67774 0.9777 0.4129
-0.48832 -0.117424 -0.0133052 -0.645661 -4.28425 -2.67775 0.9777 0.4129
-0.5 -0.10255 0.0133051 -3.46689 1.19209 2.83047 0.9882 0.4258
-0.5 -0.10255 -0.0133052 -3.22035 1.91364 -2.83047 0.9882 0.4258
-0.49914 -0.116424 -0.0133052 -2.45905 -1.35684 -1.85545 0.9875 0.4138
-0.49914 -0.116424 0.0133051 -1.553 -2.2907 1.85544 0.9875 0.4138
-0.442191 -0.0628056 0.0133051 -2.44106 3.64842 2.63229 0.9361 0.4603
-0.442191 -0.0628056 -0.0133052 -2.66093 3.4978 -2.6323 0.9361 0.4603
-0.48331 -0.0835333 -0.0133052 -2.07556 3.06193 -1.85488 0.9732 0.4423
-0.48331 -0.0835333 0.0133051 -2.37698 2.82864 1.85488 0.9732 0.4423
-0.0962622 0.401514 0.00290439 -1.471 2.5944 3 0.6243 0.8638
-0.0962622 0.401514 -0.00290439 -1.26723 2.6998 -3 0.6243 0.8638
-0.16331 0.356401 -0.00290417 -1.73808 2.44271 -2 0.6847 0.8246
-0.16331 0.356401 0.00290439 -1.80137 2.39641 2 0.6847 0.8246
0.209671 0.269258 0.00290439 3.4365 2.01086 3 0.3485 0.7489
0.262614 0.154865 0.00290441 1.87308 0.680199 3 0.3007 0.6495
0.262614 0.154865 -0.00290437 3.74615 1.3604 -3 0.3007 0.6495
0.209671 0.269258 -0.00290439 1.71825 1.00543 -3 0.3485 0.7489
0.486317 -0.128851 0.00631406 2.98082 -0.381642 2.9997 0.1091 0.4121
0.486317 -0.128851 -0.0063138 2.96522 -0.486825 -2.9997 0.1091 0.4121
0.5 0.0161972 -0.0063138 2.00559 0.812368 -0.999979 0.0963 0.5272
0.5 0.0161972 0.00631406 1.03083 1.90607 0.999979 0.0963 0.5272
0.446308 -0.242452 0.00695044 2.43734 -1.79592 3.99524 0.1434 0.3108
0.446308 -0.242452 -0.0069504 1.98746 -2.25139 -3.99524 0.1434 0.3108
0.475345 -0.182858 -0.00607941 2.86661 -1.0653 -2.99852 0.119 0.3634
0.475345 -0.182858 0.00607968 2.94761 -0.826403 2.99852 0.119 0.3634
0.301588 -0.154655 0.00290441 3.16516 1.5856 1 0.2656 0.3805
0.299576 -0.256095 0.00290441 1.96449 -0.283235 4 0.2674 0.2924
0.299576 -0.256095 -0.00290437 3.92898 -0.566469 -3 0.2674 0.2924
0.301588 -0.154655 -0.00290437 1.58258 0.792798 -2 0.2656 0.3805
0.278634 -0.332788 0.00290441 2.67249 -1.19596 3 0.2863 0.2258
0.278634 -0.332788 -0.00290437 2.45092 -1.60173 -3 0.2863 0.2258
-0.40173 -0.119856 0.0362068 -2.16696 -2.64386 5.60131 0.8997 0.4108
-0.44407 -0.126216 0.024756 -1.28387 -1.19054 5.44637 0.9378 0.4052
-0.43831 -0.136937 0.0190305 -0.645296 -2.92232 5.17243 0.9326 0.3959
-0.396853 -0.136308 0.024756 -1.09134 -3.05353 3.67688 0.8953 0.3965
-0.440705 -0.109994 0.024756 -1.43434 -0.801292 5.63121 0.9348 0.4193
-0.403906 -0.101565 0.0362068 -2.39908 -1.06213 5.32578 0.9016 0.4267
-0.413368 -0.08637 0.0362068 -3.18997 1.04774 6.94149 0.9101 0.4399
-0.456254 -0.101397 0.024756 -1.2597 -0.315612 5.54219 0.9488 0.4268
-0.448479 -0.105696 0.024756 -1.005 -2.00914 5.50636 0.9418 0.4231
-0.408636 -0.0939674 0.0362068 -1.62064 -0.739901 4.55443 0.9059 0.4333
-0.452287 -0.079436 0.0190305 -1.647 1.93036 5.40565 0.9452 0.4459
-0.404572 -0.056322 0.024756 -2.33669 1.65516 3.93968 0.9022 0.466
-0.402867 -0.027313 0.0133051 -4.15825 2.73681 2.01322 0.9007 0.4912
-0.43255 -0.147657 -0.0133052 -0.635918 -4.48993 -2.56463 0.9274 0.3866
-0.43831 -0.136937 -0.0190306 -0.645292 -2.9223 -5.17244 0.9326 0.3959
-0.396853 -0.136308 -0.0247558 -1.09133 -3.05351 -3.6769 0.8953 0.3965
-0.391975 -0.15276 -0.0133052 -1.31526 -4.91531 -2.05942 0.8909 0.3822
-0.40173 -0.119856 -0.0362066 -2.16696 -2.64385 -5.60132 0.8997 0.4108
-0.44407 -0.126216 -0.0247558 -1.28386 -1.19051 -5.44639 0.9378 0.4052
-0.440705 -0.109994 -0.0247558 -1.43433 -0.801287 -5.63122 0.9348 0.4193
-0.403906 -0.101565 -0.0362066 -2.39908 -1.06214 -5.32578 0.9016 0.4267
-0.448479 -0.105696 -0.0247558 -1.005 -2.00912 -5.50637 0.9418 0.4231
-0.408636 -0.0939674 -0.0362066 -1.62064 -0.739901 -4.55443 0.9059 0.4333
-0.413368 -0.08637 -0.0362066 -3.18869 1.05965 -6.93916 0.9101 0.4399
-0.456254 -0.101397 -0.0247558 -1.25968 -0.315614 -5.54221 0.9488 0.4268
-0.452287 -0.079436 -0.0190306 -1.64698 1.93034 -5.40566 0.9452 0.4459
-0.404572 -0.056322 -0.0247558 -2.33024 1.66021 -3.94654 0.9022 0.466
-0.43255 -0.147657 0.0133051 -0.635922 -4.48994 2.56462 0.9274 0.3866
-0.391975 -0.15276 0.0133051 -1.48582 -4.87853 2.0594 0.8909 0.3822
-0.368574 0.0743208 0.0133051 -4.14155 2.23666 2.31791 0.8698 0.5795
-0.368574 0.0743208 -0.0133052 -3.94361 2.55265 -2.33289 0.8698 0.5795
-0.402867 -0.027313 -0.0133052 -4.42416 2.31238 -2.02925 0.9007 0.4912
-0.270233 0.190363 0.0133051 -3.24034 2.77684 3.66496 0.7811 0.6803
-0.270233 0.190363 -0.0133052 -3.47209 2.26749 -3.66833 0.7811 0.6803
-0.232407 -0.20947 0.0940302 -1.3991 -3.4461 5.69423 0.747 0.3329
-0.22037 -0.264606 0.0599382 -3.35926 -3.62994 3.16778 0.7265 0.2716
-0.233185 -0.145231 0.120315 -0.00742871 -2.03881 4.15075 0.7477 0.3887
-0.226571 -0.105024 0.124584 -0.186376 1.93746 4.82591 0.7417 0.4237
-0.218705 -0.0447533 0.104701 -1.0715 1.53119 5.57406 0.7347 0.476
-0.210802 0.0473273 0.0813221 -0.655553 1.58869 4.63371 0.7275 0.556
-0.195214 0.201834 0.0133051 -0.231158 1.94071 5.64445 0.7135 0.6903
-0.22037 -0.264606 -0.059938 -2.62618 -2.89571 -4.03542 0.7265 0.2716
-0.218148 -0.279264 -0.0133051 -2.85076 -5.22048 0.0561096 0.7215 0.2642
-0.233185 -0.145231 -0.120315 0.0870958 -3.02697 -4.27157 0.7477 0.3887
-0.232407 -0.20947 -0.09403 -1.3991 -3.44611 -5.69422 0.747 0.3329
-0.0791242 -0.154427 -0.154421 2.07735 -0.294228 -0.67956 0.7665 0.1113
-0.0911561 -0.135435 -0.153512 0.902477 0.999262 -0.159375 0.777 0.1237
-0.0921014 -0.140272 -0.151161 1.16985 1.04133 4.54319 0.7778 0.1205
-0.0817175 -0.163059 -0.151363 0.764866 -0.481253 2.12048 0.7688 0.1056
-0.218705 -0.0447531 -0.104701 -1.08082 1.53784 -5.56904 0.7347 0.476
-0.210802 0.0473273 -0.0813221 -0.669334 1.58818 -4.63109 0.7275 0.556
-0.218148 -0.279264 0.0133051 -0.880115 -5.62883 -0.682138 0.7215 0.2642
-0.0234308 0.429125 0.00290439 -0.732389 2.86985 3 0.5586 0.8878
-0.0234308 0.429125 -0.00290439 -0.401329 2.93451 -3 0.5586 0.8878
0.253397 -0.115794 0.0163608 0.357202 -1.22062 4.82512 0.3091 0.4143
0.256301 -0.0973057 0.0194164 0.397781 -0.559522 5.90085 0.3064 0.4304
0.250494 -0.1252 -0.0133051 1.77596 -2.93976 -2.88852 0.3073 0.4028
0.250494 -0.1252 0.0133051 0.869161 -3.33264 2.88851 0.3073 0.4028
0.253397 -0.115794 -0.0163608 0.357204 -1.2206 -4.82512 0.3091 0.4143
0.266561 -0.0751925 -0.0163608 0.571029 0.692228 -5.92726 0.2972 0.4496
0.256301 -0.0973057 -0.0194164 0.397782 -0.55953 -5.90085 0.3064 0.4304
0.295744 0.0319224 0.00290441 2.92899 0.585481 2 0.2754 0.5443
0.295744 0.0319224 -0.00290437 2.96131 0.3904 -2 0.2754 0.5443
0.266561 -0.0751925 0.0163608 0.571029 0.692238 5.92725 0.2972 0.4496
0.256133 -0.0495507 0.0133052 1.79607 -0.154374 4.90497 0.3066 0.4719
0.20854 0.0202262 0.0133051 1.38451 1.00446 5.697 0.3495 0.5325
0.280938 -0.116597 0.0138953 0.13575 -0.974598 5.88827 0.2842 0.4136
0.289663 -0.105638 0.0166965 0.300862 -0.241267 5.9504 0.2764 0.4231
0.272215 -0.127555 -0.0110939 -0.715008 -3.46941 -2.89214 0.2877 0.4007
0.272215 -0.127555 0.011094 -1.22278 -3.26335 2.89214 0.2877 0.4007
0.280938 -0.116597 -0.0138951 0.135769 -0.974584 -5.88828 0.2842 0.4136
0.300819 -0.0779498 -0.0138951 0.41753 0.525972 -5.93852 0.2663 0.4472
0.289663 -0.105638 -0.0166962 0.300875 -0.24127 -5.9504 0.2764 0.4231
0.256133 -0.0495507 -0.0133051 1.87224 1.81984 -5.88047 0.3066 0.4719
0.285559 -0.0597571 0.011094 0.416517 3.08509 2.97312 0.2801 0.463
0.285559 -0.0597571 -0.0110939 -0.276442 3.0712 -2.97312 0.2801 0.463
0.300819 -0.0779498 0.0138953 0.417524 0.525981 5.93852 0.2663 0.4472
0.352472 -0.155458 0.011094 0.071336 -0.261966 4.98627 0.2197 0.3798
0.370469 -0.134732 0.011094 0.269564 -0.10988 5.98791 0.2035 0.3978
0.334475 -0.176185 -0.0110939 -1.97595 -2.35534 -3.99398 0.242 0.3685
0.334475 -0.176185 0.011094 -2.11207 -2.2268 3.99398 0.242 0.3685
0.352472 -0.155458 -0.0110939 0.0713407 -0.261958 -4.98627 0.2197 0.3798
0.398767 -0.0844638 -0.0110939 0.284219 0.0405087 -5.98894 0.178 0.4415
0.370469 -0.134732 -0.0110939 0.269567 -0.109883 -5.98791 0.2035 0.3978
0.393757 -0.017301 0.011094 -1.02486 2.78426 2.99282 0.1825 0.4999
0.393757 -0.017301 -0.0110939 -1.12321 2.73938 -2.99282 0.1825 0.4999
0.398767 -0.0844638 0.011094 0.284211 0.0405165 5.98895 0.178 0.4415
0.3984 -0.187838 0.00945771 0.239734 -0.0104918 5.99472 0.1783 0.3517
0.424658 -0.156562 0.00782143 0.294292 -0.0413495 5.99152 0.1547 0.3789
0.372143 -0.219114 -0.0110939 -2.11036 -2.01503 -2.99676 0.202 0.3245
0.372143 -0.219114 0.011094 -2.09553 -2.03157 2.99676 0.202 0.3245
0.3984 -0.187838 -0.00945744 0.239748 -0.0104889 -5.99472 0.1783 0.3517
0.456333 -0.0869825 -0.00607941 0.26984 -0.00912658 -5.99027 0.14 0.4363
0.424658 -0.156562 -0.00782116 0.294301 -0.0413506 -5.99152 0.1547 0.3789
0.459387 0.0170427 0.00607968 -0.838334 2.77361 2.99668 0.1316 0.5219
0.459387 0.0170427 -0.00607941 -0.353872 2.88737 -2.99668 0.1316 0.5219
0.456333 -0.0869825 0.00607968 0.269829 -0.00912489 5.99027 0.14 0.4363
0.410206 -0.260597 -0.00782116 -0.973224 -2.25976 -0.998581 0.1677 0.2885
0.410206 -0.260597 0.00782121 0.212705 -2.47717 0.998581 0.1677 0.2885
0.130252 0.0989696 0.0133051 1.20548 1.48046 5.64651 0.4201 0.6009
0.01715 0.172262 0.0133051 0.870042 2.00614 6.62622 0.522 0.6646
-0.0780175 0.197245 0.0133051 0.254799 1.30293 3.75897 0.6078 0.6863
-0.133318 0.201634 0.0133051 0.122026 2.26932 6.60038 0.6577 0.6901
0.130252 0.0989696 -0.0133051 1.05978 1.31569 -4.66917 0.4201 0.6009
0.20854 0.0202262 -0.0133051 1.36417 1.04788 -5.6939 0.3495 0.5325
-0.0780175 0.197245 -0.0133051 0.248015 1.30848 -3.75786 0.6078 0.6863
0.01715 0.172262 -0.0133051 0.863245 2.02012 -6.62153 0.522 0.6646
-0.195214 0.201834 -0.0133051 -0.222022 2.1903 -6.61216 0.7135 0.6903
-0.133318 0.201634 -0.0133051 0.108329 2.01782 -5.63262 0.6577 0.6901
0.234242 0.0611756 0.00290439 0.498067 0.468253 5.92028 0.3263 0.5681
0.144138 0.139653 0.00290439 0.4261 0.592015 6.90919 0.4076 0.6362
0.299702 -0.0287348 0.00290441 1.78812 -0.582932 2.95099 0.2718 0.4916
0.299702 -0.0287348 -0.00290437 3.03751 -1.54726 -1.97549 0.2718 0.4916
0.234242 0.0611756 -0.00290439 0.518399 0.424825 -5.92338 0.3263 0.5681
0.144138 0.139653 -0.00290439 0.585346 0.762577 -7.88158 0.4076 0.6362
0.0268756 0.212222 -0.00290439 0.191809 0.471115 -4.93213 0.5133 0.6993
-0.130161 0.238313 -0.00290439 0.054384 0.780487 -5.89587 0.6548 0.722
-0.0792478 0.232371 -0.00290439 0.170746 1.07574 -6.84818 0.6089 0.7168
-0.264533 0.228982 -0.00290441 -1.9888 1.07231 -2.93011 0.776 0.7139
-0.181074 0.244256 -0.00290439 -0.0299158 0.509894 -4.93282 0.7007 0.7271
-0.264533 0.228982 0.00290437 -3.89037 1.62785 2.93011 0.776 0.7139
-0.181074 0.244256 0.00290439 -0.0162166 0.761391 5.90058 0.7007 0.7271
-0.130161 0.238313 0.00290439 0.0406874 0.528986 4.92811 0.6548 0.722
0.0268756 0.212222 0.00290439 0.191809 0.471114 4.93213 0.5133 0.6993
-0.0792478 0.232371 0.00290439 0.170746 1.07574 6.84818 0.6089 0.7168
-0.0861241 0.329058 0.00290439 -2.62268e-007 0 6 0.6151 0.8008
-0.138668 0.322884 0.00290439 -2.62268e-007 0 6 0.6625 0.7955
0.0674805 0.296646 0.00290439 -3.0598e-007 0 7 0.4767 0.7727
-0.0335802 0.335231 0.00290439 -2.62268e-007 0 6 0.5678 0.8062
0.248429 0.10802 0.00290439 -2.62268e-007 0 6 0.3135 0.6088
0.176905 0.204456 0.00290439 -2.18557e-007 0 5 0.378 0.6926
0.297723 0.00159382 0.00290441 3.99151 0.260441 3 0.2736 0.518
0.297723 0.00159382 -0.00290437 1.99576 0.13022 -3 0.2736 0.518
0.248429 0.10802 -0.00290439 2.62268e-007 0 -6 0.3135 0.6088
0.176905 0.204456 -0.00290439 2.18557e-007 0 -5 0.378 0.6926
0.0674805 0.296646 -0.00290439 3.0598e-007 0 -7 0.4767 0.7727
-0.0861241 0.329058 -0.00290439 2.62268e-007 0 -6 0.6151 0.8008
-0.0335802 0.335231 -0.00290439 2.62268e-007 0 -6 0.5678 0.8062
0.0383652 0.430573 -0.00290439 0.997951 2.71926 -3 0.5029 0.889
0.0383652 0.430573 0.00290439 0.463841 2.85922 3 0.5029 0.889
0.134363 0.373551 0.00290439 1.8321 2.30495 2 0.4335 0.8166
0.134363 0.373551 -0.00290439 2.13215 2.03061 -2 0.4335 0.8166
-0.0363417 -0.379389 0.00290439 -1.56596 -2.46692 2 0.5703 0.1853
-0.0363417 -0.379389 -0.00290439 -1.94921 -2.1768 -1 0.5703 0.1853
-0.231688 0.302145 -0.00290417 -3.0677 2.38584 -3 0.7464 0.7774
-0.138668 0.322884 -0.00290439 -9.87433e-006 9.32484e-006 -6 0.6625 0.7955
-0.231688 0.302145 0.00290439 -1.53385 1.19291 3 0.7464 0.7774
0.204955 -0.258545 0.00290439 0.421136 -0.384316 5.94523 0.3527 0.2903
0.231852 -0.225289 0.00290439 0.353147 -0.269557 3.94893 0.3285 0.3192
0.0800067 -0.31723 0.00290439 0.163998 -0.897673 5.84345 0.4654 0.2393
0.178059 -0.291801 0.00290439 0.340893 -0.479754 6.93583 0.377 0.2614
-0.0130955 -0.311092 0.00290439 0.0423065 -1.30069 5.70227 0.5493 0.2446
-0.0840151 -0.320449 0.00290439 -2.38617 -2.66449 2.77522 0.6132 0.2365
-0.0840151 -0.320449 -0.00290439 -2.48237 -2.52207 -3.77522 0.6132 0.2365
-0.0130955 -0.311092 -0.00290439 0.0317783 -0.880398 -4.79494 0.5493 0.2446
0.0800067 -0.31723 -0.00290439 0.0977925 -1.07928 -5.78271 0.4654 0.2393
0.178059 -0.291801 -0.00290439 0.417627 -0.718444 -6.90389 0.377 0.2614
0.204955 -0.258545 -0.00290439 0.421136 -0.384316 -5.94523 0.3527 0.2903
0.274912 -0.135525 -0.00290437 1.61363 2.34946 -2.93652 0.2897 0.3972
0.231852 -0.225289 -0.00290439 0.353147 -0.269557 -4.94893 0.3285 0.3192
0.274912 -0.135525 0.00290441 1.0617 2.53635 3.93652 0.2897 0.3972
-0.226571 -0.105024 -0.124584 0.198405 1.52117 -4.00211 0.7417 0.4237
-0.0921021 -0.140271 0.151161 0.889521 0.573118 -4.61271 0.7778 0.1205
-0.0911568 -0.135435 0.153512 0.946221 1.14236 -1.72761 0.777 0.1237
-0.0791246 -0.154426 0.154421 1.69811 0.392999 0.9334 0.7665 0.1113
-0.0817181 -0.163059 0.151363 1.38062 -0.843375 -0.417831 0.7688 0.1056
-0.0973433 -0.302426 -0.0696294 2.6444 2.52228 1.26959 0.6286 0.2491
-0.0676141 -0.388267 -0.0701979 0.661661 -0.550513 1.82513 0.5978 0.1772
-0.0679685 -0.387541 -0.0724108 0.99267 -1.13695 -1.33857 0.5981 0.1779
-0.0969822 -0.302265 -0.0729614 1.14734 1.22044 -1.8587 0.6283 0.2493
-0.0679685 -0.387541 0.0724108 1.334 -0.273219 2.11213 0.5981 0.1779
-0.0676141 -0.388267 0.0701979 0.18425 -1.4377 -0.603531 0.5978 0.1772
-0.0973433 -0.302426 0.0696294 2.36397 1.59159 -2.18473 0.6286 0.2491
-0.0969822 -0.302265 0.0729614 1.56384 2.17458 0.77855 0.6283 0.2493
-0.196316 -0.303627 -0.0685138 -2.49974 -1.59259 -3.26832 0.7105 0.2538
-0.195487 -0.306123 -0.0532639 -1.20353 -3.64466 1.72432 0.7097 0.2516
-0.160747 -0.276128 -0.0693545 1.49779 2.55683 -2.3453 0.6835 0.2677
-0.161481 -0.278702 -0.052414 3.04318 0.62835 3.21321 0.6841 0.2655
-0.161481 -0.278702 0.0524142 2.71639 0.499115 -2.60585 0.6841 0.2655
-0.195487 -0.306123 0.0532641 -1.50536 -2.76916 -2.15297 0.7097 0.2516
-0.160747 -0.276128 0.0693545 2.04881 1.80492 2.20808 0.6835 0.2677
-0.196316 -0.303627 0.068514 -2.42212 -1.58695 3.22683 0.7105 0.2538
-0.139372 -0.35507 -0.0689116 -1.90611 -2.40655 -3.39961 0.6631 0.2064
-0.139017 -0.355795 -0.0666987 -0.942449 -2.71517 2.38763 0.6628 0.2058
-0.136239 -0.288076 -0.0694622 1.02079 2.72409 -2.68788 0.6612 0.2588
-0.1366 -0.288237 -0.0661302 1.57479 2.61983 3.32958 0.6615 0.2587
-0.1366 -0.288237 0.0661304 1.67031 2.5506 -3.23497 0.6615 0.2587
-0.139017 -0.355795 0.0666989 -1.37725 -2.45809 -2.55451 0.6628 0.2058
-0.136239 -0.288076 0.0694622 1.04593 2.67136 2.62452 0.6612 0.2588
-0.139372 -0.35507 0.0689116 -1.59196 -2.54168 3.53518 0.6631 0.2064
-0.235739 -0.143558 -0.135993 -1.30274 -2.18425 -1.68535 0.75 0.3902
-0.223703 -0.117529 -0.128042 2.95376 -1.57671 3.7602 0.7392 0.4128
-0.233145 -0.1358 -0.137065 -3.2354 1.47788 -4.70514 0.7477 0.3969
-0.222757 -0.112693 -0.129095 0.541365 1.52219 -0.0881517 0.7383 0.417
-0.223703 -0.117529 0.128043 3.1448 -2.04503 -3.63546 0.7392 0.4128
-0.235739 -0.143558 0.135993 -0.875356 -1.37426 0.784677 0.75 0.3902
-0.222757 -0.112693 0.129095 -0.110748 1.3099 0.869173 0.7383 0.417
-0.233145 -0.1358 0.137065 -3.20171 1.3485 4.70006 0.7477 0.3969
-0.213905 -0.166564 -0.154078 -0.284774 -1.72781 0.16411 0.8852 0.1199
-0.201869 -0.115064 -0.142573 1.84633 0.00330365 5.31353 0.8847 0.1444
-0.211311 -0.157931 -0.157923 -2.39577 0.465495 -5.04009 0.8829 0.1255
-0.200923 -0.110228 -0.144835 -0.402378 2.00764 0.105714 0.8839 0.1476
-0.201868 -0.115064 0.142573 1.71501 0.0970796 -5.25355 0.8847 0.1444
-0.213905 -0.166564 0.154079 -0.982073 -1.18405 -0.429327 0.8852 0.1199
-0.200923 -0.110228 0.144835 0.432644 1.65286 0.155901 0.8839 0.1476
-0.211311 -0.157931 0.157923 -2.40215 0.182777 4.98375 0.8829 0.1255
-0.166434 -0.185172 -0.161302 0.214554 -2.08283 0.47595 0.8347 0.1029
-0.143799 -0.109214 -0.15011 0.411019 0.687266 5.67902 0.815 0.1526
-0.163841 -0.176538 -0.167641 -0.400745 -0.737385 -5.42507 0.8325 0.1086
-0.142854 -0.104378 -0.152372 0.43984 1.77384 -0.16653 0.8142 0.1557
-0.143799 -0.109214 0.15011 0.769246 0.524421 -5.66108 0.815 0.1526
-0.166434 -0.185172 0.161302 -0.451883 -1.84755 -0.439083 0.8347 0.1029
-0.142854 -0.104377 0.152372 0.462167 1.79745 0.185154 0.8142 0.1557
-0.16384 -0.176538 0.167641 -0.114843 -0.833415 5.35167 0.8325 0.1086
-0.0972864 -0.172432 -0.155429 0.984625 -1.8901 0.73732 0.7823 0.0995
-0.117741 -0.128359 -0.151126 0.438955 0.646418 5.70136 0.7941 0.1448
-0.0946929 -0.163799 -0.160167 1.22713 -0.996527 -5.23189 0.7801 0.1052
-0.116796 -0.123523 -0.152865 0.920183 1.63623 -0.176636 0.7932 0.148
-0.117741 -0.128358 0.151126 0.39582 0.663762 -5.7137 0.7941 0.1448
-0.0972867 -0.172431 0.155429 0.610122 -1.97037 -0.647995 0.7823 0.0995
-0.116796 -0.123522 0.152865 1.05595 1.62025 0.178519 0.7932 0.148
-0.0946934 -0.163798 0.160168 1.50898 -0.917643 5.15302 0.7801 0.1052
-0.223703 -0.117529 -0.128042 2.95376 -1.57671 3.7602 0.9006 0.14
-0.235739 -0.143558 -0.135993 -1.30274 -2.18425 -1.68535 0.9155 0.1327
-0.233145 -0.1358 -0.137065 -3.2354 1.47788 -4.70514 0.9132 0.1378
-0.222757 -0.112693 -0.129095 0.541365 1.52219 -0.0881517 0.8998 0.1431
-0.235739 -0.143558 0.135993 -0.875356 -1.37426 0.784677 0.9155 0.1327
-0.223703 -0.117529 0.128043 3.1448 -2.04503 -3.63546 0.9006 0.14
-0.222757 -0.112693 0.129095 -0.110748 1.3099 0.869173 0.8998 0.1431
-0.233145 -0.1358 0.137065 -3.20171 1.3485 4.70006 0.9132 0.1378
3 0 1 2 
3 0 2 3 
3 3 2 4 
3 3 4 5 
3 6 7 8 
3 6 8 9 
3 10 11 12 
3 10 12 13 
3 14 15 16 
3 14 16 17 
3 17 16 18 
3 17 18 19 
3 20 21 22 
3 20 22 23 
3 24 25 26 
3 24 26 27 
3 28 29 16 
3 28 16 15 
3 29 30 18 
3 29 18 16 
3 31 32 21 
3 31 21 20 
3 33 34 26 
3 33 26 25 
3 35 36 37 
3 35 37 38 
3 37 36 39 
3 37 39 40 
3 41 42 43 
3 41 43 44 
3 45 46 47 
3 45 47 48 
3 49 50 51 
3 49 51 52 
3 50 53 54 
3 50 54 51 
3 55 56 57 
3 55 57 58 
3 59 60 61 
3 59 61 62 
3 63 64 65 
3 63 65 66 
3 64 67 68 
3 64 68 65 
3 69 70 71 
3 69 71 72 
3 73 74 75 
3 73 75 76 
3 65 77 78 
3 65 78 66 
3 68 79 77 
3 68 77 65 
3 70 80 81 
3 70 81 71 
3 75 82 83 
3 75 83 76 
3 84 85 86 
3 84 86 87 
3 84 88 89 
3 84 89 85 
3 90 91 92 
3 90 92 93 
3 94 95 96 
3 94 96 97 
3 98 99 100 
3 98 100 101 
3 102 103 100 
3 102 100 99 
3 8 55 58 
3 8 58 9 
3 12 59 62 
3 12 62 13 
3 104 105 106 
3 104 106 107 
3 108 109 110 
3 108 110 111 
3 112 113 110 
3 112 110 109 
3 114 115 116 
3 114 116 117 
3 118 119 120 
3 118 120 121 
3 122 123 124 
3 122 124 125 
3 126 127 128 
3 126 128 129 
3 130 131 132 
3 130 132 133 
3 134 135 136 
3 134 136 137 
3 138 139 140 
3 138 140 141 
3 142 143 140 
3 142 140 139 
3 144 145 146 
3 144 146 147 
3 148 145 144 
3 148 144 149 
3 150 151 152 
3 150 152 153 
3 118 154 155 
3 118 155 156 
3 157 158 159 
3 157 159 160 
3 161 162 163 
3 161 163 164 
3 163 165 166 
3 163 166 164 
3 167 168 169 
3 167 169 170 
3 171 157 160 
3 171 160 172 
3 173 174 175 
3 173 175 156 
3 144 147 11 
3 144 11 27 
3 149 144 27 
3 149 27 26 
3 150 153 34 
3 150 34 48 
3 156 155 47 
3 156 47 173 
3 160 159 60 
3 160 60 59 
3 74 161 164 
3 74 164 75 
3 164 166 82 
3 164 82 75 
3 167 170 96 
3 167 96 95 
3 172 160 59 
3 172 59 12 
3 176 177 174 
3 176 174 173 
3 178 24 10 
3 178 10 179 
3 180 25 24 
3 180 24 178 
3 45 33 181 
3 45 181 182 
3 176 46 183 
3 176 183 184 
3 62 61 185 
3 62 185 186 
3 73 76 187 
3 73 187 188 
3 189 190 191 
3 189 191 192 
3 193 94 97 
3 193 97 194 
3 13 62 186 
3 13 186 195 
3 196 197 123 
3 196 123 122 
3 28 198 199 
3 28 199 38 
3 15 66 200 
3 15 200 201 
3 78 202 200 
3 78 200 66 
3 87 86 203 
3 87 203 204 
3 128 127 205 
3 128 205 206 
3 35 207 208 
3 35 208 209 
3 199 198 210 
3 199 210 211 
3 201 200 212 
3 201 212 213 
3 202 214 212 
3 202 212 200 
3 203 215 216 
3 203 216 204 
3 217 208 218 
3 217 218 219 
3 208 207 220 
3 208 220 218 
3 211 210 221 
3 211 221 222 
3 213 212 223 
3 213 223 224 
3 214 225 223 
3 214 223 212 
3 215 226 227 
3 215 227 216 
3 219 218 228 
3 219 228 229 
3 218 220 230 
3 218 230 228 
3 222 221 231 
3 222 231 232 
3 224 223 233 
3 224 233 234 
3 223 225 235 
3 223 235 233 
3 226 236 237 
3 226 237 227 
3 229 228 238 
3 229 238 239 
3 228 230 240 
3 228 240 238 
3 232 231 134 
3 232 134 137 
3 234 233 241 
3 234 241 242 
3 233 235 135 
3 233 135 241 
3 236 131 136 
3 236 136 237 
3 239 238 133 
3 239 133 132 
3 238 240 130 
3 238 130 133 
3 209 243 36 
3 209 36 35 
3 243 244 39 
3 243 39 36 
3 41 245 246 
3 41 246 42 
3 46 176 173 
3 46 173 47 
3 85 247 248 
3 85 248 86 
3 92 249 250 
3 92 250 89 
3 251 252 91 
3 251 91 194 
3 174 177 97 
3 174 97 96 
3 121 120 115 
3 121 115 114 
3 137 136 131 
3 137 131 130 
3 114 117 151 
3 114 151 154 
3 120 119 169 
3 120 169 115 
3 150 48 47 
3 150 47 155 
3 175 174 96 
3 175 96 170 
3 46 45 182 
3 46 182 183 
3 177 251 194 
3 177 194 97 
3 86 248 217 
3 86 217 203 
3 38 199 207 
3 38 207 35 
3 217 219 215 
3 217 215 203 
3 207 199 211 
3 207 211 220 
3 219 229 226 
3 219 226 215 
3 220 211 222 
3 220 222 230 
3 229 239 236 
3 229 236 226 
3 230 222 232 
3 230 232 240 
3 239 132 131 
3 239 131 236 
3 240 232 137 
3 240 137 130 
3 243 209 253 
3 243 253 254 
3 209 208 255 
3 209 255 253 
3 208 217 256 
3 208 256 255 
3 217 248 257 
3 217 257 256 
3 248 247 258 
3 248 258 257 
3 250 259 258 
3 250 258 247 
3 252 260 261 
3 252 261 249 
3 251 177 262 
3 251 262 263 
3 177 176 264 
3 177 264 262 
3 264 176 184 
3 264 184 265 
3 246 266 265 
3 246 265 184 
3 244 267 268 
3 244 268 245 
3 266 269 270 
3 266 270 265 
3 267 271 272 
3 267 272 268 
3 254 253 273 
3 254 273 274 
3 253 255 275 
3 253 275 273 
3 256 276 275 
3 256 275 255 
3 257 277 276 
3 257 276 256 
3 258 278 277 
3 258 277 257 
3 258 259 279 
3 258 279 278 
3 261 260 280 
3 261 280 281 
3 282 283 284 
3 282 284 285 
3 19 23 6 
3 19 6 4 
3 20 23 19 
3 20 19 18 
3 40 44 31 
3 40 31 30 
3 41 44 40 
3 41 40 39 
3 58 57 54 
3 58 54 53 
3 67 72 71 
3 67 71 68 
3 71 81 79 
3 71 79 68 
3 88 93 92 
3 88 92 89 
3 286 287 103 
3 286 103 102 
3 126 129 285 
3 126 285 284 
3 244 245 41 
3 244 41 39 
3 247 85 89 
3 247 89 250 
3 250 249 261 
3 250 261 259 
3 244 243 254 
3 244 254 267 
3 254 274 271 
3 254 271 267 
3 259 261 281 
3 259 281 279 
3 263 262 288 
3 263 288 289 
3 264 290 288 
3 264 288 262 
3 265 270 290 
3 265 290 264 
3 14 1 291 
3 14 291 292 
3 0 3 293 
3 0 293 294 
3 3 5 295 
3 3 295 293 
3 5 9 296 
3 5 296 295 
3 9 58 297 
3 9 297 296 
3 297 58 53 
3 297 53 298 
3 53 50 299 
3 53 299 298 
3 50 49 300 
3 50 300 299 
3 52 301 300 
3 52 300 49 
3 63 66 302 
3 63 302 303 
3 66 15 304 
3 66 304 302 
3 304 15 14 
3 304 14 292 
3 156 175 119 
3 156 119 118 
3 145 108 104 
3 145 104 146 
3 109 108 145 
3 109 145 148 
3 151 117 112 
3 151 112 152 
3 121 114 154 
3 121 154 118 
3 106 105 158 
3 106 158 157 
3 162 111 110 
3 162 110 163 
3 110 113 165 
3 110 165 163 
3 168 116 115 
3 168 115 169 
3 107 106 157 
3 107 157 171 
3 150 155 154 
3 150 154 151 
3 119 175 170 
3 119 170 169 
3 38 37 29 
3 38 29 28 
3 37 40 30 
3 37 30 29 
3 44 43 32 
3 44 32 31 
3 33 45 48 
3 33 48 34 
3 77 84 87 
3 77 87 78 
3 79 88 84 
3 79 84 77 
3 305 193 90 
3 305 90 80 
3 95 94 83 
3 95 83 82 
3 117 116 113 
3 117 113 112 
3 242 241 135 
3 242 135 134 
3 148 149 153 
3 148 153 152 
3 165 168 167 
3 165 167 166 
3 149 26 34 
3 149 34 153 
3 167 95 82 
3 167 82 166 
3 306 307 308 
3 306 308 309 
3 94 193 305 
3 94 305 83 
3 28 15 201 
3 28 201 198 
3 78 87 204 
3 78 204 202 
3 198 201 213 
3 198 213 210 
3 204 216 214 
3 204 214 202 
3 210 213 224 
3 210 224 221 
3 216 227 225 
3 216 225 214 
3 224 234 231 
3 224 231 221 
3 227 237 235 
3 227 235 225 
3 234 242 134 
3 234 134 231 
3 237 136 135 
3 237 135 235 
3 20 18 30 
3 20 30 31 
3 81 93 88 
3 81 88 79 
3 109 148 152 
3 109 152 112 
3 113 116 168 
3 113 168 165 
3 272 283 196 
3 272 196 269 
3 271 284 283 
3 271 283 272 
3 127 126 274 
3 127 274 273 
3 205 127 273 
3 205 273 275 
3 206 205 275 
3 206 275 276 
3 277 128 206 
3 277 206 276 
3 278 129 128 
3 278 128 277 
3 279 285 129 
3 279 129 278 
3 123 197 280 
3 123 280 289 
3 126 284 271 
3 126 271 274 
3 282 285 279 
3 282 279 281 
3 124 123 289 
3 124 289 288 
3 125 124 288 
3 125 288 290 
3 270 122 125 
3 270 125 290 
3 291 142 139 
3 291 139 292 
3 294 293 99 
3 294 99 98 
3 293 295 102 
3 293 102 99 
3 295 296 286 
3 295 286 102 
3 296 297 287 
3 296 287 286 
3 297 298 103 
3 297 103 287 
3 298 299 100 
3 298 100 103 
3 299 300 101 
3 299 101 100 
3 300 301 143 
3 300 143 101 
3 303 302 141 
3 303 141 140 
3 302 304 138 
3 302 138 141 
3 304 292 139 
3 304 139 138 
3 178 179 7 
3 178 7 22 
3 21 180 178 
3 21 178 22 
3 32 181 180 
3 32 180 21 
3 42 183 182 
3 42 182 43 
3 310 311 312 
3 310 312 313 
3 188 187 70 
3 188 70 69 
3 187 305 80 
3 187 80 70 
3 193 194 91 
3 193 91 90 
3 195 186 55 
3 195 55 8 
3 283 282 197 
3 283 197 196 
3 184 183 42 
3 184 42 246 
3 252 249 92 
3 252 92 91 
3 251 263 260 
3 251 260 252 
3 246 245 268 
3 246 268 266 
3 268 272 269 
3 268 269 266 
3 260 263 289 
3 260 289 280 
3 43 182 181 
3 43 181 32 
3 93 81 80 
3 93 80 90 
3 122 270 269 
3 122 269 196 
3 197 282 281 
3 197 281 280 
3 1 14 17 
3 1 17 2 
3 2 17 19 
3 2 19 4 
3 23 22 7 
3 23 7 6 
3 10 24 27 
3 10 27 11 
3 64 63 52 
3 64 52 51 
3 67 64 51 
3 67 51 54 
3 56 69 72 
3 56 72 57 
3 74 73 61 
3 74 61 60 
3 108 111 105 
3 108 105 104 
3 98 101 143 
3 98 143 142 
3 171 172 147 
3 171 147 146 
3 158 162 161 
3 158 161 159 
3 172 12 11 
3 172 11 147 
3 161 74 60 
3 161 60 159 
3 13 195 179 
3 13 179 10 
3 61 73 188 
3 61 188 185 
3 9 5 4 
3 9 4 6 
3 57 72 67 
3 57 67 54 
3 1 0 294 
3 1 294 291 
3 63 303 301 
3 63 301 52 
3 107 171 146 
3 107 146 104 
3 105 111 162 
3 105 162 158 
3 294 98 142 
3 294 142 291 
3 301 303 140 
3 301 140 143 
3 314 315 316 
3 314 316 317 
3 188 69 56 
3 188 56 185 
3 186 185 318 
3 186 318 319 
3 185 56 320 
3 185 320 318 
3 56 55 321 
3 56 321 320 
3 55 186 319 
3 55 319 321 
3 195 8 322 
3 195 322 323 
3 8 7 324 
3 8 324 322 
3 7 179 325 
3 7 325 324 
3 179 195 323 
3 179 323 325 
3 319 318 326 
3 319 326 327 
3 318 320 328 
3 318 328 326 
3 320 321 329 
3 320 329 328 
3 321 319 327 
3 321 327 329 
3 323 322 330 
3 323 330 331 
3 322 324 332 
3 322 332 330 
3 324 325 333 
3 324 333 332 
3 325 323 331 
3 325 331 333 
3 327 326 312 
3 327 312 311 
3 326 328 313 
3 326 313 312 
3 328 329 310 
3 328 310 313 
3 329 327 311 
3 329 311 310 
3 331 330 316 
3 331 316 315 
3 330 332 317 
3 330 317 316 
3 332 333 314 
3 332 314 317 
3 333 331 315 
3 333 315 314 
3 187 76 334 
3 187 334 335 
3 76 83 336 
3 76 336 334 
3 83 305 337 
3 83 337 336 
3 305 187 335 
3 305 335 337 
3 25 180 338 
3 25 338 339 
3 338 180 181 
3 338 181 340 
3 181 33 341 
3 181 341 340 
3 33 25 339 
3 33 339 341 
3 366 367 342 
3 366 342 343 
3 367 368 344 
3 367 344 342 
3 368 369 345 
3 368 345 344 
3 369 366 343 
3 369 343 345 
3 370 371 346 
3 370 346 347 
3 371 372 348 
3 371 348 346 
3 372 373 349 
3 372 349 348 
3 373 370 347 
3 373 347 349 
3 343 342 350 
3 343 350 351 
3 342 344 352 
3 342 352 350 
3 344 345 353 
3 344 353 352 
3 345 343 351 
3 345 351 353 
3 347 346 354 
3 347 354 355 
3 346 348 356 
3 346 356 354 
3 348 349 357 
3 348 357 356 
3 349 347 355 
3 349 355 357 
3 351 350 358 
3 351 358 359 
3 350 352 360 
3 350 360 358 
3 352 353 361 
3 352 361 360 
3 353 351 359 
3 353 359 361 
3 355 354 362 
3 355 362 363 
3 354 356 364 
3 354 364 362 
3 356 357 365 
3 356 365 364 
3 357 355 363 
3 357 363 365 
3 359 358 192 
3 359 192 191 
3 358 360 189 
3 358 189 192 
3 360 361 190 
3 360 190 189 
3 361 359 191 
3 361 191 190 
3 363 362 306 
3 363 306 309 
3 362 364 307 
3 362 307 306 
3 364 365 308 
3 364 308 307 
3 365 363 309 
3 365 309 308 
