ply
format ascii 1.0
comment VCGLIB generated
comment TextureFile TropicalFish02.jpg
element vertex 260
property float x
property float y
property float z
property float nx
property float ny
property float nz
property float texture_u
property float texture_v
element face 476
property list uchar int vertex_indices
end_header
0.102268 -0.164496 0.0131715 1.17081 -2.66689 3.51061 0.3731 0.2968
0.161287 -0.13129 0.0131715 2.05508 -3.35078 4.1799 0.3209 0.3257
0.0865575 -0.143737 0.0809646 1.70235 -3.52689 3.76729 0.387 0.3149
0.0472861 -0.181545 0.0131715 0.77332 -3.43733 4.25362 0.4217 0.2819
-0.0281371 -0.139051 0.0951063 0.79517 -3.34886 4.45184 0.4885 0.3189
-0.024753 -0.197544 0.0131715 0.423009 -3.72469 4.3886 0.4855 0.268
-0.138736 -0.215156 0.0131715 0.141394 -5.87397 2.66829 0.5864 0.2527
-0.136131 -0.144339 0.109248 0.395077 -3.46957 4.56501 0.5841 0.3143
-0.212483 -0.143192 0.109248 2.07222 -3.88948 3.0703 0.6516 0.3153
-0.169599 -0.218298 0.0131715 1.10071 -4.76829 3.4299 0.6137 0.2499
-0.306151 -0.143785 0.0883268 -2.08059 -3.18069 5.56366 0.7345 0.3148
-0.369434 -0.146996 0.0685374 -2.45472 -2.05819 4.70485 0.7905 0.312
-0.367547 -0.198685 0.0167498 -1.84831 -4.77743 2.05802 0.7889 0.267
-0.313718 -0.214781 0.0131715 -1.29489 -5.04652 2.02625 0.7412 0.253
0.254081 -0.0796696 0.0174348 3.10867 -4.94537 4.939 0.2405 0.3759
0.131806 -0.0984576 0.0704742 1.75706 -1.54081 4.06574 0.3469 0.3543
-0.0263923 -0.0855676 0.113116 1.1458 -0.422435 5.78279 0.4869 0.3655
-0.13309 -0.0912485 0.129936 0.586795 -0.413851 6.71285 0.5814 0.3606
-0.205335 -0.0901406 0.129936 1.13317 0.581659 6.50263 0.6453 0.3615
-0.314749 -0.0903989 0.105053 -2.32667 0.0155523 5.38103 0.7421 0.3613
-0.371369 -0.0891295 0.0685374 -2.65746 -0.602361 5.32025 0.7922 0.3624
0.254589 -0.034386 0.029481 1.47686 0.0754317 5.62395 0.2383 0.4101
0.16496 -0.027264 0.0640532 2.26991 1.4526 7.23859 0.3176 0.4163
-0.0191516 -0.024209 0.10281 1.01291 1.67898 5.56963 0.4805 0.419
-0.124334 -0.0211541 0.118098 0.279217 1.66677 4.63078 0.5736 0.4216
-0.193307 -0.0234947 0.118098 -0.0200472 1.41694 4.74256 0.6347 0.4196
-0.306875 -0.029623 0.0954815 -1.52201 1.47584 4.45205 0.7352 0.4142
-0.388544 -0.0321233 0.0685376 -2.00815 0.513787 4.4462 0.8074 0.4121
0.254438 -0.0119004 0.0234578 1.24916 1.30577 5.63214 0.2384 0.4297
0.160911 0.0252615 0.038275 0.994101 1.75938 4.53516 0.3212 0.462
-0.0171911 0.0586071 0.0600971 0.979201 2.75356 5.23296 0.4788 0.4911
-0.113328 0.0766451 0.0678951 0.589171 3.57966 5.95075 0.5639 0.5068
-0.162666 0.0772121 0.0678951 0.0211967 3.51503 6.03097 0.6075 0.5073
-0.294472 0.0549366 0.0569804 -1.2699 2.59105 5.24259 0.7242 0.4879
-0.395575 0.0251435 0.0495681 -2.6157 2.33009 5.94524 0.8137 0.4619
0.102268 -0.164496 -0.0131715 1.26274 -2.7032 -3.48285 0.3731 0.2968
0.0472861 -0.181545 -0.0131715 0.828126 -3.45273 -4.24417 0.4217 0.2819
0.0865575 -0.143737 -0.0809646 1.70235 -3.52688 -3.76729 0.387 0.3149
0.161287 -0.13129 -0.0131715 2.1851 -3.54655 -4.0377 0.3209 0.3257
-0.024753 -0.197544 -0.0131715 0.475925 -4.01472 -5.34415 0.4855 0.268
-0.0281371 -0.139051 -0.0951065 0.795173 -3.34885 -4.45184 0.4885 0.3189
-0.138736 -0.215156 -0.0131715 0.307152 -5.87091 -2.66829 0.5864 0.2527
-0.169599 -0.218298 -0.0131715 1.4841 -2.32855 -2.66385 0.6137 0.2499
-0.212483 -0.143192 -0.109248 1.11364 -4.64326 -3.60091 0.6516 0.3153
-0.136131 -0.144339 -0.109248 0.395073 -3.46956 -4.56501 0.5841 0.3143
-0.367547 -0.198685 -0.0167501 -2.03171 -4.70208 -2.05803 0.7889 0.267
-0.369434 -0.146996 -0.0685376 -2.45471 -2.05819 -4.70485 0.7905 0.312
-0.306151 -0.143785 -0.0883268 -2.08059 -3.18068 -5.56366 0.7345 0.3148
-0.313718 -0.214781 -0.0131715 -1.36202 -5.02896 -2.02625 0.7412 0.253
0.131806 -0.0984576 -0.0704742 1.75706 -1.54081 -4.06574 0.3469 0.3543
0.254081 -0.0796696 -0.0174348 3.4665 -4.37672 -5.12125 0.2405 0.3759
-0.0263923 -0.0855676 -0.113116 1.14581 -0.422435 -5.78279 0.4869 0.3655
-0.205335 -0.0901406 -0.129936 2.03798 -0.017162 -5.53397 0.6453 0.3615
-0.13309 -0.0912485 -0.129936 0.586793 -0.413854 -6.71286 0.5814 0.3606
-0.371369 -0.0891293 -0.0685376 -2.65745 -0.602353 -5.32026 0.7922 0.3624
-0.314749 -0.0903989 -0.105053 -2.32668 0.0155557 -5.38103 0.7421 0.3613
0.16496 -0.027264 -0.0640532 2.26991 1.45258 -7.23859 0.3176 0.4163
0.254589 -0.034386 -0.029481 1.30182 0.300886 -4.66556 0.2383 0.4101
-0.0191516 -0.024209 -0.10281 1.01291 1.67897 -5.56963 0.4805 0.419
-0.193307 -0.0234947 -0.118098 -0.0200469 1.41693 -4.74256 0.6347 0.4196
-0.124334 -0.0211541 -0.118098 0.279216 1.66677 -4.63078 0.5736 0.4216
-0.388542 -0.0321233 -0.0685376 -2.00814 0.513796 -4.4462 0.8074 0.4121
-0.306875 -0.029623 -0.0954815 -1.52202 1.47584 -4.45204 0.7352 0.4142
0.160911 0.0252615 -0.0382752 0.994103 1.75939 -4.53516 0.3212 0.462
0.254438 -0.0119004 -0.023458 1.24916 1.30576 -5.63214 0.2384 0.4297
-0.0171911 0.0586071 -0.0600973 0.979201 2.75357 -5.23296 0.4788 0.4911
-0.162666 0.0772121 -0.0678951 0.021197 3.51504 -6.03097 0.6075 0.5073
-0.113328 0.0766451 -0.0678951 0.589167 3.57966 -5.95075 0.5639 0.5068
-0.395575 0.0251435 -0.0495681 -2.61569 2.33009 -5.94524 0.8137 0.4619
-0.294472 0.0549366 -0.0569804 -1.26991 2.59105 -5.24259 0.7242 0.4879
0.0996436 -0.194973 0.00287522 1.74779 -3.70908 2.78279 0.3754 0.2702
0.0323481 -0.22105 0.00287522 0.762621 -2.82446 2.84776 0.435 0.2475
0.0323481 -0.22105 -0.00287522 1.20208 -4.73262 -2.85721 0.435 0.2475
0.0996436 -0.194973 -0.00287522 1.81272 -3.59561 -2.81055 0.3754 0.2702
-0.0267541 -0.228978 0.00287522 0.223184 -4.03875 2.78222 0.4873 0.2406
-0.0267541 -0.228978 -0.00287522 -0.130798 -3.74338 -1.82667 0.4873 0.2406
-0.465489 -0.126413 0.0131715 -3.84671 -3.64266 1.51858 0.8755 0.33
-0.5 -0.0869088 0.0131715 -2.58371 0.721285 1.69638 0.905 0.3674
-0.5 -0.0869088 -0.0131715 -2.82655 -0.796653 -1.69638 0.9132 0.3681
-0.465489 -0.126413 -0.0131715 -2.39975 -2.26464 -1.51858 0.898 0.3149
-0.483373 -0.0770437 0.0131715 -3.50211 -0.576657 3.67511 0.8914 0.3729
-0.483373 -0.0770437 -0.0131715 -3.24773 0.927807 -3.67511 0.8914 0.3729
-0.499989 -0.0573272 0.0131715 -2.98772 -0.158958 2.66483 0.9038 0.3929
-0.499989 -0.0573272 -0.0131715 -4.6947 -0.468693 -2.66482 0.9038 0.3929
-0.495112 -0.0435924 0.0131715 -4.27021 1.95669 2.44507 0.9018 0.4021
-0.495112 -0.0435924 -0.0131715 -4.21912 2.07556 -2.44506 0.9018 0.4021
-0.450825 0.0222124 0.0147874 -4.44633 3.27082 3.1025 0.8823 0.4808
-0.450825 0.0222124 -0.0147875 -4.41194 3.31498 -3.1025 0.8634 0.4611
-0.485934 -0.0255583 -0.0131715 -3.02918 1.97305 -0.78144 0.9011 0.418
-0.485934 -0.0255583 0.0131715 -3.11461 1.83441 0.781445 0.9199 0.4377
-0.121901 0.24746 0.00287522 0.19281 2.96267 4 0.5696 0.6632
-0.121901 0.24746 -0.00287522 -0.111659 2.96683 -3 0.5696 0.6632
-0.147932 0.251835 -0.00287522 -0.295007 2.75173 -2 0.5926 0.667
-0.147932 0.251835 0.00287522 -1.08729 2.54497 1 0.5926 0.667
0.186441 0.168976 0.00287501 1.92285 3.49675 1.99997 0.2938 0.5939
0.268023 0.113886 0.00287503 1.327 1.51583 2.99973 0.2235 0.544
0.268023 0.113886 -0.0028752 2.63887 2.99598 -1.99976 0.2235 0.544
0.186441 0.168976 -0.00287522 0.960702 1.7604 -2.99994 0.2938 0.5939
0.496404 0.0128743 0.00625043 2.89138 -0.560745 2.9998 0.0313 0.4522
0.496404 0.0128743 -0.00625061 2.78093 -0.967362 -2.9998 0.0313 0.4522
0.5 0.0807473 -0.00625061 2.01221 0.894216 -0.999983 0.0211 0.5104
0.5 0.0807473 0.00625043 1.03443 1.94693 0.999983 0.0211 0.5104
0.466682 -0.0445674 0.0060184 3.74523 -1.66286 2.99637 0.0506 0.4012
0.428924 -0.137331 0.00774266 0.922109 -1.35891 1.99339 0.0805 0.3309
0.428924 -0.137331 -0.00774262 1.60051 -2.72399 -0.996693 0.0805 0.3309
0.466682 -0.0445674 -0.00601858 2.01208 -0.824268 -3.99306 0.0506 0.4012
0.224841 -0.107177 0.00287522 2.93634 -3.56637 0.776144 0.2646 0.3467
0.158663 -0.159217 0.00287522 2.51346 -3.91339 2.47063 0.3232 0.3014
0.158663 -0.159217 -0.00287522 2.48341 -3.64841 -2.61283 0.3232 0.3014
0.224841 -0.107177 -0.00287522 1.96268 -2.58945 -1.55229 0.2646 0.3467
-0.422475 -0.126273 0.0402404 -2.55301 -1.2718 4.9547 0.8375 0.3301
-0.418798 -0.171403 0.0147874 -3.02977 -4.06844 2.12144 0.8342 0.2908
-0.424629 -0.0890017 0.0402404 -2.1446 -0.252397 4.47249 0.8394 0.3625
-0.439155 -0.0385166 0.0402404 -3.11569 -0.070388 6.14799 0.8522 0.4065
-0.452512 -0.00650521 0.0275139 -2.3869 1.2494 4.17485 0.8641 0.4344
-0.422475 -0.126273 -0.0402407 -2.55301 -1.2718 -4.9547 0.8375 0.3301
-0.418798 -0.171403 -0.0147875 -3.25376 -3.90581 -2.12144 0.8342 0.2908
-0.424629 -0.0890017 -0.0402407 -2.14459 -0.252395 -4.47249 0.8394 0.3625
-0.439155 -0.0385166 -0.0402407 -3.11568 -0.0703822 -6.148 0.8522 0.4065
-0.452512 -0.00650521 -0.0275142 -2.3869 1.2494 -4.17484 0.8641 0.4344
-0.387646 0.0987956 0.0167498 -2.90775 3.36273 2.55289 0.8276 0.5483
-0.387646 0.0987956 -0.0167501 -2.61242 3.60578 -2.5529 0.8088 0.5287
-0.264002 0.16573 0.0131715 -1.83296 4.32442 3.57185 0.7122 0.5968
-0.264002 0.16573 -0.0131715 -1.88012 4.29721 -3.57185 0.7007 0.5879
-0.252451 -0.142046 0.109248 -1.33234 -5.44454 4.97482 0.687 0.3163
-0.257779 -0.227358 0.0131715 -0.768947 -5.02556 2.0805 0.6917 0.242
-0.258823 -0.0890328 0.129936 -2.45364 -0.5288 5.67595 0.6926 0.3625
-0.241077 -0.0258356 0.118098 -1.29207 2.62481 7.25733 0.6769 0.4175
-0.212003 0.0777792 0.0678951 -0.473808 2.43377 4.30402 0.6512 0.5078
-0.192553 0.156593 0.0131715 0.0412595 2.67758 5.31759 0.6306 0.5821
-0.252451 -0.142046 -0.109248 -2.09385 -4.89518 -5.11361 0.687 0.3163
-0.257779 -0.227358 -0.0131715 -0.636887 -5.66763 -2.84654 0.6917 0.242
-0.258823 -0.0890328 -0.129936 -1.63835 0.274441 -5.9752 0.6926 0.3625
-0.241077 -0.0258356 -0.118098 -1.29208 2.62481 -7.25733 0.6769 0.4175
-0.212003 0.0777792 -0.0678951 -0.47381 2.43377 -4.30402 0.6512 0.5078
-0.0874696 0.252282 0.00287522 -0.416123 2.971 3 0.5391 0.6674
-0.0874696 0.252282 -0.00287522 -0.416117 2.971 -3 0.5391 0.6674
0.294742 -0.0725386 0.0131715 -0.200311 -3.44189 2.90405 0.2036 0.3856
0.294612 -0.040608 0.0192214 0.49045 -0.302395 4.89536 0.2029 0.4047
0.294742 -0.0725386 -0.0131715 0.21135 -3.43124 -2.93292 0.2036 0.3856
0.294612 -0.040608 -0.0192214 0.630561 -0.372638 -4.8665 0.2029 0.4047
0.304769 -0.01822 -0.0161965 0.633973 0.611326 -5.91264 0.1939 0.4242
0.309379 0.0667361 0.00287503 2.44275 1.76517 1.99959 0.1898 0.4982
0.309379 0.0667361 -0.0028752 2.59708 1.5288 -1.99959 0.1898 0.4982
0.304769 -0.01822 0.0161965 0.633973 0.611324 5.91264 0.1939 0.4242
0.325913 0.0156597 0.0131715 2.16353 1.8253 4.72541 0.1752 0.4537
0.253957 0.0460417 0.0174348 1.22764 2.29831 5.2132 0.2388 0.4801
0.32695 -0.0857309 0.0109826 -1.34786 -2.99398 2.97079 0.1725 0.3754
0.34506 -0.0398644 0.0165286 0.29737 -0.13732 5.9658 0.1582 0.4053
0.32695 -0.0857309 -0.0109825 -1.17928 -2.99809 -2.97979 0.1725 0.3754
0.34506 -0.0398644 -0.0165287 0.290153 -0.217193 -5.9568 0.1582 0.4053
0.362569 -0.00652162 -0.0137555 0.326347 0.262681 -5.97796 0.1427 0.4344
0.325913 0.0156597 -0.0131715 1.04136 3.33849 -5.47532 0.1752 0.4537
0.362245 0.0312982 0.0109826 -1.15705 2.87488 2.99502 0.143 0.4673
0.362245 0.0312982 -0.0109825 -1.20885 2.85081 -2.99502 0.143 0.4673
0.362569 -0.00652162 0.0137556 0.326344 0.262672 5.97796 0.1427 0.4344
0.358235 -0.105824 0.0109826 -1.3958 -2.72644 2.99169 0.1422 0.357
0.388688 -0.0512007 0.0109826 0.413875 -0.0748391 5.98012 0.1196 0.3955
0.358235 -0.105824 -0.0109825 -1.44867 -2.6113 -2.99459 0.1422 0.357
0.388688 -0.0512007 -0.0109825 0.416124 -0.159538 -5.97723 0.1196 0.3955
0.399071 0.00383509 -0.0109825 0.408035 0.0389902 -5.98186 0.1104 0.4434
0.394824 0.0475856 0.0109826 -1.16944 2.71104 2.99244 0.1142 0.4815
0.394824 0.0475856 -0.0109825 -1.18592 2.70261 -2.99244 0.1142 0.4815
0.399071 0.00383509 0.0109826 0.408041 0.0389909 5.98186 0.1104 0.4434
0.408037 -0.133802 0.0109826 -0.661905 -2.82315 2.99501 0.099 0.3339
0.426763 -0.0520169 0.00774266 0.390874 -0.0133148 5.98483 0.0859 0.3947
0.408037 -0.133802 -0.0109825 -0.943781 -2.71626 -2.99255 0.099 0.3339
0.426763 -0.0520169 -0.00774262 0.349527 -0.00602962 -5.9873 0.0859 0.3947
0.456058 0.00134163 -0.00601858 0.276979 -0.00631762 -5.9893 0.06 0.4412
0.459795 0.0815843 0.0060184 -0.837016 2.77274 2.99668 0.0567 0.5111
0.459795 0.0815843 -0.00601858 -0.352561 2.8865 -2.99668 0.0567 0.5111
0.456058 0.00134163 0.0060184 0.276993 -0.00631523 5.9893 0.06 0.4412
0.162 0.088512 0.0131715 1.08929 2.61348 5.2415 0.3154 0.5276
0.00401918 0.132152 0.0131715 0.824375 3.19649 6.15524 0.4562 0.5675
-0.102844 0.152161 0.0131715 0.285802 2.31627 4.39208 0.5512 0.5782
-0.147698 0.154377 0.0131715 0.129455 2.8608 5.22683 0.5909 0.5801
0.162 0.088512 -0.0131715 0.841935 2.08164 -4.43159 0.3154 0.5276
0.253957 0.0460417 -0.0174348 1.20183 2.22763 -5.27322 0.2388 0.4801
-0.102844 0.152161 -0.0131715 0.285802 2.31628 -4.39208 0.5512 0.5782
0.00401918 0.132152 -0.0131715 0.824374 3.1965 -6.15524 0.4562 0.5675
-0.192553 0.156593 -0.0131715 0.0412598 2.67758 -5.31759 0.6306 0.5821
-0.147698 0.154377 -0.0131715 0.129455 2.8608 -5.22683 0.5909 0.5801
0.259812 0.0572834 0.00380578 0.800502 1.69748 5.36928 0.2337 0.4899
0.168584 0.107919 0.00287522 0.483972 1.39887 6.60411 0.3096 0.5445
0.325788 0.0315973 0.00287525 3.37504 2.07066 2.4996 0.1753 0.4676
0.325788 0.0315973 -0.0028752 3.19575 1.05292 -1.7497 0.1753 0.4676
0.259812 0.0572834 -0.00380596 0.82582 1.77616 -6.30925 0.2337 0.4899
0.168584 0.107919 -0.00287522 0.731796 1.92268 -6.41406 0.3096 0.5445
0.0115153 0.152233 -0.00287522 0.200157 0.839432 -4.80379 0.4496 0.585
-0.134158 0.178533 -0.00287522 0.0798611 1.15093 -5.76906 0.5789 0.6012
-0.100899 0.175328 -0.00287522 0.189899 1.21926 -5.73315 0.5495 0.5984
-0.226095 0.189004 -0.00287522 -1.68984 3.09668 -2.8768 0.6637 0.6047
-0.167417 0.181737 -0.00287522 0.0943123 1.07919 -5.79721 0.6084 0.604
-0.226095 0.189004 0.00287522 -1.58653 3.16947 3.8768 0.6564 0.6156
-0.167417 0.181737 0.00287522 0.0943118 1.07919 4.79721 0.6084 0.604
-0.134158 0.178533 0.00287522 0.0798605 1.15093 5.76906 0.5789 0.6012
0.0115153 0.152233 0.00287522 0.200158 0.839433 4.80379 0.4496 0.585
-0.100899 0.175328 0.00287522 0.189899 1.21926 5.73315 0.5495 0.5984
0.0670331 0.221406 0.00287522 0.972006 2.83269 3 0.4024 0.6405
-0.0530385 0.257104 0.00287522 0.00757789 2.9392 3 0.5086 0.6716
0.0670331 0.221406 -0.00287522 1.08905 2.78978 -3 0.4024 0.6405
-0.0530385 0.257104 -0.00287522 0.431266 2.9074 -3 0.5086 0.6716
-0.0889174 -0.218377 0.00287522 -0.361645 -3.95084 1.74223 0.5423 0.2499
-0.0889174 -0.218377 -0.00287522 -0.258044 -3.96298 -1.74223 0.5423 0.2499
-0.089962 -0.138933 0.180176 1.23505 2.2743 -0.604307 0.7839 0.1219
-0.0846159 -0.145541 0.177124 0.211375 -1.62088 0.989692 0.7839 0.1213
-0.11584 -0.145336 0.156922 1.06329 -0.903035 -2.3608 0.7896 0.1242
-0.112661 -0.139371 0.159152 1.06049 1.95223 -2.60839 0.7896 0.1241
-0.11584 -0.145336 -0.156922 1.37708 0.368387 3.31971 0.7896 0.1242
-0.0846159 -0.145541 -0.177124 0.202878 -2.09846 -0.1581 0.7839 0.1213
-0.089962 -0.138933 -0.180176 1.00502 0.766353 -0.244319 0.7839 0.1219
-0.112661 -0.139371 -0.159152 0.985225 2.66644 1.66646 0.7896 0.1241
-0.142661 -0.257104 -0.00742108 -0.0894748 2.04449 1.80683 0.5898 0.2161
-0.142661 -0.257104 0.00742108 0.368132 2.46431 -0.903417 0.5898 0.2161
-0.127983 -0.252444 0.00742108 -1.15075 0.464935 -1.80683 0.5768 0.2202
-0.127983 -0.252444 -0.00742108 -1.75443 -0.694808 0.903417 0.5768 0.2202
-0.215978 -0.238143 0.00287522 -0.487432 -4.18856 2.5321 0.6547 0.2326
-0.161246 -0.224342 0.00287522 1.73977 1.8705 2.76605 0.6063 0.2447
-0.215978 -0.238143 -0.00287522 -0.618527 -3.5467 -2.76605 0.6547 0.2326
-0.161246 -0.224342 -0.00287522 1.72096 1.31048 -2.5321 0.6063 0.2447
-0.182377 -0.245733 0.00287522 0.450406 0.535759 2.90342 0.625 0.226
-0.1422 -0.234367 0.00287522 0.386125 0.328425 2.80683 0.5894 0.2359
-0.182377 -0.245733 -0.00287522 0.0750729 -1.8126 -2.80683 0.625 0.226
-0.1422 -0.234367 -0.00287522 -0.985988 -0.763063 -2.90342 0.5894 0.2359
-0.232476 -0.128638 0.139619 -2.10773 -4.08498 2.00227 0.6693 0.328
-0.236486 -0.114523 0.145445 -1.39223 0.435977 4.06976 0.6729 0.3403
-0.210601 -0.128917 0.132896 1.61844 -2.43614 -1.16789 0.65 0.3278
-0.205967 -0.11477 0.138387 2.6981 2.27624 0.470947 0.6459 0.3401
-0.232476 -0.128638 -0.139619 -1.7449 -4.18339 -2.70746 0.6693 0.328
-0.210601 -0.128917 -0.132897 2.15407 -2.90474 0.939521 0.65 0.3278
-0.236486 -0.114523 -0.145445 -1.56371 1.096 -3.41273 0.6729 0.3403
-0.205967 -0.11477 -0.138387 1.97111 2.18322 -0.194391 0.6459 0.3401
-0.177297 -0.13766 0.169464 -1.41955 -4.55046 2.1144 0.8329 0.1095
-0.182644 -0.131052 0.173014 -0.283597 1.29013 3.05742 0.8323 0.1095
-0.155337 -0.137456 0.150939 0.419841 -2.16483 -3.08202 0.8272 0.126
-0.152158 -0.13149 0.153553 1.25117 3.67146 -2.42991 0.8275 0.1256
-0.177297 -0.13766 -0.169464 -1.01237 -4.52381 -2.10202 0.8329 0.1095
-0.155337 -0.137456 -0.150939 0.528989 -2.21384 2.88208 0.8272 0.126
-0.182644 -0.131052 -0.173014 -0.697365 1.33484 -2.56657 0.8323 0.1095
-0.152158 -0.13149 -0.153553 1.14861 3.64913 2.12661 0.8275 0.1256
-0.367547 -0.198685 -0.0167501 -2.03171 -4.70208 -2.05803 0.8013 0.2494
-0.313718 -0.214781 -0.0131715 -1.36202 -5.02896 -2.02625 0.7537 0.2354
-0.5 -0.0869088 -0.0131715 -2.82655 -0.796653 -1.69638 0.905 0.3674
-0.450825 0.0222124 0.0147874 -4.44633 3.27082 3.1025 0.8634 0.4611
-0.485934 -0.0255583 0.0131715 -3.11461 1.83441 0.781445 0.9011 0.418
-0.465489 -0.126413 -0.0131715 -2.39975 -2.26464 -1.51858 0.8755 0.33
-0.418798 -0.171403 -0.0147875 -3.25376 -3.90581 -2.12144 0.8467 0.2732
-0.387646 0.0987956 0.0167498 -2.90775 3.36273 2.55289 0.8088 0.5287
-0.264002 0.16573 0.0131715 -1.83296 4.32442 3.57185 0.7007 0.5879
-0.257779 -0.227358 -0.0131715 -0.636887 -5.66763 -2.84654 0.7042 0.2244
-0.495112 -0.0435924 0.0131715 -4.27021 1.95669 2.44507 0.9185 0.4297
-0.226095 0.189004 0.00287522 -1.58653 3.16947 3.8768 0.6637 0.6047
-0.236486 -0.114523 0.145445 -1.39223 0.435977 4.06976 0.9098 0.1486
-0.232476 -0.128638 0.139619 -2.10773 -4.08498 2.00227 0.9066 0.1464
-0.210601 -0.128917 0.132896 1.61844 -2.43614 -1.16789 0.893 0.1542
-0.205967 -0.11477 0.138387 2.6981 2.27624 0.470947 0.8912 0.1552
-0.210601 -0.128917 -0.132897 2.15407 -2.90474 0.939521 0.893 0.1542
-0.232476 -0.128638 -0.139619 -1.7449 -4.18339 -2.70746 0.9066 0.1464
-0.236486 -0.114523 -0.145445 -1.56371 1.096 -3.41273 0.9098 0.1486
-0.205967 -0.11477 -0.138387 1.97111 2.18322 -0.194391 0.8912 0.1552
3 0 1 2 
3 0 2 3 
3 3 2 4 
3 3 4 5 
3 6 7 8 
3 6 8 9 
3 10 11 12 
3 10 12 13 
3 1 14 15 
3 1 15 2 
3 2 15 16 
3 2 16 4 
3 7 17 18 
3 7 18 8 
3 10 19 20 
3 10 20 11 
3 14 21 22 
3 14 22 15 
3 22 23 16 
3 22 16 15 
3 17 24 25 
3 17 25 18 
3 19 26 27 
3 19 27 20 
3 28 29 22 
3 28 22 21 
3 22 29 30 
3 22 30 23 
3 24 31 32 
3 24 32 25 
3 26 33 34 
3 26 34 27 
3 35 36 37 
3 35 37 38 
3 36 39 40 
3 36 40 37 
3 41 42 43 
3 41 43 44 
3 45 46 47 
3 45 47 48 
3 38 37 49 
3 38 49 50 
3 37 40 51 
3 37 51 49 
3 44 43 52 
3 44 52 53 
3 47 46 54 
3 47 54 55 
3 50 49 56 
3 50 56 57 
3 51 58 56 
3 51 56 49 
3 53 52 59 
3 53 59 60 
3 55 54 61 
3 55 61 62 
3 56 63 64 
3 56 64 57 
3 56 58 65 
3 56 65 63 
3 60 59 66 
3 60 66 67 
3 62 61 68 
3 62 68 69 
3 70 71 72 
3 70 72 73 
3 74 75 72 
3 74 72 71 
3 9 42 41 
3 9 41 6 
3 12 240 241 
3 12 241 13 
3 76 77 78 
3 76 78 79 
3 77 80 81 
3 77 81 242 
3 80 82 83 
3 80 83 81 
3 84 85 83 
3 84 83 82 
3 86 87 88 
3 86 88 89 
3 90 91 92 
3 90 92 93 
3 94 95 96 
3 94 96 97 
3 98 99 100 
3 98 100 101 
3 102 103 104 
3 102 104 105 
3 106 107 108 
3 106 108 109 
3 107 70 73 
3 107 73 108 
3 110 77 76 
3 110 76 111 
3 80 77 110 
3 80 110 112 
3 113 82 80 
3 113 80 112 
3 84 114 243 
3 84 243 244 
3 245 242 115 
3 245 115 116 
3 115 242 81 
3 115 81 117 
3 81 83 118 
3 81 118 117 
3 83 85 119 
3 83 119 118 
3 76 79 246 
3 76 246 111 
3 120 121 87 
3 120 87 86 
3 11 110 111 
3 11 111 12 
3 112 110 11 
3 112 11 20 
3 113 112 20 
3 113 20 27 
3 243 114 34 
3 243 34 247 
3 116 115 46 
3 116 46 45 
3 46 115 117 
3 46 117 54 
3 54 117 118 
3 54 118 61 
3 118 119 68 
3 118 68 61 
3 111 246 240 
3 111 240 12 
3 122 123 121 
3 122 121 120 
3 124 10 13 
3 124 13 125 
3 126 19 10 
3 126 10 124 
3 127 26 19 
3 127 19 126 
3 248 33 128 
3 248 128 129 
3 48 47 130 
3 48 130 131 
3 47 55 132 
3 47 132 130 
3 55 62 133 
3 55 133 132 
3 133 62 69 
3 133 69 134 
3 13 241 249 
3 13 249 125 
3 135 136 91 
3 135 91 90 
3 21 14 137 
3 21 137 138 
3 14 50 139 
3 14 139 137 
3 50 57 140 
3 50 140 139 
3 57 64 141 
3 57 141 140 
3 96 95 142 
3 96 142 143 
3 28 144 145 
3 28 145 146 
3 138 137 147 
3 138 147 148 
3 137 139 149 
3 137 149 147 
3 139 140 150 
3 139 150 149 
3 141 151 150 
3 141 150 140 
3 152 145 153 
3 152 153 154 
3 145 144 155 
3 145 155 153 
3 148 147 156 
3 148 156 157 
3 147 149 158 
3 147 158 156 
3 149 150 159 
3 149 159 158 
3 151 160 159 
3 151 159 150 
3 154 153 161 
3 154 161 162 
3 153 155 163 
3 153 163 161 
3 157 156 164 
3 157 164 165 
3 156 158 166 
3 156 166 164 
3 158 159 167 
3 158 167 166 
3 160 168 167 
3 160 167 159 
3 162 161 169 
3 162 169 170 
3 161 163 171 
3 161 171 169 
3 165 164 103 
3 165 103 102 
3 164 166 104 
3 164 104 103 
3 166 167 105 
3 166 105 104 
3 168 99 105 
3 168 105 167 
3 170 169 101 
3 170 101 100 
3 169 171 98 
3 169 98 101 
3 146 172 29 
3 146 29 28 
3 172 173 30 
3 172 30 29 
3 31 174 175 
3 31 175 32 
3 33 248 247 
3 33 247 34 
3 63 176 177 
3 63 177 64 
3 67 178 179 
3 67 179 65 
3 180 181 66 
3 180 66 134 
3 121 123 69 
3 121 69 68 
3 89 88 85 
3 89 85 250 
3 102 105 99 
3 102 99 98 
3 82 113 114 
3 82 114 84 
3 87 119 85 
3 87 85 88 
3 113 27 34 
3 113 34 114 
3 87 121 68 
3 87 68 119 
3 33 26 127 
3 33 127 128 
3 123 180 134 
3 123 134 69 
3 64 177 152 
3 64 152 141 
3 21 138 144 
3 21 144 28 
3 152 154 151 
3 152 151 141 
3 144 138 148 
3 144 148 155 
3 154 162 160 
3 154 160 151 
3 155 148 157 
3 155 157 163 
3 162 170 168 
3 162 168 160 
3 163 157 165 
3 163 165 171 
3 170 100 99 
3 170 99 168 
3 171 165 102 
3 171 102 98 
3 172 146 182 
3 172 182 183 
3 146 145 184 
3 146 184 182 
3 145 152 185 
3 145 185 184 
3 152 177 186 
3 152 186 185 
3 177 176 187 
3 177 187 186 
3 179 188 187 
3 179 187 176 
3 178 181 189 
3 178 189 190 
3 180 123 191 
3 180 191 192 
3 123 122 193 
3 123 193 191 
3 251 248 129 
3 251 129 194 
3 175 195 194 
3 175 194 129 
3 173 196 197 
3 173 197 174 
3 195 135 90 
3 195 90 194 
3 196 198 199 
3 196 199 197 
3 183 182 95 
3 183 95 94 
3 182 184 142 
3 182 142 95 
3 184 185 143 
3 184 143 142 
3 143 185 186 
3 143 186 96 
3 186 187 97 
3 186 97 96 
3 187 188 200 
3 187 200 97 
3 190 189 136 
3 190 136 201 
3 201 199 198 
3 201 198 200 
3 7 6 5 
3 7 5 4 
3 17 7 4 
3 17 4 16 
3 23 24 17 
3 23 17 16 
3 31 24 23 
3 31 23 30 
3 39 41 44 
3 39 44 40 
3 40 44 53 
3 40 53 51 
3 53 60 58 
3 53 58 51 
3 58 60 67 
3 58 67 65 
3 202 203 75 
3 202 75 74 
3 94 97 200 
3 94 200 198 
3 173 174 31 
3 173 31 30 
3 176 63 65 
3 176 65 179 
3 179 178 190 
3 179 190 188 
3 173 172 183 
3 173 183 196 
3 183 94 198 
3 183 198 196 
3 188 190 201 
3 188 201 200 
3 192 191 92 
3 192 92 91 
3 191 251 93 
3 191 93 92 
3 251 194 90 
3 251 90 93 
3 1 0 70 
3 1 70 107 
3 0 3 71 
3 0 71 70 
3 3 5 74 
3 3 74 71 
3 5 6 202 
3 5 202 74 
3 6 41 203 
3 6 203 202 
3 203 41 39 
3 203 39 75 
3 39 36 72 
3 39 72 75 
3 36 35 73 
3 36 73 72 
3 35 38 108 
3 35 108 73 
3 38 50 109 
3 38 109 108 
3 50 14 106 
3 50 106 109 
3 14 1 107 
3 14 107 106 
3 124 125 9 
3 124 9 8 
3 204 205 206 
3 204 206 207 
3 127 126 18 
3 127 18 25 
3 32 128 127 
3 32 127 25 
3 42 131 130 
3 42 130 43 
3 208 209 210 
3 208 210 211 
3 52 132 133 
3 52 133 59 
3 133 134 66 
3 133 66 59 
3 212 213 214 
3 212 214 215 
3 199 201 136 
3 199 136 135 
3 129 128 32 
3 129 32 175 
3 181 178 67 
3 181 67 66 
3 181 180 192 
3 181 192 189 
3 174 197 195 
3 174 195 175 
3 197 199 135 
3 197 135 195 
3 189 192 91 
3 189 91 136 
3 9 125 216 
3 9 216 217 
3 125 131 218 
3 125 218 216 
3 131 42 219 
3 131 219 218 
3 42 9 217 
3 42 217 219 
3 217 216 220 
3 217 220 221 
3 216 218 222 
3 216 222 220 
3 218 219 223 
3 218 223 222 
3 219 217 221 
3 219 221 223 
3 221 220 212 
3 221 212 215 
3 213 212 220 
3 213 220 222 
3 222 223 214 
3 222 214 213 
3 215 214 223 
3 215 223 221 
3 126 124 224 
3 126 224 225 
3 124 8 226 
3 124 226 224 
3 8 18 227 
3 8 227 226 
3 18 126 225 
3 18 225 227 
3 43 130 228 
3 43 228 229 
3 130 132 230 
3 130 230 228 
3 132 52 231 
3 132 231 230 
3 52 43 229 
3 52 229 231 
3 252 253 232 
3 252 232 233 
3 253 254 234 
3 253 234 232 
3 254 255 235 
3 254 235 234 
3 255 252 233 
3 255 233 235 
3 256 257 236 
3 256 236 237 
3 257 258 238 
3 257 238 236 
3 258 259 239 
3 258 239 238 
3 259 256 237 
3 259 237 239 
3 233 232 205 
3 233 205 204 
3 232 234 206 
3 232 206 205 
3 234 235 207 
3 234 207 206 
3 235 233 204 
3 235 204 207 
3 237 236 209 
3 237 209 208 
3 236 238 210 
3 236 210 209 
3 238 239 211 
3 238 211 210 
3 239 237 208 
3 239 208 211 
