ply
format ascii 1.0
comment VCGLIB generated
comment TextureFile TropicalFish03.jpg
element vertex 346
property float x
property float y
property float z
property float nx
property float ny
property float nz
property float texture_u
property float texture_v
element face 636
property list uchar int vertex_indices
end_header
0.137588 -0.0987987 -0.0124442 0.709748 -1.27553 -3.61575 0.3696 0.3424
0.103448 -0.116379 -0.0126166 0.843993 -2.20738 -5.34867 0.402 0.3261
0.0691979 -0.065102 -0.0561517 1.41494 -3.1028 -4.92403 0.4346 0.3733
0.172303 -0.0782915 -0.0122598 1.00312 -1.7234 -4.43211 0.3367 0.3613
0.0517514 -0.129069 -0.0128316 -0.380944 -6.23063 -4.18101 0.451 0.3144
0.0102676 -0.0681055 -0.068707 0.828216 -3.36459 -4.8594 0.4905 0.3705
-0.231596 -0.135163 -0.0137986 -1.02529 -5.87185 -3.41216 0.7216 0.3046
-0.229117 -0.100807 -0.0768534 -0.289757 -4.71578 -5.94341 0.7174 0.3403
-0.117419 -0.0925655 -0.0764527 0.523832 -4.07713 -4.09637 0.6115 0.3479
-0.0578696 -0.128856 -0.0131972 1.25948 -1.12277 -2.11304 0.5549 0.3146
-0.373544 -0.095313 -0.0149993 -2.29168 -5.26187 -1.22423 0.8561 0.3414
-0.368738 -0.0775273 -0.0646908 -2.04015 -3.19321 -3.88931 0.8496 0.3619
-0.287431 -0.0985719 -0.073372 -1.75665 -3.95305 -4.86991 0.7726 0.3424
-0.318719 -0.120886 -0.0174142 -1.69307 -6.40264 -1.34847 0.8042 0.3178
0.0757243 -0.0171357 -0.0844578 1.66791 -1.0622 -5.24303 0.4285 0.4175
0.205484 -0.0578207 -0.0120807 2.90207 0.115655 -6.46716 0.3053 0.3802
0.00545186 -0.0202732 -0.0983455 0.930679 -0.916134 -5.44618 0.4951 0.4146
-0.233219 -0.00946984 -0.115007 -0.178489 0.556749 -5.56003 0.7214 0.4245
-0.155987 -0.0180946 -0.114777 0.391412 -1.05181 -6.51932 0.6482 0.4166
-0.366678 -0.00911262 -0.0786605 -2.25686 0.0868771 -5.42077 0.8478 0.425
-0.286061 -0.00232765 -0.109628 -1.0503 1.92788 -5.46099 0.7715 0.4311
0.0972652 0.0207215 -0.0724608 2.1799 1.24196 -5.26564 0.408 0.4525
0.178721 -0.00941159 -0.0206286 1.75145 0.146905 -4.50319 0.3307 0.4249
0.0196141 0.0365855 -0.0844051 0.85727 1.50461 -4.63704 0.4817 0.4671
-0.233232 0.041598 -0.0989115 -0.319307 1.71591 -4.66946 0.7213 0.4717
-0.15097 0.0553495 -0.098591 0.0765203 1.99619 -5.60761 0.6434 0.4844
-0.366257 0.0249352 -0.074074 -2.37329 1.39932 -5.25305 0.8447 0.4566
-0.291586 0.0390709 -0.094357 -1.22761 1.95152 -5.47793 0.7766 0.4694
0.115243 0.0472756 -0.0572422 2.66634 1.47055 -6.08107 0.391 0.4771
0.181226 0.013927 -0.0183876 1.29226 0.425886 -4.65379 0.3283 0.4464
0.0290172 0.0748424 -0.0622042 0.993958 2.57021 -5.31495 0.4727 0.5025
-0.236727 0.090595 -0.0773361 -0.526623 2.8533 -6.36508 0.7246 0.517
-0.149023 0.101592 -0.0770065 0.414888 2.58781 -5.37096 0.6415 0.5272
-0.369066 0.0631461 -0.0622697 -2.16871 1.89811 -5.19382 0.8462 0.4926
-0.29271 0.0767881 -0.0748509 -1.08295 2.23696 -5.44065 0.7776 0.5043
-0.499928 -0.00760847 -0.0142705 -3.52134 -0.0599222 -1.20903 0.9759 0.4224
-0.495631 -0.00339933 -0.0142421 -3.57556 1.32996 -1.50536 0.9698 0.4304
-0.461691 -0.0378224 -0.0357165 -2.99398 -1.28142 -4.31243 0.9377 0.3986
-0.469765 -0.0442532 -0.0142917 -3.69396 -4.14119 -1.36535 0.9473 0.3885
-0.493209 0.00160098 -0.0142172 -4.29502 0.0975038 -3.6557 0.9675 0.4351
-0.431154 -0.00519498 -0.0433041 -1.95512 0.436445 -4.56468 0.9108 0.4287
-0.498581 0.013849 -0.0141944 -3.91218 0.362255 -2.7946 0.9726 0.4464
-0.423636 0.0198283 -0.0417037 -2.96853 1.02713 -6.22566 0.9042 0.4516
-0.494337 0.0362226 -0.0141059 -3.31452 1.58002 -1.87154 0.9685 0.467
-0.424582 0.0465664 -0.0342688 -2.13497 1.18329 -5.4582 0.9066 0.4751
-0.410195 -0.0624613 -0.0527246 -2.91475 -2.58657 -4.77374 0.8889 0.3758
-0.414531 -0.0768252 -0.0142156 -2.70877 -5.12019 -1.08859 0.895 0.3585
-0.397984 -0.00413451 -0.0594196 -2.7054 0.496371 -5.29 0.8752 0.4297
-0.39408 0.0240932 -0.0572495 -2.44991 0.920958 -4.25519 0.8736 0.4558
-0.393361 0.0611717 -0.0488057 -3.12743 1.90978 -5.9371 0.8726 0.4906
-0.0727963 -0.0607351 -0.132955 2.16193 -3.20533 -0.966084 0.6909 0.1488
-0.0290964 0.0111318 -0.151705 1.0521 -0.00325578 -1.75427 0.6497 0.2097
-0.0312348 0.00967489 -0.141439 1.98429 1.16951 1.3497 0.6517 0.2085
-0.0719881 -0.0607388 -0.123389 1.02085 -1.02195 1.94783 0.6901 0.1488
0.224184 -0.0111309 -0.0175929 0.489212 -0.11962 -6.93983 0.2876 0.4233
0.229741 -0.0432916 -0.0119513 1.22959 -3.13319 -2.97138 0.2823 0.3936
0.217396 0.0109893 -0.0161095 0.354795 0.351226 -4.97474 0.294 0.4437
0.273907 -0.017302 -0.0134352 0.260426 -0.192603 -5.96956 0.2405 0.4176
0.28031 -0.0414597 -0.0107397 -0.483129 -4.14311 -3.00122 0.2344 0.3953
0.267165 0.0174165 -0.0122575 0.353095 0.320638 -5.97915 0.2468 0.4497
0.40982 -0.0842459 -0.00941281 -0.415094 -1.86217 -3.00458 0.1116 0.3558
0.386044 -0.0243849 -0.00907176 0.221715 0.0969179 -5.99438 0.1342 0.4111
0.499989 -0.062997 -0.00433912 2.12594 0.115459 -2.98895 0.0262 0.3754
0.496062 -0.103994 -0.00612171 1.59369 -2.10988 -1.00035 0.0299 0.3376
0.491233 0.00219787 -0.00426116 3.09572 0.387157 -2.98636 0.0345 0.4356
0.375732 0.0130292 -0.00824515 0.269963 0.116712 -6.99343 0.1439 0.4456
0.129567 0.0859134 -0.0419958 1.66966 1.3186 -4.43617 0.3773 0.5128
0.139822 0.135514 -0.0116563 1.62143 2.34211 -5.24674 0.3675 0.5587
0.190986 0.100113 -0.0116032 1.54949 1.82703 -5.36697 0.319 0.526
0.178174 0.0513029 -0.0161184 1.71456 0.717663 -6.54633 0.3312 0.4809
-0.147076 0.147835 -0.0554219 0.221453 2.59583 -5.38221 0.6396 0.57
-0.139509 0.224653 -0.0122928 0.121772 2.95918 -3.83784 0.6323 0.641
-0.0371355 0.212673 -0.0119905 0.776729 4.09207 -5.24403 0.5352 0.6299
-0.0563443 0.13073 -0.0488217 0.609495 2.05364 -4.51614 0.5536 0.5542
-0.240223 0.139592 -0.0557605 -0.409272 3.0431 -6.27641 0.7278 0.5623
-0.256747 0.216416 -0.0127118 -0.63742 5.22452 -3.24918 0.7434 0.6334
-0.392314 0.168859 -0.0133232 -2.85626 3.09063 -2.7388 0.8718 0.5895
-0.352627 0.199973 -0.013946 -1.48335 2.7972 -2.72394 0.8342 0.6182
-0.362774 0.113222 -0.0408587 -1.8813 2.07482 -5.27173 0.8439 0.538
-0.390522 0.103486 -0.0328206 -1.70945 1.44655 -4.45099 0.8702 0.5291
-0.430213 0.127167 -0.0135886 -3.38208 2.921 -3.71918 0.9078 0.551
-0.429981 0.0859229 -0.0244618 -1.67575 1.18202 -4.54651 0.9076 0.5129
-0.484377 0.0526085 -0.014018 -3.7727 2.24848 -3.75133 0.9591 0.4822
-0.469118 0.0814837 -0.0138708 -2.68414 1.97088 -0.94033 0.9446 0.5088
-0.299029 0.20928 -0.0162683 -0.970348 5.23206 -2.66935 0.7834 0.6268
-0.290373 0.131344 -0.0552805 -1.0341 2.30177 -5.4214 0.7754 0.5547
0.211647 0.093187 -0.0115572 0.380999 1.11888 -4.74858 0.2995 0.5196
0.21207 0.0373465 -0.014607 0.386058 0.376829 -5.97559 0.2991 0.4681
0.241954 0.0931912 -0.00924405 0.225383 0.699734 -5.86853 0.2707 0.5196
0.25921 0.0482503 -0.0110967 0.199381 0.219471 -4.98957 0.2544 0.4781
0.390819 0.134305 -0.00639766 -0.818484 2.88519 -2.99213 0.1296 0.5576
0.486313 0.15964 -0.00386309 1.77189 0.962523 -0.990594 0.0391 0.581
0.485803 0.0684779 -0.00416828 3.11784 0.184561 -3.98747 0.0396 0.4968
0.391308 0.0542136 -0.00731923 0.15452 0.0591996 -4.99716 0.1292 0.4837
0.195108 0.115427 -0.00178632 0.439744 1.45415 -6.6082 0.3151 0.5402
0.144449 0.153377 -0.00182924 0.882612 1.28987 -5.56821 0.3631 0.5752
0.058305 0.185401 -0.0117625 0.88396 2.56983 -4.12295 0.4448 0.6048
0.0656213 0.199627 -0.00193871 0.686298 1.54048 -5.45606 0.4378 0.6179
0.339437 0.112582 -0.00774756 1.01316 1.12675 -6.97747 0.1783 0.5375
0.20685 0.227157 -0.00137519 0.022885 3.14096 -2.98241 0.304 0.6434
0.164639 0.229069 -0.00150975 0.0563975 3.00695 -2.98985 0.344 0.6451
0.0712629 0.224949 -0.00183546 -0.0633031 3.00792 -2.99022 0.4325 0.6413
-0.140919 0.229542 -0.00252897 0.192124 3.10324 -3.39491 0.6336 0.6456
-0.155481 0.235457 -0.00255799 -0.0402513 3.64583 -2.7397 0.6474 0.651
-0.0273938 -0.127946 -0.0130925 0.434881 -5.19652 -2.00752 0.526 0.3155
-0.0729035 -0.0792014 -0.0745167 0.627132 -3.51939 -4.71029 0.5693 0.3603
-0.0648397 -0.0181212 -0.106461 0.533702 -1.01581 -4.56741 0.5618 0.4166
-0.0580535 0.0524331 -0.0913982 0.965711 2.7278 -7.35972 0.5553 0.4818
-0.0572084 0.091572 -0.067202 0.651496 2.16922 -4.45126 0.5544 0.518
0.0366112 0.11374 -0.0453906 1.15687 3.08806 -7.27869 0.4654 0.5385
-0.0339628 0.217436 -0.00221197 0.4254 2.23101 -4.90595 0.5322 0.6344
-0.0344388 0.226519 -0.00218336 0.11333 3.00703 -2.98961 0.5326 0.6428
0.329975 -0.0208434 -0.0112535 0.169937 -0.0103684 -5.99253 0.1873 0.4143
0.345066 -0.0628529 -0.0100763 -0.881252 -2.90135 -3.01049 0.173 0.3756
0.326413 0.0192146 -0.0102214 0.208194 0.177139 -5.99348 0.1907 0.4513
0.33855 0.0543759 -0.00915324 0.15918 0.141103 -5.99566 0.1792 0.4838
0.114717 -0.131709 -0.00857855 0.401694 -0.999163 -6.90839 0.3913 0.312
0.0814466 -0.141696 -0.00872305 -0.467041 -2.18376 -1.98096 0.4228 0.3028
0.199266 -0.0974943 -0.00818214 0.434954 -0.87305 -6.92724 0.3112 0.3436
0.179258 -0.161269 -0.00210893 -0.54837 -3.20521 -4.99714 0.3301 0.2847
0.151351 -0.140799 -0.00443492 0.111804 -0.278473 -2.98297 0.3566 0.3036
0.252799 -0.122254 -0.00403435 0.184107 -0.536656 -6.97033 0.2604 0.3207
0.295405 -0.0967174 -0.00380691 1.96908 2.07595 -2.97534 0.2201 0.3443
0.314027 -0.163158 -0.00166502 0.0408021 -0.0780363 -5.99729 0.2024 0.283
0.344931 -0.149718 -0.00151699 2.23394 1.99791 -2.98474 0.1731 0.2954
-0.0449024 -0.136461 -0.0108782 2.3636 0.801125 -2.80938 0.5426 0.3076
-0.21229 -0.144662 -0.0114649 -1.03043 -3.96043 -2.74559 0.7012 0.3
-0.0408369 -0.144744 -0.00384819 2.09279 1.16323 -2.74787 0.5387 0.3
-0.172285 -0.159175 -0.0043354 -0.596697 -2.35884 -2.88921 0.6633 0.2866
-0.0125569 -0.163746 -0.00381688 1.55009 2.58731 -3.98625 0.5119 0.2824
-0.0890981 -0.18552 -0.00414508 -0.706696 -2.89397 -2.01198 0.5845 0.2623
0.0113397 -0.196593 -0.00384653 -0.160477 -2.97992 -2.01046 0.4893 0.2521
0.0430173 -0.194944 -0.00373519 0.596807 -1.12196 -1.00174 0.4592 0.2536
0.265712 0.228322 -0.00117449 0.303492 3.17756 -3.97817 0.2482 0.6444
0.356711 0.140207 -0.00116391 1.7419 -0.983859 -1.99236 0.1619 0.5631
0.309209 -0.202161 -0.00181098 -0.864052 -2.86384 -2.01246 0.207 0.247
0.38841 -0.22441 -0.00162045 -0.822685 -2.87627 -2.01236 0.1319 0.2264
0.425017 -0.23544 -0.00153482 0.160416 -1.22562 -2.00357 0.0972 0.2162
0.371332 0.162537 -0.00104076 1.82681 -2.07519 -3.00086 0.1481 0.5837
0.329776 0.221615 -0.00098292 0.531287 2.96054 -2.98839 0.1875 0.6382
0.386707 0.164767 -0.000981882 -0.274445 -3.86274 -4.01077 0.1335 0.5857
0.396398 0.207405 -0.00080752 1.98365 2.0067 -1.98518 0.1243 0.6251
0.412426 0.180745 0.000421928 1.97168 0.462429 -1.98886 0.1091 0.6005
0.411371 0.155787 0.000335266 1.71411 -1.02957 -0.996209 0.1101 0.5775
-0.267175 -0.0665485 -0.0921129 -1.35044 -2.77155 -4.33384 0.7535 0.3719
-0.235799 -0.0673162 -0.0879394 0.0857923 -2.89891 -1.83813 0.7237 0.3712
-0.266139 -0.00424625 -0.120496 -0.954327 1.92435 -2.00065 0.7526 0.4293
-0.238745 -0.009327 -0.117746 1.09612 3.2107 1.09066 0.7266 0.4247
-0.216208 -0.0689441 -0.124597 -0.813276 -3.78215 -2.72618 0.8261 0.1418
-0.216577 -0.0690735 -0.104644 1.06294 -2.07377 2.59953 0.8264 0.1418
-0.215474 -0.00368419 -0.143045 -1.45685 2.05436 -2.19729 0.8341 0.1888
-0.218783 -0.00639685 -0.121917 0.917514 3.71138 3.28804 0.8372 0.1866
-0.168202 -0.0706305 -0.131877 -0.184728 -3.66478 -2.92892 0.7808 0.1404
-0.167393 -0.070633 -0.122671 0.671619 -2.31548 2.80876 0.78 0.1404
-0.167281 0.00884849 -0.150025 -0.77503 2.23713 -2.59214 0.78 0.2078
-0.169418 0.00739285 -0.140145 -0.283439 3.5726 3.16464 0.782 0.2066
-0.10942 -0.0684571 -0.134336 0.309839 -3.66139 -2.94474 0.7254 0.1422
-0.108612 -0.0684609 -0.12477 0.453712 -2.30626 2.88897 0.7246 0.1422
-0.0907532 0.020357 -0.153114 0.127338 2.27368 -2.47777 0.7079 0.2176
-0.0928916 0.0189001 -0.142848 -0.179732 3.6138 3.31436 0.7099 0.2163
0.137505 -0.0988825 0.012705 0.685602 -1.2996 3.61183 0.3696 0.3424
0.17222 -0.0783752 0.0128891 0.973525 -1.75291 4.42713 0.3367 0.3613
0.0688251 -0.065476 0.056178 1.38208 -3.13558 4.91258 0.4346 0.3733
0.103364 -0.116463 0.0125323 0.808283 -2.24298 5.33936 0.402 0.3261
0.00981276 -0.0685618 0.0683189 0.79581 -3.39691 4.8423 0.4905 0.3705
0.0516678 -0.129153 0.0123173 -0.00377271 -4.33798 4.14454 0.451 0.3144
-0.231679 -0.135247 0.0113503 -0.768489 -5.9838 3.36673 0.7216 0.3046
-0.0579531 -0.12894 0.0119518 0.769961 -2.99937 2.10605 0.5549 0.3146
-0.117922 -0.0930699 0.0750483 0.496538 -4.10435 4.07252 0.6115 0.3479
-0.22962 -0.101312 0.0746477 -0.329403 -4.75524 5.90981 0.7174 0.3403
-0.373633 -0.0954023 0.0118678 -2.31143 -5.26238 1.17874 0.8561 0.3414
-0.318825 -0.120992 0.0144786 -1.11844 -4.51729 1.30426 0.8042 0.3178
-0.28791 -0.0990519 0.0707916 -1.79143 -3.98347 4.83438 0.7726 0.3424
-0.369016 -0.0778053 0.0617087 -2.06365 -3.21939 3.85923 0.8496 0.3619
0.205401 -0.0579044 0.0130682 2.97599 -1.70331 6.48143 0.3053 0.3802
0.0751625 -0.0176995 0.0848459 1.63288 -1.09714 5.24685 0.4285 0.4175
0.0047994 -0.020928 0.0982425 0.894292 -0.952419 5.44605 0.4951 0.4146
-0.156745 -0.0188551 0.113609 0.347866 -1.09521 6.51464 0.6482 0.4166
-0.233976 -0.0102305 0.11338 -0.215723 0.519719 5.56228 0.7214 0.4245
-0.286782 -0.00305122 0.107697 -1.08751 1.89042 5.46621 0.7715 0.4311
-0.367192 -0.00962804 0.076146 -2.29232 0.0488946 5.40624 0.8478 0.425
0.178581 -0.00955278 0.0217591 1.72136 0.116885 4.51565 0.3307 0.4249
0.0967817 0.0202361 0.0732455 2.14468 1.20684 5.28822 0.408 0.4525
0.0190525 0.0360221 0.0847762 0.826238 1.47368 4.65258 0.4817 0.4671
-0.151622 0.054695 0.0979464 0.0390053 1.95879 5.62117 0.6434 0.4844
-0.233885 0.0409435 0.0976257 -0.350538 1.68478 4.67855 0.7213 0.4717
-0.292206 0.0384481 0.0926646 -1.26314 1.91416 5.48307 0.7766 0.4694
-0.366661 0.02453 0.0718303 -2.40837 1.36354 5.24609 0.8447 0.4566
0.1811 0.0138003 0.0196904 1.26114 0.394862 4.66504 0.3283 0.4464
0.114859 0.0468908 0.0583247 2.62566 1.42999 6.10838 0.391 0.4771
0.0286019 0.0744257 0.0628937 0.958374 2.53476 5.33845 0.4727 0.5025
-0.149533 0.101081 0.0766838 0.378934 2.55198 5.39072 0.6415 0.5272
-0.237237 0.0900834 0.0763542 -0.569202 2.81085 6.38029 0.7246 0.517
-0.293201 0.0762945 0.0734031 -1.11745 2.20088 5.44853 0.7776 0.5043
-0.369375 0.0628369 0.060292 -2.20453 1.86407 5.19023 0.8462 0.4926
-0.500011 -0.00769223 0.0108786 -3.60158 -1.4177 1.18047 0.9759 0.4224
-0.469847 -0.044337 0.0108573 -3.43877 -4.37594 1.3133 0.9473 0.3885
-0.461917 -0.038049 0.0323782 -3.02162 -1.30772 4.284 0.9377 0.3986
-0.495714 -0.00348308 0.0109068 -3.38465 1.59909 1.49222 0.9698 0.4304
-0.431339 -0.0053795 0.040354 -1.9862 0.4093 4.55369 0.9108 0.4287
-0.493292 0.00151722 0.0109317 -4.3005 0.912296 3.63153 0.9675 0.4351
-0.423827 0.0196367 0.038961 -3.01332 0.988058 6.20979 0.9042 0.4516
-0.498664 0.0137652 0.0109545 -3.86164 -0.242891 2.76983 0.9726 0.4464
-0.424748 0.0464001 0.0316567 -2.16987 1.14442 5.45226 0.9066 0.4751
-0.49442 0.0361389 0.0110432 -3.45302 1.2338 1.85924 0.9685 0.467
-0.414616 -0.076909 0.0109333 -2.6155 -5.17761 1.04035 0.895 0.3585
-0.410535 -0.0628019 0.0495653 -2.94438 -2.61762 4.7388 0.8889 0.3758
-0.398282 -0.00443451 0.0567637 -2.74381 0.463258 5.27295 0.8752 0.4297
-0.394391 0.0237822 0.0547769 -2.48342 0.892682 4.24187 0.8736 0.4558
-0.393601 0.0609312 0.0465968 -3.17391 1.86896 5.92513 0.8726 0.4906
-0.0736757 -0.0616176 0.132058 2.1555 -3.21174 0.958974 0.6909 0.1488
-0.0728044 -0.0615575 0.122498 1.03387 -1.00897 -1.94781 0.6901 0.1488
-0.0321731 0.00873321 0.141289 1.99324 1.17844 -1.32872 0.6517 0.2085
-0.030103 0.0101217 0.151578 1.04035 -0.0149627 1.76114 0.6497 0.2097
0.229658 -0.0433754 0.0131976 0.732208 -3.2944 2.9565 0.2823 0.3936
0.224062 -0.0112529 0.019016 0.442834 -0.165841 6.94199 0.2876 0.4233
0.217284 0.010877 0.0176346 0.321541 0.31808 4.97923 0.294 0.4437
0.273812 -0.0173972 0.0151496 0.220535 -0.232359 5.96975 0.2405 0.4176
0.280233 -0.0415364 0.0123362 -0.225707 -2.21414 2.97771 0.2344 0.3953
0.267078 0.0173286 0.0141581 0.313127 0.280802 5.98338 0.2468 0.4497
0.409752 -0.084316 0.0115898 -0.971833 -3.80646 2.98108 0.1116 0.3558
0.496014 -0.104043 0.0087436 0.814646 -1.04626 0.997807 0.0299 0.3376
0.499951 -0.0630355 0.00726039 4.09244 0.13313 3.01041 0.0262 0.3754
0.385976 -0.0244533 0.0114886 0.181652 0.0569908 5.99624 0.1342 0.4111
0.491194 0.00215848 0.00755811 3.08125 0.315733 3.00923 0.0345 0.4356
0.375667 0.0129656 0.0108422 0.223222 0.070123 6.9957 0.1439 0.4456
0.486272 0.1596 0.00817573 0.508749 1.928 1.0078 0.0391 0.581
0.390765 0.134251 0.00990339 -0.971489 2.81972 3.00519 0.1296 0.5576
0.129283 0.0856287 0.0434318 1.63997 1.289 4.4559 0.3773 0.5128
0.178062 0.0511906 0.0176499 1.67078 0.674014 6.56226 0.3312 0.4809
0.190902 0.100029 0.0135457 1.51357 1.79124 5.38924 0.319 0.526
0.139739 0.135431 0.0134926 1.5863 2.3071 5.27292 0.3675 0.5587
-0.147443 0.147466 0.0554213 0.185428 2.55992 5.40074 0.6396 0.57
-0.05667 0.130403 0.0493136 0.579261 2.02351 4.53369 0.5536 0.5542
-0.037219 0.212588 0.0131584 0.741582 4.05704 5.27622 0.5352 0.6299
-0.139593 0.22457 0.0128563 0.0960572 2.93355 3.85819 0.6323 0.641
-0.24059 0.139223 0.0550825 -0.451271 3.00123 6.29367 0.7278 0.5623
-0.25683 0.216331 0.0124371 -0.640806 5.20608 3.27968 0.7434 0.6334
-0.392399 0.168775 0.0118257 -2.99755 2.95803 2.73948 0.8718 0.5895
-0.390734 0.103274 0.0308989 -1.74057 1.41636 4.4484 0.8702 0.5291
-0.363039 0.112956 0.0391868 -1.91755 2.04127 5.27143 0.8439 0.538
-0.352716 0.199884 0.012921 -2.28949 4.55128 2.73585 0.8342 0.6182
-0.430296 0.127083 0.0115603 -3.42827 2.87195 3.71584 0.9078 0.551
-0.469201 0.0813999 0.0112781 -2.8132 1.78351 0.93459 0.9446 0.5088
-0.484462 0.0525247 0.0111309 -3.76607 2.27263 3.7426 0.9591 0.4822
-0.430134 0.0857679 0.0221599 -1.70645 1.14821 4.54358 0.9076 0.5129
-0.299135 0.209174 0.0156631 -0.650699 3.24289 2.69218 0.7834 0.6268
-0.290736 0.130979 0.0542126 -1.06955 2.26688 5.4293 0.7754 0.5547
0.211969 0.0372437 0.016272 0.346116 0.337009 5.98041 0.2991 0.4681
0.211564 0.0931033 0.0135917 0.349244 1.08724 4.75836 0.2995 0.5196
0.259131 0.0481696 0.0131497 0.166032 0.186226 4.99214 0.2544 0.4781
0.241886 0.0931221 0.0114809 0.186156 0.660639 5.87443 0.2707 0.5196
0.391248 0.0541549 0.0102948 0.12112 0.0259095 4.99837 0.1292 0.4837
0.485764 0.0684379 0.00787055 3.09444 0.0706981 4.00899 0.0396 0.4968
0.195089 0.115408 0.00385876 0.39556 1.41012 6.62051 0.3151 0.5402
0.14443 0.153358 0.00381584 0.845368 1.25275 5.58244 0.3631 0.5752
0.0656025 0.199608 0.00370658 0.649804 1.5041 5.47064 0.4378 0.6179
0.0582216 0.185318 0.0133864 0.856347 2.54232 4.14577 0.4448 0.6048
0.339375 0.11252 0.0107652 0.508195 0.689601 6.98858 0.1783 0.5375
0.206831 0.227139 0.0042701 0.0679197 3.1202 3.00353 0.304 0.6434
0.16462 0.22905 0.00413554 -0.0529627 2.98702 3.00979 0.344 0.6451
0.0712442 0.224931 0.00380983 -0.0244233 2.98879 3.00992 0.4325 0.6413
-0.140938 0.229523 0.00311612 0.169363 3.08057 3.4167 0.6336 0.6456
-0.155499 0.235438 0.00308709 -0.317321 3.61295 2.76272 0.6474 0.651
-0.0344575 0.2265 0.00346194 0.152065 2.98443 3.01051 0.5326 0.6428
-0.0274772 -0.12803 0.0120567 0.377546 -5.21014 1.97556 0.526 0.3155
-0.0733948 -0.0796944 0.0734989 0.595724 -3.55071 4.69082 0.5693 0.3603
-0.0655446 -0.0188286 0.105903 0.503198 -1.04622 4.564 0.5618 0.4166
-0.0586601 0.0518246 0.0913555 0.916453 2.67872 7.384 0.5553 0.4818
-0.0576554 0.0911235 0.0674267 0.621693 2.13952 4.46986 0.5544 0.518
0.0363064 0.113435 0.0463908 1.10815 3.0395 7.30666 0.4654 0.5385
-0.0339816 0.217417 0.00343312 0.392563 2.19829 4.92341 0.5322 0.6344
0.344991 -0.0629263 0.011963 -0.90129 -2.92132 2.98519 0.173 0.3756
0.329894 -0.0209253 0.0133191 0.129889 -0.0502784 5.99333 0.1873 0.4143
0.326338 0.0191389 0.01253 0.168135 0.137212 5.99579 0.1907 0.4513
0.338481 0.0543063 0.0117772 0.119106 0.10116 5.9974 0.1792 0.4838
0.08139 -0.141752 0.00832312 -1.06698 -4.09797 1.95493 0.4228 0.3028
0.11466 -0.131766 0.00846763 0.355542 -1.04517 6.90411 0.3913 0.312
0.19921 -0.097551 0.00886404 0.38867 -0.919169 6.92402 0.3112 0.3436
0.179243 -0.161284 0.0022327 -0.685853 -3.21169 4.97163 0.3301 0.2847
0.151322 -0.140829 0.00450831 0.091877 -0.298338 2.98173 0.3566 0.3036
0.25277 -0.122284 0.0049091 0.137544 -0.583076 6.96767 0.2604 0.3207
0.295376 -0.0967472 0.00513653 1.61524 2.29114 3.00181 0.2201 0.3443
0.314013 -0.163172 0.00267661 0.00072632 -0.117975 5.99678 0.2024 0.283
0.344917 -0.149732 0.00282464 2.21373 1.97812 3.01285 0.1731 0.2954
-0.212356 -0.14473 0.00908235 -1.14929 -3.93583 2.71208 0.7012 0.3
-0.0449706 -0.136529 0.00966888 1.95381 1.20165 2.83039 0.5426 0.3076
-0.172307 -0.159197 0.00212385 -1.25822 -4.27162 2.86101 0.6633 0.2866
-0.0408585 -0.144765 0.00261107 2.41283 0.758477 2.7693 0.5387 0.3
-0.0891197 -0.185542 0.00231397 -0.527727 -2.94794 1.98848 0.5845 0.2623
-0.0125785 -0.163768 0.00264238 1.59158 2.51869 4.01376 0.5119 0.2824
0.0113184 -0.196614 0.00261273 -0.0122895 -2.99793 1.99002 0.4893 0.2521
0.042996 -0.194966 0.00272406 1.02765 0.742002 1.00592 0.4592 0.2536
0.356693 0.140188 0.00448138 3.41294 -2.07532 1.9993 0.1619 0.5631
0.265693 0.228304 0.0044706 0.152916 3.15623 4.00074 0.2482 0.6444
0.309194 -0.202175 0.00253065 -0.847705 -2.886 1.98757 0.207 0.247
0.388395 -0.224425 0.00272118 -0.854102 -2.88434 1.98755 0.1319 0.2264
0.425003 -0.235454 0.00280681 1.16625 0.401202 2.00527 0.0972 0.2162
0.371313 0.162518 0.00460453 1.11367 -2.53704 2.9953 0.1481 0.5837
0.329757 0.221597 0.00466238 0.406774 2.95712 3.01123 0.1875 0.6382
0.386689 0.164748 0.00466321 -0.102789 -1.96001 3.99014 0.1335 0.5857
0.396379 0.207387 0.00483778 1.32191 2.45603 2.01111 0.1243 0.6251
0.411359 0.155777 0.00345118 0.366425 -1.93369 0.993269 0.1101 0.5775
0.412416 0.180735 0.00353784 3.8144 0.922222 2.01277 0.1091 0.6005
-0.236377 -0.0678951 0.0859115 0.0734936 -2.91109 1.81931 0.7237 0.3712
-0.267779 -0.0671545 0.0898802 -1.37929 -2.8003 4.30619 0.7535 0.3719
-0.266933 -0.0050428 0.118684 -0.967701 1.91102 2.00702 0.7526 0.4293
-0.23952 -0.0101055 0.116083 1.10328 3.21786 -1.06194 0.7266 0.4247
-0.217266 -0.0697641 0.102732 1.08032 -2.05646 -2.60614 0.8264 0.1418
-0.217027 -0.0697676 0.122688 -0.83138 -3.8002 2.69544 0.8261 0.1418
-0.216418 -0.00463209 0.141574 -1.47154 2.03973 2.20121 0.8341 0.1888
-0.219588 -0.00720377 0.120407 0.93936 3.73317 -3.25701 0.8372 0.1866
-0.168202 -0.0714447 0.121076 0.690413 -2.29674 -2.8196 0.78 0.1404
-0.169072 -0.0715036 0.130277 -0.204212 -3.6842 2.90313 0.7808 0.1404
-0.168274 0.0078527 0.148959 -0.792385 2.21984 2.60181 0.78 0.2078
-0.170345 0.0064632 0.139056 -0.262378 3.59361 -3.14254 0.782 0.2066
-0.109437 -0.0692879 0.123583 0.473063 -2.28697 -2.90124 0.7246 0.1422
-0.110308 -0.069348 0.133143 0.290237 -3.68093 2.92224 0.7254 0.1422
-0.0917681 0.0193388 0.152636 0.110728 2.25712 2.49365 0.7079 0.2176
-0.0938383 0.0179503 0.142346 -0.157659 3.6358 -3.29131 0.7099 0.2163
-0.235799 -0.0673162 -0.0879394 0.0857923 -2.89891 -1.83813 0.8444 0.1433
-0.267175 -0.0665485 -0.0921129 -1.35044 -2.77155 -4.33384 0.874 0.144
-0.266139 -0.00424625 -0.120496 -0.954327 1.92435 -2.00065 0.8708 0.1988
-0.238745 -0.009327 -0.117746 1.09612 3.2107 1.09066 0.8473 0.1925
-0.25683 0.216331 0.0124371 -0.640806 5.20608 3.27968 0.745 0.6518
-0.299135 0.209174 0.0156631 -0.650699 3.24289 2.69218 0.7851 0.6452
-0.236377 -0.0678951 0.0859115 0.0734936 -2.91109 1.81931 0.8444 0.1433
-0.267779 -0.0671545 0.0898802 -1.37929 -2.8003 4.30619 0.874 0.144
-0.266933 -0.0050428 0.118684 -0.967701 1.91102 2.00702 0.8708 0.1988
-0.23952 -0.0101055 0.116083 1.10328 3.21786 -1.06194 0.8473 0.1925
-0.318825 -0.120992 0.0144786 -1.11844 -4.51729 1.30426 0.8049 0.301
-0.373633 -0.0954023 0.0118678 -2.31143 -5.26238 1.17874 0.8569 0.3246
-0.495714 -0.00348308 0.0109068 -3.38465 1.59909 1.49222 0.9787 0.436
-0.493292 0.00151722 0.0109317 -4.3005 0.912296 3.63153 0.9764 0.4406
-0.498664 0.0137652 0.0109545 -3.86164 -0.242891 2.76983 0.9815 0.4519
-0.49442 0.0361389 0.0110432 -3.45302 1.2338 1.85924 0.9775 0.4726
-0.469201 0.0813999 0.0112781 -2.8132 1.78351 0.93459 0.9463 0.5272
-0.430296 0.127083 0.0115603 -3.42827 2.87195 3.71584 0.9094 0.5694
-0.469847 -0.044337 0.0108573 -3.43877 -4.37594 1.3133 0.9481 0.3717
-0.500011 -0.00769223 0.0108786 -3.60158 -1.4177 1.18047 0.9767 0.4056
-0.392399 0.168775 0.0118257 -2.99755 2.95803 2.73948 0.8735 0.6079
-0.414616 -0.076909 0.0109333 -2.6155 -5.17761 1.04035 0.8957 0.3417
-0.352716 0.199884 0.012921 -2.28949 4.55128 2.73585 0.8359 0.6366
-0.231679 -0.135247 0.0113503 -0.768489 -5.9838 3.36673 0.7224 0.2878
-0.155499 0.235438 0.00308709 -0.317321 3.61295 2.76272 0.649 0.6694
-0.484462 0.0525247 0.0111309 -3.76607 2.27263 3.7426 0.9608 0.5006
3 0 1 2 
3 0 2 3 
3 1 4 5 
3 1 5 2 
3 6 7 8 
3 6 8 9 
3 10 11 12 
3 10 12 13 
3 3 2 14 
3 3 14 15 
3 2 5 16 
3 2 16 14 
3 7 17 18 
3 7 18 8 
3 11 19 20 
3 11 20 12 
3 15 14 21 
3 15 21 22 
3 14 16 23 
3 14 23 21 
3 17 24 25 
3 17 25 18 
3 19 26 27 
3 19 27 20 
3 22 21 28 
3 22 28 29 
3 21 23 30 
3 21 30 28 
3 25 24 31 
3 25 31 32 
3 26 33 34 
3 26 34 27 
3 35 36 37 
3 35 37 38 
3 37 36 39 
3 37 39 40 
3 39 41 42 
3 39 42 40 
3 41 43 44 
3 41 44 42 
3 38 37 45 
3 38 45 46 
3 45 37 40 
3 45 40 47 
3 47 40 42 
3 47 42 48 
3 42 44 49 
3 42 49 48 
3 13 12 7 
3 13 7 6 
3 50 51 52 
3 50 52 53 
3 20 27 24 
3 20 24 17 
3 27 34 31 
3 27 31 24 
3 15 22 54 
3 15 54 55 
3 29 56 54 
3 29 54 22 
3 57 58 55 
3 57 55 54 
3 54 56 59 
3 54 59 57 
3 60 61 62 
3 60 62 63 
3 64 62 61 
3 64 61 65 
3 66 67 68 
3 66 68 69 
3 70 71 72 
3 70 72 73 
3 74 75 71 
3 74 71 70 
3 76 77 78 
3 76 78 79 
3 80 81 82 
3 80 82 83 
3 80 76 79 
3 80 79 81 
3 84 75 74 
3 84 74 85 
3 69 68 86 
3 69 86 87 
3 87 86 88 
3 87 88 89 
3 90 91 92 
3 90 92 93 
3 86 68 94 
3 86 94 88 
3 68 67 95 
3 68 95 94 
3 67 96 97 
3 67 97 95 
3 98 88 94 
3 98 94 99 
3 94 95 100 
3 94 100 99 
3 95 97 101 
3 95 101 100 
3 102 71 75 
3 102 75 103 
3 104 9 8 
3 104 8 105 
3 105 8 18 
3 105 18 106 
3 18 25 107 
3 18 107 106 
3 107 25 32 
3 107 32 108 
3 72 96 109 
3 72 109 73 
3 72 71 102 
3 72 102 110 
3 110 102 103 
3 110 103 111 
3 28 66 69 
3 28 69 29 
3 108 73 109 
3 108 109 30 
3 31 74 70 
3 31 70 32 
3 49 79 78 
3 49 78 33 
3 82 81 44 
3 82 44 43 
3 81 79 49 
3 81 49 44 
3 34 85 74 
3 34 74 31 
3 69 87 56 
3 69 56 29 
3 87 89 59 
3 87 59 56 
3 92 64 65 
3 92 65 93 
3 32 70 73 
3 32 73 108 
3 46 45 11 
3 46 11 10 
3 45 47 19 
3 45 19 11 
3 47 48 26 
3 47 26 19 
3 48 49 33 
3 48 33 26 
3 77 84 85 
3 77 85 78 
3 85 34 33 
3 85 33 78 
3 4 104 105 
3 4 105 5 
3 5 105 106 
3 5 106 16 
3 16 106 107 
3 16 107 23 
3 107 108 30 
3 107 30 23 
3 96 72 110 
3 96 110 97 
3 97 110 111 
3 97 111 101 
3 67 66 109 
3 67 109 96 
3 109 66 28 
3 109 28 30 
3 112 113 58 
3 112 58 57 
3 114 112 57 
3 114 57 59 
3 88 98 115 
3 88 115 89 
3 89 115 114 
3 89 114 59 
3 4 1 116 
3 4 116 117 
3 1 0 118 
3 1 118 116 
3 118 0 3 
3 118 3 15 
3 119 117 116 
3 119 116 120 
3 116 118 121 
3 116 121 120 
3 118 15 122 
3 118 122 121 
3 119 120 121 
3 119 121 123 
3 121 122 124 
3 121 124 123 
3 6 9 125 
3 6 125 126 
3 126 125 127 
3 126 127 128 
3 128 127 129 
3 128 129 130 
3 131 130 129 
3 131 129 132 
3 98 99 133 
3 98 133 134 
3 135 119 123 
3 135 123 136 
3 123 124 137 
3 123 137 136 
3 138 134 133 
3 138 133 139 
3 140 138 139 
3 140 139 141 
3 140 141 142 
3 140 142 143 
3 61 60 113 
3 61 113 112 
3 65 61 112 
3 65 112 114 
3 98 90 93 
3 98 93 115 
3 115 93 65 
3 115 65 114 
3 7 12 144 
3 7 144 145 
3 12 20 146 
3 12 146 144 
3 20 17 147 
3 20 147 146 
3 17 7 145 
3 17 145 147 
3 320 321 148 
3 320 148 149 
3 321 322 150 
3 321 150 148 
3 322 323 151 
3 322 151 150 
3 323 320 149 
3 323 149 151 
3 149 148 152 
3 149 152 153 
3 148 150 154 
3 148 154 152 
3 150 151 155 
3 150 155 154 
3 151 149 153 
3 151 153 155 
3 153 152 156 
3 153 156 157 
3 152 154 158 
3 152 158 156 
3 154 155 159 
3 154 159 158 
3 155 153 157 
3 155 157 159 
3 157 156 50 
3 157 50 53 
3 156 158 51 
3 156 51 50 
3 158 159 52 
3 158 52 51 
3 159 157 53 
3 159 53 52 
3 160 161 162 
3 160 162 163 
3 163 162 164 
3 163 164 165 
3 166 167 168 
3 166 168 169 
3 170 171 172 
3 170 172 173 
3 161 174 175 
3 161 175 162 
3 162 175 176 
3 162 176 164 
3 169 168 177 
3 169 177 178 
3 173 172 179 
3 173 179 180 
3 174 181 182 
3 174 182 175 
3 175 182 183 
3 175 183 176 
3 178 177 184 
3 178 184 185 
3 180 179 186 
3 180 186 187 
3 181 188 189 
3 181 189 182 
3 182 189 190 
3 182 190 183 
3 184 191 192 
3 184 192 185 
3 187 186 193 
3 187 193 194 
3 195 196 197 
3 195 197 198 
3 197 199 200 
3 197 200 198 
3 200 199 201 
3 200 201 202 
3 202 201 203 
3 202 203 204 
3 196 205 206 
3 196 206 197 
3 206 207 199 
3 206 199 197 
3 207 208 201 
3 207 201 199 
3 201 208 209 
3 201 209 203 
3 171 166 169 
3 171 169 172 
3 210 211 212 
3 210 212 213 
3 179 178 185 
3 179 185 186 
3 186 185 192 
3 186 192 193 
3 174 214 215 
3 174 215 181 
3 188 181 215 
3 188 215 216 
3 217 215 214 
3 217 214 218 
3 215 217 219 
3 215 219 216 
3 220 221 222 
3 220 222 223 
3 224 225 223 
3 224 223 222 
3 226 91 90 
3 226 90 227 
3 228 229 230 
3 228 230 231 
3 232 233 234 
3 232 234 235 
3 236 232 235 
3 236 235 237 
3 238 239 240 
3 238 240 241 
3 242 243 244 
3 242 244 245 
3 242 245 239 
3 242 239 238 
3 246 247 236 
3 246 236 237 
3 229 248 249 
3 229 249 230 
3 248 250 251 
3 248 251 249 
3 227 252 253 
3 227 253 226 
3 249 251 254 
3 249 254 230 
3 230 254 255 
3 230 255 231 
3 231 255 256 
3 231 256 257 
3 258 259 254 
3 258 254 251 
3 254 259 260 
3 254 260 255 
3 255 260 261 
3 255 261 256 
3 262 263 237 
3 262 237 235 
3 264 111 103 
3 264 103 263 
3 265 266 168 
3 265 168 167 
3 266 267 177 
3 266 177 168 
3 177 267 268 
3 177 268 184 
3 268 269 191 
3 268 191 184 
3 234 233 270 
3 234 270 257 
3 234 271 262 
3 234 262 235 
3 271 264 263 
3 271 263 262 
3 324 75 84 
3 324 84 325 
3 189 188 229 
3 189 229 228 
3 269 190 270 
3 269 270 233 
3 192 191 232 
3 192 232 236 
3 209 194 240 
3 209 240 239 
3 244 204 203 
3 244 203 245 
3 245 203 209 
3 245 209 239 
3 193 192 236 
3 193 236 247 
3 229 188 216 
3 229 216 248 
3 248 216 219 
3 248 219 250 
3 253 252 225 
3 253 225 224 
3 191 269 233 
3 191 233 232 
3 205 170 173 
3 205 173 206 
3 206 173 180 
3 206 180 207 
3 207 180 187 
3 207 187 208 
3 208 187 194 
3 208 194 209 
3 241 240 247 
3 241 247 246 
3 247 240 194 
3 247 194 193 
3 165 164 266 
3 165 266 265 
3 164 176 267 
3 164 267 266 
3 176 183 268 
3 176 268 267 
3 268 183 190 
3 268 190 269 
3 257 256 271 
3 257 271 234 
3 256 261 264 
3 256 264 271 
3 231 257 270 
3 231 270 228 
3 270 190 189 
3 270 189 228 
3 58 113 272 
3 58 272 218 
3 273 217 218 
3 273 218 272 
3 274 219 217 
3 274 217 273 
3 251 250 275 
3 251 275 258 
3 250 219 274 
3 250 274 275 
3 165 276 277 
3 165 277 163 
3 163 277 278 
3 163 278 160 
3 278 174 161 
3 278 161 160 
3 279 280 277 
3 279 277 276 
3 277 280 281 
3 277 281 278 
3 278 281 282 
3 278 282 174 
3 282 122 15 
3 282 15 174 
3 279 283 281 
3 279 281 280 
3 281 283 284 
3 281 284 282 
3 284 124 122 
3 284 122 282 
3 166 285 286 
3 166 286 167 
3 286 125 9 
3 286 9 167 
3 285 287 288 
3 285 288 286 
3 288 127 125 
3 288 125 286 
3 287 289 290 
3 287 290 288 
3 290 129 127 
3 290 127 288 
3 291 292 290 
3 291 290 289 
3 292 132 129 
3 292 129 290 
3 258 293 294 
3 258 294 259 
3 294 133 99 
3 294 99 259 
3 295 296 283 
3 295 283 279 
3 283 296 297 
3 283 297 284 
3 297 137 124 
3 297 124 284 
3 298 299 294 
3 298 294 293 
3 299 139 133 
3 299 133 294 
3 300 301 299 
3 300 299 298 
3 301 141 139 
3 301 139 299 
3 300 302 303 
3 300 303 301 
3 303 142 141 
3 303 141 301 
3 113 60 220 
3 113 220 272 
3 223 273 272 
3 223 272 220 
3 225 274 273 
3 225 273 223 
3 258 275 252 
3 258 252 227 
3 275 274 225 
3 275 225 252 
3 169 304 305 
3 169 305 172 
3 172 305 306 
3 172 306 179 
3 179 306 307 
3 179 307 178 
3 178 307 304 
3 178 304 169 
3 326 308 309 
3 326 309 327 
3 327 309 310 
3 327 310 328 
3 328 310 311 
3 328 311 329 
3 329 311 308 
3 329 308 326 
3 308 312 313 
3 308 313 309 
3 309 313 314 
3 309 314 310 
3 310 314 315 
3 310 315 311 
3 311 315 312 
3 311 312 308 
3 312 316 317 
3 312 317 313 
3 313 317 318 
3 313 318 314 
3 314 318 319 
3 314 319 315 
3 315 319 316 
3 315 316 312 
3 316 211 210 
3 316 210 317 
3 317 210 213 
3 317 213 318 
3 318 213 212 
3 318 212 319 
3 319 212 211 
3 319 211 316 
3 136 296 295 
3 136 295 135 
3 132 292 291 
3 132 291 131 
3 13 330 331 
3 13 331 10 
3 35 195 198 
3 35 198 36 
3 36 332 333 
3 36 333 39 
3 39 333 334 
3 39 334 41 
3 41 334 335 
3 41 335 43 
3 83 336 337 
3 83 337 80 
3 100 260 259 
3 100 259 99 
3 91 226 253 
3 91 253 92 
3 63 62 222 
3 63 222 221 
3 137 297 296 
3 137 296 136 
3 38 338 339 
3 38 339 35 
3 80 337 340 
3 80 340 76 
3 46 341 338 
3 46 338 38 
3 76 340 342 
3 76 342 77 
3 13 6 343 
3 13 343 330 
3 75 324 344 
3 75 344 103 
3 55 214 174 
3 55 174 15 
3 58 218 214 
3 58 214 55 
3 63 221 220 
3 63 220 60 
3 82 345 336 
3 82 336 83 
3 92 253 224 
3 92 224 64 
3 104 265 167 
3 104 167 9 
3 111 264 261 
3 111 261 101 
3 43 335 345 
3 43 345 82 
3 64 224 222 
3 64 222 62 
3 10 331 341 
3 10 341 46 
3 84 77 342 
3 84 342 325 
3 4 165 265 
3 4 265 104 
3 101 261 260 
3 101 260 100 
3 4 117 276 
3 4 276 165 
3 119 279 276 
3 119 276 117 
3 6 126 285 
3 6 285 166 
3 126 128 287 
3 126 287 285 
3 130 289 287 
3 130 287 128 
3 131 291 289 
3 131 289 130 
3 98 134 293 
3 98 293 258 
3 135 295 279 
3 135 279 119 
3 138 298 293 
3 138 293 134 
3 140 300 298 
3 140 298 138 
3 140 143 302 
3 140 302 300 
3 98 258 227 
3 98 227 90 
3 143 142 303 
3 143 303 302 
