ply
format ascii 1.0
comment VCGLIB generated
comment TextureFile TropicalFish04.jpg
element vertex 281
property float x
property float y
property float z
property float nx
property float ny
property float nz
property float texture_u
property float texture_v
element face 528
property list uchar int vertex_indices
end_header
-111.171 -28.8709 -59.4404 3.15496 1.2066 4.05501 0.693 0.3784
-104.542 -34.2496 -49.6725 0.625777 -0.000664651 -3.29743 0.6798 0.3573
-111.619 -55.6736 -44.1298 15.4119 -27.3794 -7.63537 0.6939 0.2735
-106.648 -51.289 -58.4783 16.6297 -25.6583 -1.11177 0.684 0.2907
-135.084 -50.9021 -39.1872 -2.53335 -1.70118 -4.9465 0.7409 0.2922
-111.621 -28.8709 -63.0389 -2.72849 -1.27398 -5.80542 0.6939 0.3784
-107.098 -51.289 -61.9351 14.7017 -25.1312 -3.66471 0.6849 0.2907
-119.817 -19.6857 -55.7192 -46.8426 64.6876 8.77358 0.7103 0.4143
-120.267 -19.6857 -59.1759 -49.2596 64.6416 3.52166 0.7112 0.4143
-136.125 -33.2165 -39.9765 -49.1723 64.2122 0.198429 0.7429 0.3614
-54.5072 -2.6996 -65.9746 3.26328 0.61051 2.97047 0.5797 0.4807
-54.5046 -2.6996 -67.306 2.54346 0.148462 -2.97064 0.5796 0.4807
-73.1416 39.6188 -65.0198 0.917784 1.47671 -0.913518 0.6169 0.6463
-73.1442 39.6188 -63.6884 -0.478677 1.62166 1.1335 0.6169 0.6463
-61.0365 -42.8191 -66.558 1.19277 -2.18192 -2.02501 0.5927 0.3238
-61.0391 -42.8191 -65.2266 2.39571 -1.2584 1.97182 0.5927 0.3238
36.5572 -69.7565 5.9317 0.797852 -1.96279 3.88023 0.3975 0.2185
63.5192 -54.5869 5.9317 1.50504 -2.3391 4.58114 0.3435 0.2778
25.9848 -58.411 35.0064 1.53896 -4.07895 3.741 0.4186 0.2628
11.4396 -77.5453 5.9317 0.690808 -2.93854 4.46537 0.4477 0.188
-26.0707 -69.1326 29.8082 0.669818 -4.34396 3.92378 0.5228 0.2209
-21.4703 -84.8539 5.9317 0.154498 -3.30972 4.48932 0.5136 0.1594
-57.9977 -86.8636 5.9317 -1.06744 -5.63735 2.53205 0.5866 0.1516
-57.9477 -69.1326 34.2533 0.169214 -4.59499 3.77049 0.5865 0.2209
-79.0152 -68.6088 34.2533 -0.176359 -4.58151 3.78013 0.6287 0.223
-68.4376 -86.0004 5.9317 0.622885 -4.98005 3.26052 0.6075 0.1549
-142.575 -58.3787 35.3227 -2.04916 -3.62343 3.94029 0.7559 0.263
-168.8 -45.4708 24.5357 -2.76448 -2.76785 4.25387 0.8083 0.3135
-168.014 -60.1163 5.93169 -2.8664 -4.76825 1.51736 0.8068 0.2562
-144.376 -72.0016 5.93169 -2.44975 -5.05028 1.44904 0.7595 0.2097
83.0312 -38.8673 5.9317 1.76576 -2.08328 5.78059 0.3045 0.3393
38.0179 -48.9996 35.0063 1.83804 -3.07215 4.4884 0.3945 0.2997
-24.1449 -55.7082 41.1357 0.762565 -2.65226 5.25459 0.5189 0.2734
-57.2532 -55.7082 47.2651 0.389715 -3.07586 4.97548 0.5851 0.2734
-81.771 -55.1933 47.2651 -0.384999 -2.95153 5.01673 0.6342 0.2754
-135.084 -50.9021 39.1017 -2.54251 -1.7128 4.93654 0.7409 0.2922
-169.321 -34.55 29.5486 -2.44573 -0.835785 5.34585 0.8093 0.3513
106.011 -22.3155 5.9317 1.90721 -2.45405 4.22494 0.2585 0.404
100.536 -10.3179 10.0892 1.1699 -0.160163 5.55595 0.2695 0.4509
60.0551 -7.0643 38.8108 2.55025 1.26172 7.06941 0.3504 0.4637
50.0511 -30.6415 41.1975 1.76467 -1.60547 3.97217 0.3705 0.3715
-18.9113 -5.6687 45.6047 0.947768 1.42359 5.66335 0.5084 0.4691
-22.2192 -33.3372 48.4082 0.7971 -0.791511 5.74781 0.5151 0.3609
-56.5586 -33.3372 55.619 0.752486 -0.623344 6.72668 0.5838 0.3609
-54.1053 -4.2731 52.3986 0.390195 1.36313 4.71675 0.5788 0.4746
-78.9021 -5.3425 52.3986 -0.123065 1.00601 4.82626 0.6285 0.4704
-80.1383 -32.8311 55.619 -0.413288 -0.833241 5.80253 0.6309 0.3629
-136.125 -33.2165 39.891 -49.5637 63.593 0.43953 0.7429 0.3614
-142.527 -0.8819 39.1614 -1.47137 0.635216 4.67458 0.7558 0.4879
-177.152 -4.0078 27.2142 -1.85102 0.218088 4.58118 0.825 0.4756
-169.72 -22.2024 29.5486 -2.43513 -0.330988 5.44748 0.8102 0.4094
100.683 7.4705 8.0105 1.55808 1.19526 5.45522 0.2692 0.5205
63.3474 16.931 25.76 1.49214 1.99405 4.23666 0.3439 0.5575
-16.2978 32.1644 29.6135 0.842043 2.87896 5.16662 0.5032 0.6171
-52.1886 38.5726 33.4671 0.773927 2.85482 5.17049 0.575 0.6422
-79.582 40.6639 33.4671 0.258131 3.19314 6.17892 0.6298 0.6504
-139.939 40.7417 29.8155 -1.27423 1.87365 5.50232 0.7506 0.6507
-176.422 28.8002 20.3684 -2.54784 1.52266 6.31636 0.8236 0.6039
36.5572 -69.7565 -6.1027 0.816952 -1.9289 -3.88322 0.3975 0.2185
11.4396 -77.5453 -6.1027 0.700532 -2.89771 -4.47106 0.4477 0.188
25.9848 -58.411 -35.1772 1.53896 -4.07895 -3.741 0.4186 0.2628
63.5192 -54.5869 -6.1027 1.46652 -2.25223 -3.58567 0.3435 0.2778
-21.4703 -84.8539 -6.1027 0.164191 -3.4713 -5.47614 0.5136 0.1594
-26.0707 -69.1326 -29.9791 0.669819 -4.34396 -3.92378 0.5228 0.2209
-57.9978 -86.8636 -6.1027 -0.695115 -5.74332 -2.53204 0.5866 0.1516
-68.4376 -86.0004 -6.1027 1.43267 -2.79389 -2.42143 0.6075 0.1549
-79.0152 -68.6088 -34.4242 -0.17861 -4.57896 -3.78229 0.6287 0.223
-57.9477 -69.1326 -34.4242 0.169214 -4.59499 -3.77049 0.5865 0.2209
-168.014 -60.1163 -6.10271 -2.95356 -4.7188 -1.51736 0.8068 0.2562
-168.8 -45.4708 -24.7066 -2.76067 -2.76277 -4.25719 0.8083 0.3135
-142.575 -58.3787 -35.4936 -2.04528 -3.61137 -3.94834 0.7559 0.263
-144.376 -72.0016 -6.10271 -2.44252 -5.05395 -1.44904 0.7595 0.2097
38.0179 -48.9996 -35.1772 1.83804 -3.07216 -4.4884 0.3945 0.2997
83.0312 -38.8673 -6.1027 1.76575 -2.08328 -5.78059 0.3045 0.3393
-24.1449 -55.7082 -41.3066 0.762565 -2.65228 -5.25459 0.5189 0.2734
-81.771 -55.1933 -47.436 -0.392064 -2.94889 -5.01723 0.6342 0.2754
-57.2532 -55.7082 -47.436 0.389714 -3.07586 -4.97548 0.5851 0.2734
-169.321 -34.55 -29.7195 -2.43935 -0.833069 -5.3489 0.8093 0.3513
106.011 -22.3155 -6.1027 2.97171 -1.15076 -5.1916 0.2585 0.404
50.0511 -30.6415 -41.3684 1.76467 -1.60547 -3.97217 0.3705 0.3715
60.0551 -7.0643 -38.9817 2.55025 1.26172 -7.06941 0.3504 0.4637
100.536 -10.3179 -10.2601 1.18799 0.0952847 -4.5893 0.2695 0.4509
-22.2192 -33.3372 -48.5792 0.7971 -0.791512 -5.74781 0.5151 0.3609
-18.9113 -5.6687 -45.7756 0.947763 1.42359 -5.66335 0.5084 0.4691
-56.5586 -33.3372 -55.7899 0.75248 -0.623344 -6.72668 0.5838 0.3609
-80.1383 -32.8311 -55.7899 -0.419508 -0.835509 -5.80188 0.6309 0.3629
-78.9021 -5.3425 -52.5695 -0.124688 1.00454 -4.82607 0.6285 0.4704
-54.1053 -4.2731 -52.5695 0.390191 1.36313 -4.71675 0.5788 0.4746
-169.72 -22.2024 -29.7195 -2.43195 -0.332228 -5.44845 0.8102 0.4094
-177.152 -4.0078 -27.3851 -1.84913 0.21543 -4.58172 0.825 0.4756
-142.527 -0.8819 -39.3323 -1.4706 0.631189 -4.67461 0.7558 0.4879
63.3474 16.931 -25.9309 1.49214 1.99405 -4.23666 0.3439 0.5575
100.683 7.4705 -8.1814 1.55808 1.19526 -5.45522 0.2692 0.5205
-16.2978 32.1645 -29.7845 0.842043 2.87896 -5.16662 0.5032 0.6171
-79.582 40.6639 -33.638 0.258134 3.19314 -6.17892 0.6298 0.6504
-52.1886 38.5726 -33.638 0.77392 2.85482 -5.17049 0.575 0.6422
-176.422 28.8002 -20.5393 -2.54784 1.52266 -6.31636 0.8236 0.6039
-139.939 40.7417 -29.9864 -1.27424 1.87365 -5.50232 0.7506 0.6507
65.8573 -107.454 1.228 0.608277 -3.22357 2.98344 0.3431 0.0882
19.8476 -111.102 1.228 0.0540617 -2.39727 2.9718 0.4299 0.0768
19.8476 -111.102 -1.399 0.0498731 -4.43226 -2.96611 0.4299 0.0768
65.8573 -107.454 -1.399 0.863903 -3.19593 -2.98046 0.3431 0.0882
-20.0564 -108.161 1.228 -0.70119 -3.4927 2.92023 0.5098 0.0883
-20.0564 -108.161 -1.399 -1.15057 -3.19211 -1.93342 0.5098 0.0883
-219.734 -34.5838 5.93169 -3.13896 -2.56446 1.74173 0.9269 0.3417
-219.1 -26.5603 5.93169 -2.40229 -1.56951 2.70794 0.9256 0.3751
-219.1 -26.5603 -6.10271 -3.80833 -2.4032 -2.70795 0.909 0.3874
-219.734 -34.5838 -6.10271 -1.84739 -1.68763 -1.74174 0.9102 0.356
-223.499 -24.5877 5.93169 -2.15298 -3.37976 2.77638 0.9346 0.3833
-223.499 -24.5877 -6.10271 -2.15298 -3.37975 -2.77638 0.9178 0.3951
-227.899 -22.615 5.93169 -3.72468 -2.0121 2.82365 0.9437 0.3915
-227.151 -13.6194 5.93169 -2.39983 1.06073 1.80346 0.9421 0.429
-227.151 -13.6194 -6.10271 -4.04796 1.90212 -1.80346 0.9251 0.438
-227.899 -22.615 -6.10271 -2.31894 -1.18243 -2.82365 0.9266 0.4028
-215.465 -3.5821 5.93169 -3.62353 2.46317 2.5784 0.9182 0.4708
-215.465 -3.5821 -6.10261 -3.93989 1.95579 -2.5784 0.9017 0.4773
-198.765 52.7962 5.93169 -3.82655 1.86624 2.68451 0.8758 0.7366
-198.765 52.7962 -6.10261 -3.60355 2.24517 -2.68451 0.8683 0.6978
-209.622 18.9324 -6.10261 -3.83068 1.14566 -1.7324 0.89 0.5654
-209.622 18.9324 5.93169 -3.84636 1.09155 1.7324 0.9062 0.5646
-80.9417 124.197 1.228 -0.148593 2.98717 4 0.6325 0.9771
-80.9417 124.197 -1.399 0.016781 2.99081 -3 0.6325 0.9771
-108.122 121.337 -1.3989 -0.73741 2.8382 -2 0.6869 0.9659
-108.122 121.337 1.228 -1.16085 2.69288 1 0.6869 0.9659
86.3185 90.3524 1.228 1.75664 3.55388 2 0.2979 0.8447
121.888 66.3963 1.22801 1.25796 1.54422 3 0.2267 0.751
121.888 66.3963 -1.39899 2.51591 3.08843 -2 0.2267 0.751
86.3185 90.3524 -1.399 0.878316 1.77694 -3 0.2979 0.8447
227.821 18.7388 1.00791 2.56517 -0.835116 2.99998 0.028 0.5675
227.821 18.7388 -1.17889 2.12806 -1.65726 -2.99998 0.028 0.5675
227.899 36.3489 -1.17889 2.08834 0.987484 -0.999999 0.0278 0.6232
227.899 36.3489 1.00791 1.17833 1.98782 0.999999 0.0278 0.6232
196.88 -2.333 0.967409 3.14936 -1.90206 2.99954 0.0899 0.4851
189.234 -62.1748 1.26901 1.08864 -1.11522 1.99915 0.1045 0.265
189.234 -62.1748 -1.43989 2.09136 -2.24655 -0.999575 0.1045 0.265
196.88 -2.333 -1.13829 1.62317 -0.943409 -3.99912 0.0899 0.4851
133.509 -78.0384 1.22801 2.62393 -0.794788 1.99265 0.2154 0.1994
133.509 -78.0384 -1.39899 2.13397 -1.74566 -1.99265 0.2154 0.1994
131.596 -56.4904 -1.39899 2.95333 0.687315 -1.99156 0.2192 0.2837
131.596 -56.4904 1.22801 2.75777 1.19821 1.99156 0.2192 0.2837
115.159 -88.8075 1.22801 1.8489 -3.81195 2.98922 0.2521 0.1573
115.159 -88.8075 -1.399 1.02753 -2.10103 -3.9847 0.2521 0.1573
-194.778 -29.4431 16.2889 -2.37148 -2.08572 4.94921 0.8603 0.3761
-197.308 -41.4994 5.93169 -2.61464 -4.30567 2.08789 0.8654 0.329
-195.248 -17.793 16.2889 -1.79433 -0.666003 4.57712 0.8612 0.4217
-195.034 -21.2953 16.2889 -2.41627 -0.845575 5.37706 0.8608 0.408
-199.079 -9.7735 16.2889 -3.30609 0.558065 7.12903 0.8689 0.4531
-199.594 6.3437 13.5415 -2.20455 0.948489 4.37222 0.8699 0.5161
-194.778 -29.4431 -16.4598 -2.37147 -2.08571 -4.94922 0.8603 0.3761
-197.308 -41.4994 -6.10271 -2.37294 -4.41728 -2.0879 0.8654 0.329
-195.034 -21.2953 -16.4598 -2.41627 -0.84557 -5.37706 0.8608 0.408
-199.079 -9.7735 -16.4598 -3.30608 0.558072 -7.12904 0.8689 0.4531
-195.248 -17.793 -16.4598 -1.79432 -0.665998 -4.57713 0.8612 0.4217
-199.594 6.3437 -13.7124 -2.20455 0.948492 -4.37222 0.8699 0.5161
-177.197 75.7829 5.93169 -2.9545 3.0353 2.72009 0.8396 0.8013
-177.197 75.7829 -6.10261 -2.79877 3.17024 -2.72009 0.8251 0.7877
-144.314 98.8044 5.93169 -1.854 4.09569 3.60851 0.7722 0.8972
-144.314 98.8044 -6.10261 -1.8101 4.12473 -3.60851 0.7593 0.8778
-108.86 -68.0851 34.2533 -0.851682 -4.50697 3.6316 0.6884 0.225
-116.806 -86.1448 5.93169 -1.72213 -4.82963 1.86678 0.7043 0.1544
-103.699 -6.4119 52.3986 -1.28072 1.24252 7.60217 0.6781 0.4662
-104.542 -34.2497 49.5871 1.01585 0.674062 2.66322 0.6798 0.3573
-107.013 40.9229 33.4671 -0.0469669 2.57964 5.36586 0.6847 0.6514
-106.914 89.4189 5.9317 0.342491 2.16688 4.48215 0.6845 0.841
-108.86 -68.0851 -34.4242 -0.851817 -4.50094 -3.63587 0.6884 0.225
-116.806 -86.1448 -6.10271 -1.6483 -5.39328 -2.70588 0.7043 0.1544
-103.699 -6.4119 -52.5696 -1.28432 1.23418 -7.60132 0.6781 0.4662
-107.013 40.9229 -33.638 -0.0469659 2.57964 -5.36586 0.6847 0.6514
-53.4547 122.525 1.228 0.182157 2.99446 3 0.5775 0.9705
-53.4547 122.525 -1.399 0.182152 2.99446 -3 0.5775 0.9705
124.486 -27.7473 5.93171 -1.04141 -3.47626 2.92057 0.2215 0.3828
124.427 -13.1603 8.69561 0.154286 -0.387489 4.93014 0.2217 0.4398
124.486 -27.7473 -6.10269 -0.891409 -3.41005 -2.94118 0.2215 0.3828
124.427 -13.1603 -8.86649 0.101269 -0.487676 -4.90954 0.2217 0.4398
119.91 4.1594 -7.48459 0.271397 0.532921 -5.96883 0.2307 0.5076
143.103 45.64 1.22801 2.06005 0.679534 2 0.1971 0.6742
143.103 45.64 -1.39899 2.02209 -0.785319 -2 0.1971 0.6742
119.91 4.1594 7.31371 0.271397 0.532921 5.96883 0.2307 0.5076
118.841 20.3878 5.93171 1.58278 0.552441 4.87549 0.2328 0.571
100.247 26.4241 5.9317 1.12354 2.22796 5.32717 0.27 0.5947
139.2 -33.7741 4.93171 -1.32022 -2.94046 2.94114 0.1921 0.3592
147.472 -12.8207 7.46541 0.787289 -0.27588 5.8865 0.1755 0.4412
139.2 -33.7741 -5.10269 -0.896874 -3.05225 -2.9205 0.1921 0.3592
147.472 -12.8207 -7.63629 0.601025 -0.301794 -5.90714 0.1755 0.4412
149.44 7.5326 -6.36949 0.708878 0.245711 -5.92235 0.1716 0.5208
118.841 20.3878 -6.10259 0.667434 2.59793 -5.76919 0.2328 0.571
150.077 25.9661 4.93171 -0.312871 3.06779 2.96977 0.1703 0.5929
150.077 25.9661 -5.10259 -0.441857 3.03578 -2.96977 0.1703 0.5929
149.44 7.5326 6.19861 0.708878 0.245711 5.92235 0.1716 0.5208
153.353 -44.8451 1.83571 -1.32999 -2.66246 2.93308 0.1638 0.3159
167.256 -8.9237 1.83571 0.757343 -0.153743 5.91111 0.136 0.4564
153.353 -44.8451 -2.00659 -1.56344 -2.50762 -2.96631 0.1638 0.3159
167.256 -8.9237 -2.00659 0.961396 -0.286446 -5.87788 0.136 0.4564
171.986 13.0441 -2.00659 0.658259 0.0254562 -5.94361 0.1265 0.5423
170.842 32.6115 1.83571 -0.549035 2.91835 2.98566 0.1284 0.613
170.842 32.6115 -2.00659 -0.400593 2.95364 -2.98566 0.1284 0.613
171.986 13.0441 1.83571 0.658259 0.0254562 5.94361 0.1265 0.5423
177.89 -62.6224 1.83571 -0.44492 -2.79607 2.99927 0.1272 0.2633
178.644 -5.7363 1.26901 0.158366 -0.0187988 5.99718 0.1264 0.4718
177.89 -62.6224 -2.00659 -1.05957 -2.60467 -2.999 0.1272 0.2633
178.644 -5.7363 -1.43989 0.146874 -0.0207764 -5.99745 0.1264 0.4718
198.02 11.905 -1.13829 0.105491 -0.0260249 -5.99824 0.0876 0.5408
206.604 38.2727 0.967409 -0.197535 2.96738 2.99958 0.0705 0.6307
206.604 38.2727 -1.13829 0.0487878 2.97562 -2.99958 0.0705 0.6307
198.02 11.905 0.967409 0.105499 -0.0260261 5.99824 0.0876 0.5408
63.8451 45.8261 5.9317 1.31165 2.83541 5.08137 0.3429 0.6705
-8.3262 65.7622 5.9317 0.903942 3.35069 6.04875 0.4873 0.7485
-47.3616 74.9031 5.9317 0.543845 2.49921 4.26749 0.5654 0.7843
-77.1379 82.161 5.9317 0.614618 3.11486 6.20551 0.6249 0.8127
63.8451 45.8261 -6.1026 1.0421 2.37613 -4.23496 0.3429 0.6705
100.247 26.4241 -6.1026 1.34418 2.24126 -5.27987 0.27 0.5947
-47.3616 74.9031 -6.1026 0.543843 2.49921 -4.26749 0.5654 0.7843
-8.3262 65.7622 -6.1026 0.90394 3.3507 -6.04875 0.4873 0.7485
-106.914 89.4189 -6.1026 0.342491 2.16688 -4.48215 0.6845 0.841
-77.1379 82.161 -6.1026 0.614618 3.11486 -6.20551 0.6249 0.8127
102.922 31.5597 1.228 0.58804 1.36455 5.58651 0.2647 0.6147
66.8529 54.6917 1.228 0.50713 1.31027 6.64067 0.3368 0.7052
128.486 32.7518 1.22801 2.20907 -1.22321 2.7874 0.2135 0.6194
128.486 32.7518 -1.39889 2.28723 -1.53422 -1.8937 0.2135 0.6194
102.922 31.5597 -1.3989 0.367402 1.35125 -6.6338 0.2647 0.6147
66.8528 54.6917 -1.3989 0.776686 1.76954 -6.48707 0.3368 0.7052
-4.9017 74.936 -1.3989 0.218905 0.835324 -4.80378 0.4804 0.7844
-73.706 92.7959 -1.3989 0.192516 0.753423 -4.8425 0.6181 0.8543
-46.4729 85.4867 -1.3989 0.397735 1.59258 -6.64731 0.5636 0.8257
-134.405 104.992 -1.39891 -1.4155 3.39226 -2.8044 0.7395 0.902
-100.939 100.105 -1.3989 0.272693 1.15678 -5.75318 0.6726 0.8828
-134.405 104.992 1.22799 -1.41703 3.39131 3.8044 0.7519 0.9229
-100.939 100.105 1.228 0.272697 1.15678 4.75318 0.6726 0.8828
-73.706 92.7959 1.228 0.192518 0.753433 4.8425 0.6181 0.8543
-4.9017 74.936 1.228 0.218907 0.83533 4.80378 0.4804 0.7844
-46.4729 85.4867 1.228 0.397736 1.59259 6.64731 0.5636 0.8257
24.7358 111.131 1.228 0.696331 2.91174 3 0.4211 0.926
-25.9677 120.853 1.228 0.309751 2.97842 3 0.5226 0.964
24.7358 111.131 -1.399 0.827708 2.87714 -3 0.4211 0.926
-25.9677 120.853 -1.399 0.43735 2.96236 -3 0.5226 0.964
-42.1017 -94.9796 1.228 -1.60189 -3.24053 1.89323 0.5537 0.1271
-42.1017 -94.9796 -1.399 -1.54343 -3.27288 -1.89322 0.5537 0.1271
-111.619 -55.6736 44.0444 15.4131 -27.4321 7.62268 0.6939 0.2735
-40.9637 -124.197 1.228 0.577267 -2.75741 2 0.5568 0.0246
-40.9637 -124.197 -1.399 -0.149787 -2.81321 -1 0.5568 0.0246
-38.8046 -123.155 -1.399 1.71634 -1.26915 -2 0.5525 0.0287
-38.8046 -123.155 1.228 2.12835 0.163321 1 0.5525 0.0287
-100.616 -95.3666 1.228 -1.47829 -3.65431 2.67818 0.6667 0.1297
-65.0105 -90.0423 1.228 2.24209 1.48261 2.83909 0.6007 0.1391
-100.616 -95.3666 -1.399 -1.48153 -3.13056 -2.83909 0.6667 0.1297
-65.0105 -90.0423 -1.399 2.196 1.02507 -2.67818 0.6007 0.1391
-82.8911 -106.358 1.228 -1.4352 -2.63176 3 0.6312 0.0868
-57.0388 -97.4614 1.228 2.16019 2.0672 3 0.5847 0.1101
-82.8911 -106.358 -1.399 -1.50815 -2.59065 -3 0.6312 0.0868
-57.0388 -97.4614 -1.399 2.27653 1.93833 -3 0.5847 0.1101
-58.2652 -118.909 1.228 -1.03864 -2.80363 3 0.5915 0.0453
-44.6666 -113.823 1.228 2.44204 1.73823 3 0.5643 0.0652
-58.2652 -118.909 -1.399 -1.20044 -2.73825 -3 0.5915 0.0453
-44.6666 -113.823 -1.399 2.4912 1.66701 -3 0.5643 0.0652
-111.171 -28.8709 59.4403 2.77227 0.542462 -3.4145 0.693 0.3784
-106.648 -51.289 58.4783 16.6293 -25.6961 1.11105 0.684 0.2907
-107.098 -51.289 61.935 14.7004 -25.1702 3.66322 0.6849 0.2907
-111.621 -28.8709 63.0389 -2.73274 -1.27739 5.7999 0.6939 0.3784
-120.267 -19.6857 59.1759 -49.2608 64.6795 -3.52293 0.7112 0.4143
-119.817 -19.6857 55.7192 -46.4603 65.3979 -9.40807 0.7103 0.4143
-54.5072 -2.6997 65.9746 3.26328 0.61051 -2.97047 0.5797 0.4807
-73.1442 39.6188 63.6884 -0.478678 1.62166 -1.1335 0.6169 0.6463
-73.1416 39.6188 65.0198 0.917785 1.47671 0.913518 0.6169 0.6463
-54.5046 -2.6997 67.306 2.54346 0.148459 2.97064 0.5796 0.4807
-61.0391 -42.8191 65.2266 2.39571 -1.25841 -1.97182 0.5927 0.3238
-61.0365 -42.8191 66.558 1.19277 -2.18192 2.02501 0.5927 0.3238
-168.014 -60.1163 5.93169 -2.8664 -4.76825 1.51736 0.8208 0.2354
-144.376 -72.0016 5.93169 -2.44975 -5.05028 1.44904 0.7723 0.1859
-219.1 -26.5603 5.93169 -2.40229 -1.56951 2.70794 0.909 0.3874
-219.734 -34.5838 5.93169 -3.13896 -2.56446 1.74173 0.9102 0.356
-227.899 -22.615 5.93169 -3.72468 -2.0121 2.82365 0.9266 0.4028
-223.499 -24.5877 5.93169 -2.15298 -3.37976 2.77638 0.9178 0.3951
-227.151 -13.6194 5.93169 -2.39983 1.06073 1.80346 0.9251 0.438
-198.765 52.7962 5.93169 -3.82655 1.86624 2.68451 0.8683 0.6978
-209.622 18.9324 5.93169 -3.84636 1.09155 1.7324 0.89 0.5654
-215.465 -3.5821 5.93169 -3.62353 2.46317 2.5784 0.9017 0.4773
-197.308 -41.4994 5.93169 -2.61464 -4.30567 2.08789 0.8809 0.3129
-177.197 75.7829 5.93169 -2.9545 3.0353 2.72009 0.8251 0.7877
-144.314 98.8044 5.93169 -1.854 4.09569 3.60851 0.7593 0.8778
-116.806 -86.1448 5.93169 -1.72213 -4.82963 1.86678 0.7157 0.127
-134.405 104.992 1.22799 -1.41703 3.39131 3.8044 0.7395 0.902
3 0 1 2 
3 0 2 3 
3 2 4 5 
3 2 5 6 
3 3 2 6 
3 7 8 9 
3 10 11 12 
3 10 12 13 
3 7 0 10 
3 7 10 13 
3 3 6 14 
3 3 14 15 
3 5 11 14 
3 5 14 6 
3 8 7 13 
3 8 13 12 
3 9 1 0 
3 9 0 7 
3 9 8 5 
3 9 5 4 
3 15 14 11 
3 15 11 10 
3 0 3 15 
3 0 15 10 
3 8 12 11 
3 8 11 5 
3 16 17 18 
3 16 18 19 
3 19 18 20 
3 19 20 21 
3 22 23 24 
3 22 24 25 
3 26 27 28 
3 26 28 29 
3 17 30 31 
3 17 31 18 
3 18 31 32 
3 18 32 20 
3 23 33 34 
3 23 34 24 
3 35 36 27 
3 35 27 26 
3 37 38 39 
3 37 39 40 
3 39 41 42 
3 39 42 40 
3 43 44 45 
3 43 45 46 
3 47 48 49 
3 47 49 50 
3 51 52 39 
3 51 39 38 
3 39 52 53 
3 39 53 41 
3 44 54 55 
3 44 55 45 
3 48 56 57 
3 48 57 49 
3 58 59 60 
3 58 60 61 
3 59 62 63 
3 59 63 60 
3 64 65 66 
3 64 66 67 
3 68 69 70 
3 68 70 71 
3 61 60 72 
3 61 72 73 
3 60 63 74 
3 60 74 72 
3 67 66 75 
3 67 75 76 
3 69 77 4 
3 69 4 70 
3 78 79 80 
3 78 80 81 
3 82 83 80 
3 82 80 79 
3 84 85 86 
3 84 86 87 
3 9 88 89 
3 9 89 90 
3 80 91 92 
3 80 92 81 
3 80 83 93 
3 80 93 91 
3 87 86 94 
3 87 94 95 
3 90 89 96 
3 90 96 97 
3 98 99 100 
3 98 100 101 
3 102 103 100 
3 102 100 99 
3 25 65 64 
3 25 64 22 
3 266 68 71 
3 266 71 267 
3 104 105 106 
3 104 106 107 
3 108 109 106 
3 108 106 105 
3 110 111 112 
3 110 112 113 
3 114 115 112 
3 114 112 111 
3 116 117 118 
3 116 118 119 
3 120 121 122 
3 120 122 123 
3 124 125 126 
3 124 126 127 
3 128 129 130 
3 128 130 131 
3 132 133 134 
3 132 134 135 
3 136 137 138 
3 136 138 139 
3 140 98 101 
3 140 101 141 
3 142 268 269 
3 142 269 143 
3 144 270 271 
3 144 271 145 
3 146 272 270 
3 146 270 144 
3 147 273 274 
3 147 274 275 
3 107 106 148 
3 107 148 149 
3 106 109 150 
3 106 150 148 
3 113 112 151 
3 113 151 152 
3 115 153 151 
3 115 151 112 
3 104 107 149 
3 104 149 276 
3 154 155 117 
3 154 117 116 
3 27 142 143 
3 27 143 28 
3 50 144 145 
3 50 145 36 
3 146 144 50 
3 146 50 49 
3 273 147 57 
3 273 57 277 
3 149 148 69 
3 149 69 68 
3 148 150 77 
3 148 77 69 
3 88 152 151 
3 88 151 89 
3 151 153 96 
3 151 96 89 
3 276 149 68 
3 276 68 266 
3 156 157 155 
3 156 155 154 
3 158 26 29 
3 158 29 159 
3 160 48 47 
3 160 47 161 
3 278 56 162 
3 278 162 163 
3 71 70 164 
3 71 164 165 
3 70 4 2 
3 70 2 164 
3 9 90 166 
3 9 166 1 
3 166 90 97 
3 166 97 167 
3 267 71 165 
3 267 165 279 
3 168 169 121 
3 168 121 120 
3 38 37 170 
3 38 170 171 
3 37 78 172 
3 37 172 170 
3 78 81 173 
3 78 173 172 
3 81 92 174 
3 81 174 173 
3 126 125 175 
3 126 175 176 
3 51 177 178 
3 51 178 179 
3 171 170 180 
3 171 180 181 
3 170 172 182 
3 170 182 180 
3 172 173 183 
3 172 183 182 
3 174 184 183 
3 174 183 173 
3 185 178 186 
3 185 186 187 
3 178 177 188 
3 178 188 186 
3 181 180 189 
3 181 189 190 
3 180 182 191 
3 180 191 189 
3 182 183 192 
3 182 192 191 
3 184 193 192 
3 184 192 183 
3 187 186 194 
3 187 194 195 
3 186 188 196 
3 186 196 194 
3 190 189 197 
3 190 197 198 
3 189 191 199 
3 189 199 197 
3 191 192 200 
3 191 200 199 
3 193 201 200 
3 193 200 192 
3 195 194 202 
3 195 202 203 
3 194 196 204 
3 194 204 202 
3 198 197 133 
3 198 133 132 
3 197 199 134 
3 197 134 133 
3 199 200 135 
3 199 135 134 
3 201 129 135 
3 201 135 200 
3 203 202 131 
3 203 131 130 
3 202 204 128 
3 202 128 131 
3 179 205 52 
3 179 52 51 
3 205 206 53 
3 205 53 52 
3 207 208 55 
3 207 55 54 
3 56 278 277 
3 56 277 57 
3 91 209 210 
3 91 210 92 
3 95 211 212 
3 95 212 93 
3 167 213 214 
3 167 214 94 
3 155 157 97 
3 155 97 96 
3 119 118 115 
3 119 115 114 
3 132 135 129 
3 132 129 128 
3 146 147 275 
3 146 275 272 
3 153 115 118 
3 153 118 117 
3 146 49 57 
3 146 57 147 
3 117 155 96 
3 117 96 153 
3 56 48 160 
3 56 160 162 
3 157 213 167 
3 157 167 97 
3 92 210 185 
3 92 185 174 
3 38 171 177 
3 38 177 51 
3 185 187 184 
3 185 184 174 
3 177 171 181 
3 177 181 188 
3 187 195 193 
3 187 193 184 
3 188 181 190 
3 188 190 196 
3 195 203 201 
3 195 201 193 
3 196 190 198 
3 196 198 204 
3 203 130 129 
3 203 129 201 
3 204 198 132 
3 204 132 128 
3 205 179 215 
3 205 215 216 
3 179 178 217 
3 179 217 215 
3 178 185 218 
3 178 218 217 
3 185 210 219 
3 185 219 218 
3 210 209 220 
3 210 220 219 
3 212 221 220 
3 212 220 209 
3 214 222 223 
3 214 223 211 
3 213 157 224 
3 213 224 225 
3 157 156 226 
3 157 226 224 
3 280 278 163 
3 280 163 227 
3 208 228 227 
3 208 227 163 
3 206 229 230 
3 206 230 207 
3 228 168 120 
3 228 120 227 
3 229 231 232 
3 229 232 230 
3 216 215 125 
3 216 125 124 
3 215 217 175 
3 215 175 125 
3 217 218 176 
3 217 176 175 
3 176 218 219 
3 176 219 126 
3 219 220 127 
3 219 127 126 
3 220 221 233 
3 220 233 127 
3 223 222 169 
3 223 169 234 
3 234 232 231 
3 234 231 233 
3 23 22 21 
3 23 21 20 
3 43 33 32 
3 43 32 42 
3 41 44 43 
3 41 43 42 
3 54 44 41 
3 54 41 53 
3 62 64 67 
3 62 67 63 
3 63 67 76 
3 63 76 74 
3 84 87 83 
3 84 83 82 
3 83 87 95 
3 83 95 93 
3 235 236 103 
3 235 103 102 
3 124 127 233 
3 124 233 231 
3 206 207 54 
3 206 54 53 
3 209 91 93 
3 209 93 212 
3 212 211 223 
3 212 223 221 
3 206 205 216 
3 206 216 229 
3 216 124 231 
3 216 231 229 
3 221 223 234 
3 221 234 233 
3 225 224 122 
3 225 122 121 
3 224 280 123 
3 224 123 122 
3 280 227 120 
3 280 120 123 
3 17 16 98 
3 17 98 140 
3 16 19 99 
3 16 99 98 
3 19 21 102 
3 19 102 99 
3 21 22 235 
3 21 235 102 
3 22 64 236 
3 22 236 235 
3 236 64 62 
3 236 62 103 
3 62 59 100 
3 62 100 103 
3 59 58 101 
3 59 101 100 
3 58 61 141 
3 58 141 101 
3 73 137 141 
3 73 141 61 
3 78 37 139 
3 78 139 138 
3 30 136 139 
3 30 139 37 
3 30 37 40 
3 30 40 31 
3 31 40 42 
3 31 42 32 
3 33 43 46 
3 33 46 34 
3 47 50 36 
3 47 36 35 
3 79 78 73 
3 79 73 72 
3 82 79 72 
3 82 72 74 
3 1 85 75 
3 1 75 2 
3 77 88 9 
3 77 9 4 
3 110 113 109 
3 110 109 108 
3 140 141 137 
3 140 137 136 
3 268 142 145 
3 268 145 271 
3 109 113 152 
3 109 152 150 
3 142 27 36 
3 142 36 145 
3 150 152 88 
3 150 88 77 
3 26 158 237 
3 26 237 35 
3 33 23 20 
3 33 20 32 
3 84 82 74 
3 84 74 76 
3 73 78 138 
3 73 138 137 
3 30 17 140 
3 30 140 136 
3 158 159 25 
3 158 25 24 
3 237 158 24 
3 237 24 34 
3 160 161 46 
3 160 46 45 
3 55 162 160 
3 55 160 45 
3 65 165 164 
3 65 164 66 
3 66 164 2 
3 66 2 75 
3 85 1 166 
3 85 166 86 
3 166 167 94 
3 166 94 86 
3 238 239 240 
3 238 240 241 
3 232 234 169 
3 232 169 168 
3 208 163 162 
3 208 162 55 
3 211 95 94 
3 211 94 214 
3 214 213 225 
3 214 225 222 
3 208 207 230 
3 208 230 228 
3 230 232 168 
3 230 168 228 
3 222 225 121 
3 222 121 169 
3 161 237 34 
3 161 34 46 
3 85 84 76 
3 85 76 75 
3 25 159 242 
3 25 242 243 
3 159 165 244 
3 159 244 242 
3 165 65 245 
3 165 245 244 
3 65 25 243 
3 65 243 245 
3 243 242 246 
3 243 246 247 
3 242 244 248 
3 242 248 246 
3 244 245 249 
3 244 249 248 
3 245 243 247 
3 245 247 249 
3 247 246 250 
3 247 250 251 
3 246 248 252 
3 246 252 250 
3 248 249 253 
3 248 253 252 
3 249 247 251 
3 249 251 253 
3 251 250 238 
3 251 238 241 
3 250 252 239 
3 250 239 238 
3 252 253 240 
3 252 240 239 
3 253 251 241 
3 253 241 240 
3 254 255 237 
3 254 237 161 
3 237 256 257 
3 237 257 35 
3 255 256 237 
3 47 258 259 
3 260 261 262 
3 260 262 263 
3 259 261 260 
3 259 260 254 
3 255 264 265 
3 255 265 256 
3 257 256 265 
3 257 265 263 
3 258 262 261 
3 258 261 259 
3 259 254 161 
3 259 161 47 
3 47 35 257 
3 47 257 258 
3 264 260 263 
3 264 263 265 
3 254 260 264 
3 254 264 255 
3 258 257 263 
3 258 263 262 
